<mxfile host="65bd71144e">
    <diagram id="1cNGhLR_8kZwMBw010l9" name="Page-1">
        <mxGraphModel dx="4810" dy="1383" grid="1" gridSize="10" guides="1" tooltips="1" connect="1" arrows="1" fold="1" page="1" pageScale="1" pageWidth="850" pageHeight="1100" math="0" shadow="0">
            <root>
                <mxCell id="0"/>
                <mxCell id="1" parent="0"/>
                <mxCell id="31" value="" style="rounded=0;whiteSpace=wrap;html=1;fillColor=none;movable=1;resizable=1;rotatable=1;deletable=1;editable=1;locked=0;connectable=1;" parent="1" vertex="1">
                    <mxGeometry x="4320" y="1180" width="820" height="986.71" as="geometry"/>
                </mxCell>
                <mxCell id="kcnUWA92U77O0IDC7jmT-39" value="" style="rounded=0;whiteSpace=wrap;html=1;fillColor=none;movable=1;resizable=1;rotatable=1;deletable=1;editable=1;locked=0;connectable=1;" parent="1" vertex="1">
                    <mxGeometry x="-810" y="30" width="3350" height="2160" as="geometry"/>
                </mxCell>
                <mxCell id="kcnUWA92U77O0IDC7jmT-40" value="" style="rounded=1;whiteSpace=wrap;html=1;fillColor=#4CAF50;" parent="1" vertex="1">
                    <mxGeometry x="-770" y="60" width="720" height="2100" as="geometry"/>
                </mxCell>
                <mxCell id="38" value="" style="rounded=0;whiteSpace=wrap;html=1;fillColor=none;movable=0;resizable=0;rotatable=0;deletable=0;editable=0;locked=1;connectable=0;" parent="1" vertex="1">
                    <mxGeometry x="4300" y="30" width="1630" height="2160" as="geometry"/>
                </mxCell>
                <mxCell id="28" value="" style="rounded=0;whiteSpace=wrap;html=1;fillColor=none;movable=1;resizable=1;rotatable=1;deletable=1;editable=1;locked=0;connectable=1;" parent="1" vertex="1">
                    <mxGeometry x="2580" y="30" width="1630" height="2160" as="geometry"/>
                </mxCell>
                <mxCell id="23" value="" style="rounded=0;whiteSpace=wrap;html=1;fontSize=20;fillColor=#d5e8d4;strokeColor=#82b366;" parent="1" vertex="1">
                    <mxGeometry x="4510" y="1420" width="440" height="320" as="geometry"/>
                </mxCell>
                <mxCell id="2" value="Comms" style="rounded=0;whiteSpace=wrap;html=1;fillColor=#60a917;fontColor=#ffffff;strokeColor=#2D7600;" parent="1" vertex="1">
                    <mxGeometry x="4530" y="1440" width="120" height="120" as="geometry"/>
                </mxCell>
                <mxCell id="3" value="MCU" style="rounded=0;whiteSpace=wrap;html=1;fillColor=#008a00;fontColor=#ffffff;strokeColor=#005700;" parent="1" vertex="1">
                    <mxGeometry x="4530" y="1590" width="120" height="120" as="geometry"/>
                </mxCell>
                <mxCell id="4" value="Func1" style="rounded=0;whiteSpace=wrap;html=1;fillColor=#d80073;fontColor=#ffffff;strokeColor=#A50040;" parent="1" vertex="1">
                    <mxGeometry x="4680" y="1440" width="230" height="120" as="geometry"/>
                </mxCell>
                <mxCell id="6" value="&lt;font style=&quot;font-size: 20px;&quot;&gt;2U&lt;/font&gt;" style="text;html=1;strokeColor=none;fillColor=none;align=center;verticalAlign=middle;whiteSpace=wrap;rounded=0;" parent="1" vertex="1">
                    <mxGeometry x="4510" y="1380" width="60" height="30" as="geometry"/>
                </mxCell>
                <mxCell id="20" value="" style="rounded=0;whiteSpace=wrap;html=1;fontSize=20;fillColor=#fa6800;fontColor=#000000;strokeColor=#C73500;" parent="1" vertex="1">
                    <mxGeometry x="4630" y="1400" width="200" height="20" as="geometry"/>
                </mxCell>
                <mxCell id="21" value="Func2" style="rounded=0;whiteSpace=wrap;html=1;fillColor=#a20025;fontColor=#ffffff;strokeColor=#6F0000;" parent="1" vertex="1">
                    <mxGeometry x="4680" y="1590" width="230" height="120" as="geometry"/>
                </mxCell>
                <mxCell id="26" value="" style="shape=image;verticalLabelPosition=bottom;labelBackgroundColor=default;verticalAlign=top;aspect=fixed;imageAspect=0;image=data:image/png,iVBORw0KGgoAAAANSUhEUgAAAZEAAAIICAYAAACvoNNBAAAAAXNSR0IArs4c6QAAIABJREFUeF7snQd8HMXZ/3+71+90ulOvluWGsXGn2NgGTDXNGDAk1FDeQEgIxJC8kMJLChAgtIQESAGbXmN6M4kxvbti3CVZVu+6Xnf3/5+5O+l0luzTaXUqfvbzAUvanZnd78zt72aeMoKiKAroIAJEgAgQASKQAgGBRCQFalSECBABIkAEOAESERoIRIAIEAEikDIBEpGU0VFBIkAEiAARIBGhMUAEiAARIAIpEyARSRkdFSQCRIAIEAESERoDRIAIEAEikDIBEpGU0VFBIkAEiAARIBGhMUAEiAARIAIpEyARSRkdFSQCRIAIEAESERoDRIAIEAEikDIBEpGU0VFBIkAEiAARIBGhMUAEiAARIAIpEyARSRkdFSQCRIAIEAESERoDRIAIEAEikDIBEpGU0VFBIkAEiAARIBGhMUAEiAARIAIpEyARSRkdFSQCRIAIEAESERoDRIAIEAEikDIBEpGU0VFBIkAEiAARIBGhMUAEiAARIAIpEyARSRkdFSQCRIAIEAESERoDRIAIEAEikDIBEpGU0VFBIkAEiAARIBGhMUAEiAARIAIpEyARSRkdFSQCRIAIEAESERoDRIAIEAEikDIBEpGU0VFBIkAEiAARIBGhMUAEiAARIAIpEyARSRkdFSQCRIAIEAESERoDRIAIEAEikDIBEpEk0CmKAlSFINRKgJRQoEgDlGsBo5hETXQJESACBy0BGVAqghDqJUDuSUEp00CYoB+RaEhEeuu2VgmokyCZFVQ4Aqho9KE2LMOpU+ALCYDClESBXqtFRhjIF0SMsYs4JFdGpssC2RKEf5xuRA4IumkiQATUIWDolCG0hdEpalHXGURlh4JmSYJLDwRCCiLfSAUYdBr+HikWNZiYb8H4HB1MPkCxCxDKhv97hEQkNl7CCtAswV0fxm6nD18pMuo63MjLNGBcvp53bIFND1uGHhpR4KU6PWF0ehTsafFgV3MQjW0h2C3AUTkZmBzUwj7WAMUmQsikWYo6H0uqhQgMbwJKWIHQIqOzKohtQR82eSQ0+YMoytJhUp4WY3MNyM40wGoSoRFFyAp7j0hoc/hQ3epHVZuE+o4ASmwazLRm4NCwFtYyA5CrAUyR985wO0hEFEBpDiPwbRAf5Qh4ZUMjZo814orj8qHTavrVX2zVS5IVrN3sw8sbmrDw0Ewsy8mAAQKEiTpAMzwHQb8eki4mAkRgXwJseao+DO+2AFZbnXhvmx+Lp5qx5MgCiIIEQejfu8QfUvDyFw34eHcAp8/IxCk+M/TlOghs+XyYvUcObhEJK1A+9eMd0YcP9rpw4cI8TC40wGzoX4cnjig2UQ2GFFQ2+7DyoxbMKdDhvOwcaO1R+wl9CIkAERg1BBRJBjYG8ZrTj4/qHLjyuAJMLDTAqBv4l0ZfUMK2Oi8e/6gVp47PwemZBiiFGggF2mHD7+AVkbowmpuCeKqmDWUFBiyemYtMk/rLTsGwgg+3ObC+yodzy02YpDUDk2lWMmw+AXQjRGAgBCpDqG0I45mOdkwvMeHkGVnQDcJMIRCSsXpzB3Y0+HHx2FwUKwIwTQ+o/8rqN42DUkSUyiC21gfwaFUrrjulAOMLzP0G198CjZ1h/H1NIxYfmom5Pj3E6QbAMPBvKv29D7qeCBABFQgoCpStIWzy+vD8bheuW5yPkuzB966qanLj0bVtuGxRASY1CRCm6AH90L5HDj4RWRfAJ34P3ql14ffnjUU/zR4DGn0hScFtr9XghCk5OLZFhHisaUD1UWEiQASGhoC02ot3cn34dLcHt58/psvZJh134w/KuO7JPbjyuHwc3aoFjjamo9k+2zioRESpDOHjJhe2OP247Lh8WIzpX1dkhvcVa5tQatXhNJsVmDz4316GdIRR40RglBFQPvfj9ZAL7YqCSxbmDcry1YGQsWXyv72zF7NKbTghbAIONwzZ0tbBIyJ1Yeyo9ODlNid+urgIVlP6BSR+YPx1dT2OKM7AXLcO4lEmYGC2/AONOTpPBIiAGgRqwljX4sSXbUFcfUIBtINg/0j2Nv0hGQ+vrsPiyZmY6jZCmG1Itqiq1x0cIhJQ0LbBg9t2tuDOC8pg0g/9GzsQVnDPm3VYflIRTHtD0Nh1YLayrsMiQLEIEFtlKAnRrcgSoegAsUUGcyuOP5TsiKVNaE8sBCj5IhAChI7ezwkeBWD/xR2CDpBzRAhOBfAmnDMIkLMEiG0ylFDCuMwUoJij9x9OOGcToRgBsXnf+0eeGInBSrh/5iEp54kQ/MyxPuE+tICcK0J0KFB8CefMAuRMAWKnAoWVjX82iwDZKkTuIxFJrgiZeVMyxr2c49W09jwhiICcL0J0K1DcCW3pATlbhOhSoCQyNgqQbAI0jGMiq0wBsqmPc3YBik7gcQk9nkuI8ODDqbdz+YwjAEdCOS0g5YgQWV8ncIQRkG0i54hAwqAzCVAyBQjNLCS7974WmnoZc3YRAvsul8CR1aCw+2dFEsdB7NnYPbD7jD800XLsudjzxR/sHm1C5HMRTDhnFqCwccA+a4kZKewiFGa/Zud8Muq2+vGHnU144OyxMBdqwT1322SgcGjeKR0eGb9ftRe/O6MEtk5AmJD+4MSDQ0TWBfBAXTPOm5+LMbnDxw5R1xbG71+uwa8LM/CXD/egwxQ3gtkqF/vPw4PjewqFWeQzF8HVywfTIkJgbz23DIg9XTeUTBFCSI4IRTRgMlYxO8deDkLCC0IQFMhWDeBXIAQTbkQrACYmLgIg9TynsMAovQDBpYBHVMUd/JxGibxQhZ5GQcXK3sQKuKDFHyITVQUCE6vEFwQ7ZxUgMJHjkcBxh14Aa6/XcwYBilGA4IhEDve4xwwRENg9ylASz1nZC45xTHgZsWQGGYDAshokCBa0AmT2pYD9PfElrGWCi0hbPb5JgN872BcGZy/3YWYcGeNexkEGeySx13MyHwcKhEShEKOi6pYAJmZxfcPEit2L6OnlHGNsFPj97zNWjYgIhbOX8cjuXxQgsLGacCiMvwIInl7OMf5sHO8zDgA5Q4TolSP330NgFCgZGj72BRZYHD8emWGajRF2/4npSNg9aiNjpKzTgL3lBoQ6XNCJwJjyDNxWPB5gM4AhEhH2GCw48Z/vN+O35fnAbB2EhM/9PnBV/sOoFxGlKYw1O51oQBiXHpM/IHxs9lDbJsHrk6HXiijJFZBhHNg3kA+3O7FzRws2v9+GvbYA5ISX6oBumAoTASKgCoEJ7Xq05xngMSgIed1cK685fTzOmFkEGPvnHeULytjbKiEYVGA0CCjJ1sBsSN1Xl+X2e/rjTpRlizguZIyIWhqP0S0i7BvHJ37c2tyKm5cWw5JCEGF9Yyc+/fADvP7ca9i24y1s29MGrz/ydWXmuGKUTzwcp154CU4+6SSML82C0E8RkCQFv1lRhZbdrVBkGS3mxK9QaRwN1BQRIAL7ENDKwHiHEXvLDAi4HPz8dLsVt884BMKJya1s1Na246NPV+PVJ1/B1u8+QE1rO5weCTqtgKljCjFlxkk495LTMW/+aRhTbEupF37/Si1unlsAY6YGYDO5NB2jW0QawvhvUzs0OgOOP6x/HRMKS3jmxW9w501LUNPaBl9g32l1fB8Z9SLufeA5XPXDc6HX98NoLwOv/KMGL3g7MH5XEN/leSGneTqaprFGzRCBEUmgwK9FIMsKt+xFOBDgq3wP+iag/PZC4ABR6cyL6qmHnsett/0Q9W3eAz7/uKIM3P7H53H+xadBx9bM+nGs/rYDHR4JFzSagLMt/Sg5sEtHtYh4PvPhmo21eOjy8cg0J7/s1NAu4bdXfw+Pv/oaQlKipa1v4MxTY/HCxXj436+jLDdJA5cM7H2hGT9vaIGhqRMePRAWE62TA+tkKk0EiEDqBObVmbFpmhm+jlZeyeRiK/40YzLEA8RnNDQ68KMfLMW773/Sr/eIUafD4lNOxtMvvIwMS/JLU8GwjDtfrcVvTymN2Hbs/ROhVAmNXhFplfDdNie+lHy4clFx0nxqmkK47n/OwWtvvZV0mcQLj5szC0+9thpjSpOwwchAxZMtuKmxFoKsYPJeGZsLEi2GKd8KFSQCRGAABPI9WrgyRYR1GoT8Xug0Ih4LTYL9V7kQmINLH0flnhZcdf4FeP+b91Nqnc12Fh13Kl565gXkFGcmVQezjbz6jQMzSy0Y51YgTEpPDNqoFRFlaxArmty47BgbtEmGpcuKgmsvuRSPvvAswgneRkn1YtxF5x6zDCvefAa2zAN8k5CByrdbcMO6XTDasjB5qwffFgYQFmg20l/mdD0RUJMAM5cXOzXoGGuHz9EBSBKmWzJw+/FTIBzVd5S426/g8nPPwap3Xhvw7Vx6yQ/x98f+CXOSqU2qm3147OMW/L4oH8L89ESyj14R2R7ErzbW464LypPuyKdf2oLLL5wBZuxW4/jLA3fi+uW/PGBVmyo6cMuT38Fkz0bQ2Ykst4BWc/LLaAdsgC4gAkSg3wSYk8zkNgNqJlnhaWvh5S84tgwXn1i237oeufOvuPbX1+8TMtPvG4h6WT//6HP43pUXJFWcpVb6n39W4uFFpchgmX6zk1/GT6qBXi4atSKy+zMHVrW5cfOSkqTYtLZ5MW/GWFTUR9Y91Tgmjy3FmvVVKMnej6FdAXavbcUNH26H3mRGOOBHNomIGvipDiIwIAKComCy24rKQgFBj4vX9dyh05FxYd9OOo5OB2bPmIKqmoYBtR1f+MgZM/D5ho1J5ediX3//9m49zjkyByUtAoRDB39Ja1SKCFsbXPtmCxxFGpxzRE5SnfnWux9hyWnHqfLtIb7Bh+99GD/++Y/7voeoTWR51Q5odDqIGh3G1kvYnR1I6r7pIiJABAaHwBinDu5sI1zwIRwOw27R4yn7FOBqa58NPrbiP/jR1YtVW81gDel1Al5ctRFLl8xI4kEVfLXLD5NBxvSADkiDXWRUigjbYeyZze2YMsmAOROSc+390fevwT9f/EcSndS/S447dj7eW/MJ9Cy6u7eD2USeasENVTsBUQOdyYzxVQFsyyMR6R9pupoIqEtgaosBFeU6BDxuXvExY7Pxv5ljIZzXu/tsWALOOXo63vpmyz7piAZ6Zz845Vg8/u6H8UkE+qzS7Qth7TYvzrSZIEygmUhq7L8K4BFHB743Lxs51gNDZJHoi2bl44vv1FvKit34mKJS7KjYDZOpDwM7m4k81YLllTsgiBpuFynf7sDW/MQEP6mhoFJEgAikRoCLyHgjQm4nmNPND8YX4vxDxwBze/8s17eEUF5sRCi8/5iyVO4my56FiuoWZLFAwgMcLDbl2Y/qcPmYAmBSkqEGB6p0P+dH5UxE+ciHB1wd+NlpRUmtI+5tCWP6OCOPIFX7yLNlorq2HqaMPoJ/ZKDqmWZcv3snREGAMSsXpbuc2JlDMxG1+4LqIwL9ITCl1YCqCWYEOtt5jrerTMU464oyoI+tabdtrsDUmRP700TS15qMZlTsrkZRSe4ByzAR+deaWlw7oRCYSCJyQGC9XvCRH39yOHDTkoKkyu+sC2Fy6YFnLElVlnBRltWA2oY2mC37EZEnmnH9np0QRRFGew7KdzixlZazUsFNZYiAagQOaTNg7zgTAk6WHlfAVSUlWHJV396e6z//BofPP1K19uMrMhqM2L1jF0rGlh6wfuah9cjqvbhuYjGEQ0hEDgis1ws+8eO+zjbceGZJQv7V3quragpjYpEuMdlsam0nlMrNtKKmoRFGcx9b8ErAjjeb8Iv1u7pEpHSXAztzaDlLlQ6gSohAigRiy1mxfFlXnTIeZy3oO3D523XbMeOIKSm2tv9ibCZSuasKhUkEMDMR+ft7NbhuUhHNRFLujc/9eMjlwCULsmCzHHiGwbJqHj3Njk27Im58ah4l+UWoqK6EwdhH4E8YeHplJV6orYdGEKC3ZaF8lxvb8khE1OwHqosI9JcAW86qHGfsSrp4lbkYS64og5Dfu8t+db0H5SUsB7/6hyUjE3trW5FtO/DMgi1nPba2AT8uzyObSMpdURnCE7vbMXeqFYeW9jEDSKj80vMux9Ornki5yb4KHnnUUfj0k8+g0/VhEAsr+PtDO/BWeytEjRY6swUTKv20nKV6T1CFRKB/BCIzEQOCTge3iSwszMLNBeXAub0vTQdCCpYumIXVX2/uX0NJXH3hKYvw5NvvJ7WTojcQxuqNTpydnwFh3IG/RCfR/H4vGZ2GdVnG6tdaIZdrcfrs7KQY/fuND/G9pYtUd8178LZ7cN0tv+j7HnaHcPOz32Kr5IVGq4NGb0B5TYgM60n1Gl1EBAaPwMQ2PeqLdAjKAR4nUphlxL90hwDX9p3L6sGHVuGG68+HnLAR20DuUqsR8cSzH+Ci7x2TVDXrK90IhGUcDRNANpGkmPV60cb/tGJNKISfn16UVCWtbX6MG5sJtydxn9ekivd60bSyEry3oQJF2X3nz5J2BPCzlzej2h+A3miCFAwi26WgxaK+m2DqT0IlicDBR0BUFEzyZqK6SAO/s5PvFfTqrFkQ95Nm3elwYdKECWiOpklRg9rUCZOxZdf2pGJEWHuPvFuNxXPyMK5dSxHrA+kA79ce3FHVhju+t/88N/FtPPHUJ/jJ1cfD61dnY6h777gfP//1Dft9DJbo8cI7v4A/JMGYaUfQ5US2h3JnDaTvqSwRUIvAoR0m7J2QAW97C3+JX5hdhAuvn9Bn9WwCcv9v/4T/ve1mtW4Bj/3zeVx51feTqo8Z1X+ysgr3HF8Em1kHoagfexsl1cK+F43K5Sz2mMHtLjxR58EPjiuAoa9o8UQeQQWXXHQhnln1Qoo4u4udsOgEPP/yauRl9d2JyrYgXq2sx8qvarkLodmejaLdLtTaQvBr1UkCOeAHoQqIwEFKQKMIKHZq0TbOBh+LFZFlTLZacO8vZu+XiDco4wfLlmDVm28PmNzlF12ORx5/DMYkN6ja2xrEv96vxy3FuTAsHBwjf+JDjVoR8Vd6sdsZwA6fFsuO7jvXTSKQps4wrj7nVLz+wZqUB8Ah5eX45LOvkVe0n8AgBQg+0IkLO7YiKMrcoA5ZxpzdwJelvpTbpoJEgAioR6DArUWnXQNJUBAOBfl+Is9fcDj04/XAfr6c7q4J4pKzZuHLjdtSuhk26znuqBl49tUvUFSY3Ba8rKF3NnVirE3EpHYNdHPSs7vhqBURn8+L8FfAj79rwL9+OA4mffK7fHU4vPj5Bb/A46sf6beh/bQTFuG5VW/CZt9/Byof+PFlXTPu3FXDUyqwvUS0LQ6+qyHNQlL63FEhIqAqAWYDEWUF05vN2HFoZGdDURGwZEYhfji2BDhy//t1VNe7cMvl5+Pp/6zu93394Iwz8MAzq5BtS35nQ7aUduuLe3D7srEINgehL06+bL9vMK7AKBYRH0zNWrze5kFOhhYLDunf1C4QlPDiqn/jr3+8DV9v+e6AjGeNG4Orbvwdvn/JD5BjP/A6pPPpDlzfuAttriA0Oj00ej3G1AZRZQ9C7iNX4wFvgi4gAkRAVQLsozixVY/GMhN8YT/CwQCYs/7fzIeg9IocIH//uaxcPglPPv5v/P3em7GlsvqA9zZzwgT87Ka78f3LzobZcOA8WfEVrtniRLs7iGVOE0ILdTCYB9+9l7U/qkXEqBgg7A7h9xXNuOmMUpiS3B0svmNanBLef+EFrFrzOrZt3AqPoxmyFDG8mzKyUTZ5Ki449RScctFlKM61JOdB0SHhiYd249VACyQRMNqzoWl3oahTwK5sCjI84CeNLiACaSSgl4Acvw4dhWYE3E6wrSamlllxp2k8xIsOvFSuKEBTWxD/eekJPPnaatRXbIHH0Z3sNSMzD2WHTMVl55yLE5edh9z9eHP29dhsNeOPrzTgxvn5zLEXwWwFBv2BAxPVwDiqRcRkMkHZFsDqlk64DVqcNze5vUX67CiW61nsNniz6S4UAYKY/FIZwgq2N/lx0z/X8b1LtHo9RI0GpfUSKrNIQNQY1FQHEVCbwLxaMzYeIkKSZb7XOjuuzC7F2acXp7yXuSxLEMXIbIMtRYkDWIF44bNmFOcYMd+nh2aWEYFgiERkoIPA5/OBiQjvoPUBPNjkwDlHZmFsbnrUubf7VxokuFY5cI17J9zeEAStFiZ7Dky1HdCHgXqrejEqA+VH5YkAEegmoJEVlHcaUT8hg2f15XZMrYDrT52KY47MGlJUjZ1B/O2/jfi/qYUwFGr4lrgkIip0SbyIoFVCY60Pf9nRjv87uxhmw4FtFircQo8qlMoQWj914XeOPdjb4uXJFvUZmQi7XShv1aAiO6j6ropqPwPVRwQOVgJsklDo0kLRa+AsyoSvow2KIiPDoMFd4yZi7BH2tOSpSuTf6ZFx35t7cePiEtgbla7gQhIRFUZqDxFh9W0PYiuCeG1bK5afUdYvb60B305NGA1vdeCPUi2qW7x8TdWQYYUQkjC+VuYCEtBQhPqAOVMFRGCQCZQ59GjO10HRigh63ZHPslbErYXjMX2KHcICA4/5SsfhDyl4dE09jpmYi5m1MnCMEdBE2iYRUaEH9hERZoD41I/NpQLe3tSCXy49cF5+FW4DaJNQ8U4zbqqqQjC645nRaoMUDqGgNYQ6c4iZVeggAkRgBBAQFAUnVVrx4WEyRJ0OfpeD3zWzbFx1eBnO+DoDuDUL0A3+h/qO1+qxYIIRC0NmaA8zAHGOQyQiKgymfUSE1cmcqtb78akpjA8rO3HTmUXQavrnRpf0rW0MoKPOh4ecDfhmezskKDz3joEJSDCAMY0SWkxhuAw0A0maKV1IBIYBARYrMrVZjx3lGmj1BvjYplWKAq0IzC3NwVJ/FoxmDeLXp72FgG+CFllfhiEmZFXyTtDAWyAg5/MwhIREFe7JGggWAZb13YWCkowXZR/yx2txqtMEuVECTN2ixSZCJYfpoTvKlhZao947q1eKmwL4zhDCi9914PtH5WPqGJWCctokKBuDqPyuEx/7nHg73Aa2Vwk7WJp3vdkCORjEmCYJnfow2swkIGkZ5dQIEVCZgEEWML5djz3FGigmA0IeF6Rw5EXPEjcmJi3SKCLYDnky5H1tnyyokXto9SzF0s/HDjYD4nVrddBnWBHyeTG2SUGzOQw380GOO3QaAY/+dDbs2UmGHAyQzcEpItxjy49AmRZ3rWnAzAkWnFJmRQbr6NjBfszVAEEF6Ex42bP+ZE5e7F8F8FkUuBqDaHy6DavyW7C+IeICyA42+2DfVnQWK6SODpS3aFBtDyKokSGnae10gGOEihMBItALAUGWcVS9BVsLgpDys7jrb9jv43YSLgqxd0D0VZEMRCYbMSkRBaFLWPh7xGThQclCpwtz9uqwrtiPgHZfUdJrBKz8wXRYx2amxTxz0IoI6ymlOoTKT9rxz1A7XF49CoQQ8q1RIWEveJsIFtcBdy8iwvLmKMDOWidapBB8IQkhuec3EK1ODwPLzOt2wuAKobxTh225AUhxsSbJDCy6hggQgeFJgC0/5bu10AoimnM10Fsy+E6IUijIUybFC0GPWYUocrFJPGIiEl9OZzRCb8nk9Ra0K9BICmoyI7ZU9poS0FNs2PfbxxccBuvJ9rRAO3hFhOF1ybjl9xvhCoYQ1EcGgag3QpFCfLooSz2niT16JDYAEmYTrPO1JjOfdirhMDSeAErbRbSZw2g3hZllJC0dS40QASKQPgKZARH5Xi1cJqAjW8dTGUmhECS/lwco9vfQaLXQGEzQ6LR8jyGDO4BchwiHUUKnSeKznJjg8KUuUWTpR/jf9YJAItJf4L1d36thPfFCt4zld65HhdaPzIAGJS4t2kwSnDYtBLORd4zMBkI4xNNAM7/wSEZGLv9dk1UWcc7/0+r48hUbPNY2PzICAjQKUJkV6upwNZ6N6iACRGB4Eih0a/m7xGEMozPHCJGlHhFF7kzDvpTGUiaxEPXYukUk40Uk84VWq4Wg1fMZRijgh709BJtf5O+PyqxAr0vgTDyY/ST2r14U8Ph8mokMeIQkJSIAlv99Iyoa3Lw9UZYhiyJmNBmhlQVsyfeD28MMekCn49vXsijzyCREAdigYOISDkPx+bjAjG/TI8cnYn0RW6/c18A24AejCogAERj2BNgL/ch6M3/5byr0Q9KIgE4DjZn9TeBfOLsM6dEvqGGvGwhJfLlqXIceOV4R33C7R//2FiIRUWl4JCUiIQXLH9yACme3ITzWPJtBWELM/VcB21PAGhAR5uYSBRo5qvqiwI1gLH17rTUIWSPAr1EQZIXpIAJE4KAnwGwmlpDI3xl5XjZLEbgtQ4quZLB/2DXsP5a9u9oWgizK8OmBsJDal1Dma7rypJmwHnPg5JBqdNCotYl4fV60tXYgK9uODIsFVVVVyMsvQIbF3M3NFV3O0vn3y3JGvh+bm40oswVh1knY3rr/TWKYi9/cMV58XmuGWadgvC2ILa099x4QBQVzinxYV2+mdCdqjGSqgwgMEoHDi73Y2WaA2y9iRpEfmxuMfPmoP4dZK2FGoQ9f1GbgyGIPqpwGtLr3n35JIyootwdR2W5AniWMQAhwBHuWyTWFkW2UsbOjO+27TivisetnIcsW967rz83289pRKyJsU6qqqmrU1dVg0aLj8Z//vIcjjpiL/LwcOFwuvj5pE6248a4NaLD4EAiLMOhkeIMi8sxhsJd8u18HvSjjhHEufFlrQodPC7NegTckwmaU+DXsbyFZQKZBglknwx8W4QxocO6UDry8zQ67UcKUPD8+q7Yg0yTDqJHR6ddCUoDTJjrw1q4s6DUSbAYJYVlAu09LotLPQUyXE4HBJHDmJAc6JREba8z4/rQOPLYhF1pBQbZZgiQD7T4NW6mK2Ell8M82+yXHHOI20javBjnmMI4rc+PNXTaYNQo6/QJkQUSOKRJb0s7eCbKCbJMEvUaBK6hhK1uYU+TF13UZmJjj5+9btzRGAAAgAElEQVSGNq82Wkbhv5dYQ/y/L+osyNDLsOglhCQtHjx9NqzTzRCEfmQYTxHiKBYRH6qq9qCpsR5mSwY62ttx5Nx5cDkdaG1thU6nhafBiVc+NSK3vB3bmw2YXhjA2ioLLpjWie9ajcg0hPFtgxknTHDj22Yj/GEBdoOEJo8OJ41zoNphRFAS8F2LEWdM6sSWNjMmZ/nx1vZMLJveCbNW5uOqyaPHJ3ssOHGiEzvaTJicHcAbO6w4bZITb+/IxJIpTlR16jEpK4jXd9p4nXQQASIwPAicNtGJfEsIzX4tjIKCV7bbsbDMA5bFKMsg4eumDJSY/QhKIl+qanLroNPLWFjiRoNHh06PFs6AgGPKPXhjpw1zCn3Y0myELyzi+LFuBASgwaFDs1OPOaUeuIMaLlKf7jHj8sNZxuCIPr25yw428yjMCPPf6z16+AIKiq1hfF5nwRmTnNjj0OHoYh+OMy6A/bSBbX2RLP1RKyJsOWtPVTXGjx+Hjz76EMVFJcgvKERNTTXGjh0Ls9mCD9/5CGs3ZiF3XBu2NRoxoyiA9/dk4MTxTnxVm4Gjir1YU2XBieM9eL/SghJbiM8s6p06zCr0Y1urAeOygtjYYMTRpT58tNeMxROdeGeXHedM6cA7uzKRqWczkSC2thgw1h7EhgYzP7dqmx1scL69w4azp3Zij0uPdrcW1Q4DHzR0EAEiMDwInDLehR3tBswu9KDOpcfXdRa+ivBZbQZ/2VuNEjJ1MsKSAFmMiIgGMo4o8WJNpRVTC/zY267H8eNceHl7Fo4tc+HbFhP8AQFjc4JQwgJf4XCERITCAs+hyIRifaMRR5V4sKHejPE5QTS6dSjLDKLGpUOzS4vZxT60eXQosQb50vk5U5yodmjR4dbjtmkzYTs1Oy0AR7mI7MXUqYciFAyhas8e5Oblwu1yoaWlBQaDHkFHCE+/J2HixBZ0BkTYDTLe2Z3JO/vrGjPmlPjw8R4LjhnnQZNLA2dQg1yThBqHDjMK/djeasCE7CDW15lw6iQnKjv0fA2TzS7OOtSFV3bYYDeE+bXf1Jtw/Dg3ajt1yLWEsbbSiiVTHPiwKgPzSr1ocmshQcCWJiMi8xc6iAARGA4ETih348saI4KyiOmFfmyoN2FOqRdGDcuXpWBrsxEWnYxJ2QG+JP5ZjZW77x5V4sX7FRmYnBdAVacBZ0zsxH+rMjEt3x+ZiYQ0GJsVQDgkwGyQUd2pA7O/MCGRFBFf1Zq4UHxdb8GE7ACcfpEviZdnBuANi2jzaNHu1WJ+mQfv7LLihPFu1DrYUrkOv506GxknsdxZg/8uGbUiwryzDAYD37eDHVJYgkYbSbbodnsQCoWQlWXnLr5NrZ2wGRW0eDWRbwIaQJYUaLXgU1S9IMNmlrjqC6ICSRag18j8Wr1OQCAMvhZZlhXC+MwA3tltg0UrwxUSISpyVz3MuJZtltHgjAgGq5flRwiHgNKsMDq9WjhDg7+GORw+mHQPRGCkEGCfYUUQua1SJ8gIKSJYypN8q4wQt4loeb4sJgQmnYw2rw6KrMCoF+APyNBqBH6dQStAEGS+DCZJzNFXieyKKkRCkJlNND8jhHIbi3YXsK7BwmLRwcLTmFeooBH5eynHLEPUyGh263hYgV6rgKXtMmqB3Iww2r06/HPudIpYH+gAS8rF16dg+b3rURH2Dag5tq0lM77nmkJ8irvX0e0pMaCKqTARIAIHDQEmTGcf5uBxJO/utsLLQwwiB8uEEQlPO7Dbr0EAVnxvFjKnZqSF3aieicS2x+2TpEvGDXeux+4DuPgm0xM8WpRd2E/Xv2TqpmuIABE4SAjE59NK4V3CZjRacvFVZ7AkNRNRUUTUuWuqhQgQgYOZQMyCkapvDVsM14oCVp41A9ZZGdzFeLAPmoncuQG7dQNbzhrsTqL6iQARIALJEjCKIlbMn0o2kWSB9XUdzUQGSpDKEwEiMBIJUBZflXotKREJKLjhvvXYHaCZiErYqRoiQASGmAAlYFSpA5ISkYQsvio1TdUQASJABIaMAE/AuHAaLWcNtAeSEhGvguX3rEeFTDORgfKm8kSACAwPAszF97ELZsN2qCUtN3TQG9b5plQquPimpbeoESJABIjAAQhQFl+VhkhSM5EkU8GrdEtUDREgAkRg0AlwmwjbY/0k2mN9QLBJRAaEjwoTASIwQgmQYV2ljiMRUQkkVUMEiMCIIkAiolJ3JSUiQQXLH9iACu++2+OqdBtUDREgAkQgrQRIRFTCnZSIKMDyRzagosmjUqtUDREgAkRgaAmQi69K/JMSETKsq0SbqiECRGC4ENCLwMofzURmoTUtt0QuvuTim5aBRo0QASKQHgLMxXfF8jmwW41paZBEhEQkLQONGiECRCA9BPQC8DiLWCcX34EBp+WsgfGj0kSACIxMAmRYV6nfSERUAknVEAEiMKIIkIio1F1JiYgELP/bBlS0k3eWStipGiJABIaYAImISh2QlIgwF9+HN6CimUREJexUDREgAkNMgFx8VeqApESEXHxVok3VEAEiMFwIcBffa2YhsyAjLbdE3lnknZWWgUaNEAEikB4CJCIqcaaZiEogqRoiQARGFAFazlKpu0hEVAJJ1RABIjCiCJBhXaXuIhFRCSRVQwSIwIgiQCKiUnclJSIycMPf1mN3G2XxVQk7VUMEiMAQEyARUakDkhIRihNRiTZVQwSIwHAhQDsbqtQTSYkIufiqRJuqIQJEYLgQoASMKvUEiYhKIKkaIkAERhQBSgWvUneRiKgEkqohAkRgRBEgF1+VuotERCWQVA0RIAIjigAZ1lXqrqRExC1j+V3rUaHxq9QqVUMEiAARGFoCJCIq8U9KRGiPdZVoUzVEgAgMFwIkIir1RFIiElZww183YncnZfFVCTtVQwSIwBAT4CKyaDoyjrVCEIRBvxtKwEgJGAd9kFEDRIAIpI9At4svM7GTiKRMPqmZCMWJpMyXChIBIjA8CRgE4LELZsF2KKWCH1APkYgMCB8VJgJEYIQSYPOPFQsOQ+YpWWl5AlrOouWstAw0aoQIEIH0ECDDukqck5qJeBQsv3sdKgRy8VUJO1VDBIjAEBMgEVGpA5ISEQDL/74RFQ1ulVqlaogAESACQ0uAREQl/kmJSEDBDfevw24/zURUwk7VEAEiMMQEmIisXDoD1pkZ5OI7kL5ISkTIO2sgiKksESACw5CAXgM8+rM5yLKZ03J3ZFgnw3paBho1QgSIQHoI8ASMJ8+EdaE1LQ2SiJCIpGWgUSNEgAikhwBl8VWJMy1nqQSSqiECRGBEESDDukrdlZSI+BQsv2c9KiSfSq1SNUSACBCBoSVAIqIS/6REhFx8VaJN1RABIjBcCJCIqNQTSYmIV8ENd3+D3Qio1CpVQwSIABEYWgJ6jYiVF09D5oTMtNwIGdbJsJ6WgUaNEAEikB4Ceo2Af/1sNrLJxXdgwJOaiVCcyMAgU2kiQASGHQHunXXSTFiPIRffAXUOiciA8FFhIkAERigBcvFVqeNIRFQCSdUQASIwogiQYV2l7kpKRIIKbnhgPXZ7ycVXJexUDREgAkNMgEREpQ5ISkSYi+8jG1HRSFl8VcJO1RABIjDEBEhEVOqApESE7Sdy1zpUiJTFVyXsVA0RIAJDTIC7+F42HZljybA+oK5ISkTIO2tAjKkwESACw48Ac/Fd8ZNZyMyxQBAG//4oToTiRAZ/lFELRIAIpI0AeWephJpmIiqBpGqIABEYUQTIJqJSd5GIqASSqiECRGBEESARUam7khKRkIIb/rweu93k4qsSdqqGCBCBISZAIqJSByQlIgqw/OENqGj2qNQqVUMEiAARGFoCekHA48dMg/VEW1puhAzrd61HhZZcfNMy2qgRIkAEBp0AT8B47Uxk52QMelusARIR8s5Ky0CjRogAEUgPAZ1WxMprZsCWRyIyIOJJLWdRnMiAGFNhIkAEhh8BcvFVqU9IRFQCSdUQASIwogiQiKjUXSQiKoGkaogAERhRBMg7S6XuSkpEJGD5QxtQ0UbeWSphp2qIABEYYgIkIip1QFIiIkdFpJVERCXsVA0RIAJDTICLCHPxPYFcfAfUFUmJCBnWB8SYChMBIjD8CDDvrH/9dAZyssg7a0C9QyIyIHxUmAgQgRFKgGfxvXQWMstNEARx0J+C4kQoTmTQBxk1QASIQPoIGARg5YJpsJ5sT0ujJCIkImkZaNQIESAC6SFALr4qcablLJVAUjVEgAiMKALknaVSdyUlIuSdpRJtqoYIEIHhQoBERKWeSEpEwgqW/3UDKjq9KrVK1RABIkAEhpaAQRCwYvF0ZB6dmZYbOehtIjfc8Q12G4JpgU2NEAEiQAQGmwBz8X30pzOQTS6+A0Od1EyE4kQGBplKEwEiMOwIcBffi2chczy5+A6oc0hEBoSPChMBIjBCCbDlrJULDiMX34H230BEJNscxtGTPJBEtuEKAAX4YKsVvtDgB+4M9LmpPBEgAgc3AXLxVan/kxIRt4zlLE4kYWfDI8d7cOOSJn4nigIIAvDCZ9l49ev0BO+ohICqIQJE4CAkQN5ZKnV6UiLC9lj/+wZUNPZMwLhkdicuOradTUAihwKsqzTj/jcLu/+m0n1SNUSACBABNQmQiKhE80AiIksdUILAzx+uQoWzp4vvdac24+jJbi4eECIi0ubW4oaVYxBW2B+6jzHZQdgtEr6tMal051QNESACRCB1AtzF9/TpyDyKXHxTpwigbxFRIIXb4HWtgRIO4cUPcrF6hxn+kAidRsH4giCuObkZhfYQX8rihwCEwgL+uKoQe1qNCIQFvsR12kwHlh7VCaNOxkOrC/D1LhMUdoIOIkAEiMAQEeAuvtfNRLbdkpY7OOjiROSwEx7nOxAQgKxEJhuVjQY0deowriCIoqwgRAH8HDvYzzG7iCQLqG3XY0OlCYeW+nFIkb/rmrAM/OnVQmyptUDpUp+09CE1QgSIABHoIsCXsxbPhHUepYIf0LDobSaiyH64HW9AUHy87pg4xNs+2KyDzSWYiHTNKeInF9GL2YSjqxyvDPAGRdzyfAkaO3UDuncqTASIABFIlUDMJpJxkg1CGlZGDqqZCBONgHc9woGtTCa6+ih+4sDFIUEouFkk6qXVQziiNcQ05qNtGXjkvfxU+57KEQEiQAQGTIAM6wNGGKlgf4Z1r+MNSOGOrpkEEwEmHmz2EVu+YmLBf47OMuJ/j4kGF5voL8GwgN88V4q6dpqFqNSFVA0RIAIpEKA4kRSg9VZkfyIiyz54Ha9ClkM9hKJriSo664gXlcQZSlRbuMrIioBH/pOPz7aZybCuUv9RNUSACKRGgGYiqXHbp9T+RCTg24qg9xs+++BiEJ1RxJasYn+Lt4n0dY7VwWYhNz9dhkaHRqW7p2qIABEgAqkR0IvAymUzkDmNXHxTIxgttT8RCfp3IuT/Fors6WHriNk+WBUdHi2anVpoRAU5GWFkZUiRkJE4wYktfbHrP95mxSPv5UbWxeggAkSACAwRAZaA8dFrZyArx5qWOzioDOvxRJkYhH3VcLd9DtEU7Hr3Mw1YX2nBg2/nIciSZ0WP789vx5mHd0IrxtlOoiaRmDvwr58pQW2HHooidLkIp6UXqREiQASIQJQALWepNBQOFLHOm3HJuOX+r9Ge5cFZRzgwf7ILH3xnxZMf5SAQTbYYDVjnInPlolacON3Jf44Z3ONdgsOSAH9Q5Ika9zYZ8NJXdtS06VV6IqqGCBABInBgAiQiB2aU1BXJighPwKiLBA3azWH4wyIXgsRFKSYapTkh3HlRLTSCEhGSOFdgVr7LWyv697teLcbmvcak7pcuIgJEgAioQWB0iMhKF1An9eRRpAGutALPuoGqcPc59raeoQfONAMrXEBDXDl2bq4BWGgEHnYCvmiIOSvNXuIXWSDkaYCHXUCo5znv+SJcPg3kJ108gpwF3cT+xc8zgT1hKP/24HZTDWq0PXc2ZItYLIokNgsRFQVy1NbxyFXVsJmj9hGuHBEzSFyGlK5ARRIRNT4SVAcRIAL9ITA6ROQ5N3BhekLu+4Lrcrtx+b0b+Vs+Lo9iJBpdiNg6REWGJDOBECORnZIERaPhYiNGRYOLgyx3ue4yEbGbpe6I9miEe1RPuJrEBOVumon0Z+zTtUSACKhAYHSISH0YKNaqgCP1KpiIXHQPE5Gek56+Is7nT/Zg3iQXNu0xY82WTL42xZIpCnH/njuvE8vmdvSosLdodras5fRp8ODbBdhWR8tZqfcilSQCRKC/BPQaESuumAXbGHN/i6Z0/eB4ZwUVQD+0rq69iUgioQyDhMMn+HD8YS4cUuTjy1Ls5f+3d/KwpdYMgc9SBLB5y4TCAH52ehOyrZGluNhSV2zawcTpk+1WVDQa0dipxc4GA/xBNk0ZWg4pjQoqRASIwIglwF18fzIDWbkj2cX3GRdwcXoeYH/LWYkzkdi1NpOES49rwxHjPdBpFS4I8WlPJBl4/9tMrK82w6RTMGOsF4umurqWsOKDFGPlKhoNuPXFkn1mPrEZzYgdkXTjRIAIjCgCo2M5a5jYRPoSkQsXtGPJ4Z09XHVjYhATlMSEi7HMvvvk1oraQO5+rQibqyMbU8VSyfM5SNSgP6JGId0sESACI5YAiYhKXbe/5ax8Wwh3XVwHk07usfFUfER6fPR6vDtvVBd6uPf6QwJ+8eQYtLu1fHWLLX/xPUWYgKj0PFQNESACRCAZAiQiyVBK4pr9icgVi9pw8gwHr6UrO2+8q27059h5Lhzx6eDjU8VHXb8qGgz446tF8AciNhDa4TCJTqJLiAARUJ0AiYhKSPsSkclFfvxmWQO0YiRgkL/we8na2yMVfFx6k752PWT1/OXtAnyxKz1bUqqEiaohAkRglBEYHSLSJgE5Q5vRtjcRMell3H1xLXIzw11BgokiEm8T6bF0FY0HiQ8q7Ep9EjXMd3g0uG1VMRo6aE+RUfa5pMchAiOGAHPxfex/ZsFeMpJdfJslIH/4iQhLnnjG4Z04b24HtJpIECKbhbBU7q1OHUqyI4kYE3c27IpWBBAICdjbYkRZXgAGXffuiEx8PtxqxT/ey6WlrBHzcaMbJQKjjwCbiTx29WzYi0ayiAxj7ywWPHjliW04/rBIIsWGdh0efi8fVS0GjM0N4Lx5nZg51stFJn5TKjbUPttpxQuf29Hi0CHXEsLyJc0oz2PCo+DT7ZlY8X42z71FBxEgAkRgqAjoBQGPLzgMGSdlQohm5xjMexmcYMNhLCIMJtsj5JSZTlj0Ml77xo6Q1B0QqNfK+MWSJkwv80XsJVH6To8Gy58YA380uy/7MxOaxTNdyLcG8fhHOTwFPB1EgAgQgaEkEBMR68n2tNzGQSkiiWTZ7CTeHZftHXLWEZ1dQYjs9JYaM/74SiFPg7I/192uSPa0dB81QgSIABHoSYBERKURsT8X3x7zhZhrFo82jCRanD/ZjWsXN3engxeAFz/Nwavf2KJ/Y/aUSDoUnu03ml8r9rtKj0DVEAEiQAT6TWB0eGf92wOcN7SurvsVkZj1XJYBUYxY0kURAsviK4qYVOTH8jOaujqPnf7N86Xo9Gi608MzwWFl4tLE97u3qQARIAJEQGUCXESOPQzW40fyclZAAQxDax9IJgEj67vYXiGxf6OhgtBGnctEUYEIBb6Qhl/LZioxO0ls5kEzEJU/BVQdESACKRPQaUU8es0MZOelZzuOwbGJNISBouGXCr6vXonJHc+PFY35YK5Z8VHnPDAxIYdJLMVJt6Nvyv1OBYkAESACqhDQi8CK/5kDWym5+A4IaLIzkfhGuNGcHbFQ9rigES4YcTMRvokV+31Ad0mFiQARIALqEuh28bVFNtsb5GNwZiLD3MW3L6ZsN8NIAGJ0Z8OojSSWjVdmf4+ep9xYgzwyqXoiQARSIjA6DOtMRJZZIK/1QRwi24jH4cd9b1Sm1AnJFqq3hlGXGUr2crqOCBABIjDoBEaPiJxpBtzykNlG3B4PLrpnQ3eqd5W7js0SCx06NJCIqEyWqiMCRGAgBEaHiLzqAU4yAa6IiDjbXupOSDUQOv0oK8kSnP59C8hBQIjmR5SDAoxmCcsfL8fEYhvOO6akKzbkubU7ceqsOkwoNMBuEaERBATDErbulXD369m84kKXDo1Wmon0o1voUiJABAaZABeRRdNgPc42yC1Fqh8cm4gEwCfHiciTEARDd3JDReiR5BBCJC07t2uzc+zOYnt6sHNRFBF7BbswkpudXxndxryrbNTSLStheILMtgGeA0uWI22y7XDZJWFJ4GlL2MZUa7fOw9nHTuLXxo5fr/gW26o78OOzJuLkOUX8/ti2uSHfJvz6aQG76l0kImkZotQIESAC/SHAXHxXXD8bdltkp9XBPgZHRNYFgMm6bhFpfRaihrn8Kl17d8Q/WMwpiqta1/+6lSM+/Xp3GHlEaBLPKTJTFfZXCe2uiCDF6oxFeGhYBl9F4OJi1Mpo8JyKmRNzsffttyEa6iCIErbXtMPlDqG80Ia8LAvksA55R5wN0VDNkzC++FENichgj06qnwgQgX4T0AvAimUzYZtu7XfZVAoMjogww/oScw8REVhkeOxtzmYTggwoLKJP5m5oCgu2EJkqxKI1ejnHKuCKEwnvi5UTNKy8HHXNjaQvYZd2eiSIgsKD0tnMg/3MJzlKZBbCZhZsj5Fqx2mYPSkXVY8vhyb/v7xej09Cp0tCcV5k7UuAHrlHvgGNpRX//tKO5z7oXUTsFgmBoABfSISOtSEBLJGmAAG5mSE0O7SQKVFjKmOVyhABIpAEgdGRO+tZN3BWnIi0PQet3g4ozH7ABICJSDRlOlcP9nLnYX6R8/xcVEz4+di5WLmIiCiyFAnpELSIqBBf8IoKhYSdtYH9ItfrFORkhNHpPwzjSw9B/bO/gaZgDT7f7Mblv93Ly154ahZuvaoQUHQomPsmxP2IyPnz2nHidBc2VVuwdksGTp7pwEufZ+PM2Q7Ud+hw7rwOvg/7rS+UgO3LTgcRIAJEQG0Co1xE2CuezUBkCKIOshyAKOqhsN+5eLBT4YRzTCgiOUgUhf2shSwF+GyB1aHIIQiCDgqkaPAfqysyM9lVv38RYXWW5gTxx5eL4fbr8MusVQjb/oN5l+/ksxA+AxGAO68twwWLs/Dk3j9h6hQFr3xlh8Mb2mc564YzmvDQu/mQFGBKiQ83n92Ef63JxYxSH+o79ehwa6DVymjt0GFjjZkCFdX+9FB9RIAIYHSICFvOirr4KoVauNqeh6AxRF7u0Vcn+5kLAzdsxGYRfFoRjbKMXhuxmEdf6Mw4HvmdL2UpkWsj4sKuF3kb7LwkhdHiCkeXoiLG+a7VtC5bigCbOYyfPloGT1CDP499Cd8538S5v6iCxJQgeiw70Y77byjH3Zv+gJxCAzZUR9IJ9PDOUhQsP6MFz32ajV+c1YjnP83CsVPcOKQogG01Ruxp08Pl1aCmVYeS3BDfBZEOIkAEiIDaBEaHi+9/fcA8Q4JhXRNZpuphRY/aOGKh+Twt+745qrohd6c65AISCR+PnmYzGQUKt0FE/tbmlPr8th/zBss0h/HQuwUIh4y4TPM8tHkf4dgf7kJ1Q5DXYTaKuPdnZTjz2Cy81fEgHLoc1LT4Ud3s2WcmcvPSRmyqNuG8eR145L08lOcGEJZFjMkOorpNj6KsMMrzArjv9UK0eYZ2+2C1By7VRwSIwPAgwEVk8TRY541kF1/GkgUaxuJEWp+FoNFFZxgKn3gIgszdbnkm9q7ZR+ycAlkCRE3ECC5w39uon5UiR86xDdN5RfHb0UaukSVmdA+jzRWZ7TC3XmZrjxm0mYFdYl5cAJ+JeAOHoKBwPGqevgPagjVo6wzjxnubsafRgzuuLcYxcyxQZB3yjnwdxrxSPLu2ulfDuiDLmFASQk2LDsEgYDQC4RBgMooIhxUcVubFpj0mBCXaQnd4fNzoLojA6CPAEjA+duMRsFuNaXm4wfHO+swPzNDHxYk8BVHQ95gVcFngAtHT7bdrMsKXqiKLXz1yiLGYDyXqacVtKFEDddTzKnZtOCzBG4zEnzDBYPUyj6xQOOKZxepgLr5mvYQG92mYPiEXe5h3VsEaDp6Xk5hnF7sPQAprkT/3DZj2IyK8XHSJLrJ0Fzu6HI2jy2+UtjEto5saIQIHIQHm4rvy7JnInJWeJfPBEZF9XHyfB3fxjR48syR3640GC0YiB6NxHz2DP7iNI6oTkZWrhPNdS2Ex+0qsFRltbCZ0gIMtZ1W2n4gjJhej+outMGvruLgkHmzDe9uhR0OfYcZzfcxE4svEbDDMhsOSNcYiVkg+DtQjdJ4IEIGBEBgdWXz3cfF9BqIYzTUSm4GwmUNUSCLLVZHsudxALild5hN2jv+dvYaj9o/ITrbsWrHnalakkkhdsoIOj8SXstjsQyNGIs67fucxHAKsJgn/2XY0vnfsxKT6LRyWcdNjm7Gr3t2vYMP4qPukGqKLiAARIAIpEBgdhvWEmYij6TUYrWPArd5dSz49bejx9vQ4C0iPiPTYolB8lHri32LMQ34v3ljv6DKldPVF98oS/9O8iW78+vkxOGpyNpafc1jPpbOEDtxV58Y/3q7AjloXP0O5s1IY4VSECBCBQSUwekTkDDPgiSRgbG/+FPa8BT1yU6VOMV4FEhQhrlK2KdXF92zgibOYIZ1Fj3Sti3Fn4Miy2K/Ob8YDbxQgpOiw8sbDkWnW81pq20JweYFxhRoYdZGluGc/qMFz7+/pMtKQiKTei1SSCBCBwSEwOkTkIz8wp9uwzkQkO3/B4BDro9bEnQ1jLr1aUUE4Zoz//4kYb1nWgPveKMTlJ4/D6UeVoqWmETUbVyBPeg+K1oWwazp8h16Ow2Yv4i09taYa//54LzfMk4iktUupMSJABJIgwEXkjGmwHjGSXXyZPdvb7eI71CIysf3agbAAACAASURBVMAPb1CE26/BeXM7eL6sN9bZsbdNj1vObcAH2yfh5u/P5AkXG98/D1qxElsrfWhtD+OoGRZYdFbszH4cJ86fwpe7nlhdiX9/Vr+PiDDTjskgw+MXYdBIyM2MzICaOjXQiBG3Yta2J0Auvkl8FugSIkAEUiDAXXyXHz7Cs/i+5gFOMHVtShURkflxy0kpkOlnkfiZyPlHd6C+TYetdUYYdJGX+VUntOCu14px67Ja5No0sBgyUff6FuSMWYmbH6zDc+92cBt9YY4Or943DgXZBbAc/gbyim1odQRw1Z+/Qa5D22M/kUuPbePBhLetKkZZThCzx3sxrdSHFR/kYcFkJ76rMWPxTAf+/HZBP5+GLicCRIAIJEfAAGDlidNgPdaeXIEBXpUWF9+hnonEROTTnRkcV1luEBcvbMedrxby5Syb7SSU6IJo/+YsVLd04Pird/HgxNjxw7PzcOtVpXir42Fcc/E8SLKC793xObI7NF0iIigKZpT7sWxuB259sZhbYIw6CTec2YL7Xs/HTUsbsbvJiPVVFuyoZ91MBxEgAkRAfQJsR/KVC6bBevJIFpEEF98hF5F5Hahv1+GznRkoyQ7ihye24vG1OdjTauAiYpemI3jvbTAv24GaNicW/2Q3guGIDxhborr0jBz84ZoyvNH+V/zkksiM6rzbP+shIuxavVbBLefW47cvloBlCL7mhGZUtRrw+jo7rjutGWNzg/jFU6XqjxqqkQgQASIQJTA6DOsJLr7cOyt3HkSWxyRNR8Q7ayOMOhm/PLsBL3yWA4dPxO/Oq8ftr5SgoUODYJj9Xgfh/55CsK4ZhjF5yLt6L255qB5PvtXOl7Pys3T48NGJ0GszYJz5HorH2tHuCuKq+75EtlPfYznr/5Y18Oy96yozICsKDh/vgTeowXX/KsX08gCOmuTB39/JgRwXeJkmHNQMESACBwmB0SMiCS6+Q+GddfkDG3DGbAe21Rn5EtKU0iAOG+PhQ6nZocOnW0z46aa/IKOxNrrFiYycH8oQC0LYWR2E0xPGlHFG2EwWdBSvxLTZ0/jM5N+f1OKp/1Yj39nTJsKM5kadAm8wkmHYpJO4EDn9WrYPMbRaICTRPiIHyWeZHpMIDAmB0SEiW4NAmbYrd9ZQLmexlzdLO8KPuAzClqAb5258EuVtuyObKbIAeq0MaPQwLgzBMMvHl60C4SORNfM6jJk+h1fx1c52/OmFrQiEkw82pGj1IfksUaNE4KAkwLyzVlwwE7bJIzl3FgtM9w0PF1+R7zcSTYUSHVKGkA/nbXgc41t3RrSlN78xQYD16GNx6J/vjG56BXyzy4k7n9uCEMuf0o+IdVGWoYg8vJEOIkAEiMCgEtBpRay4bjbsdtOgthOrfHC8s1Z5gMWmrpmIo+lVmDLHp+WBYo0EvR6s+qK9R5vsJa7XSrD94znk1uzmKejZqz0+jUqsgGXeAky9/z4Iuogd5+E3duO99U3cMyt2ULBhWruUGiMCRCAJAtzFd9E0WI8fyd5Zz7iBpd17rHc0rYUtZ2b0W38kmWL8wV7jkQSLbB+QnoF4ied6Jj3pWS52Lavb7fHiV0/uhIYtZzEvKxGQJQWnfbISuXtiM5DIfbAMu5G0KGyHdwVZJ52Mib+/DYK+2xFg3a4O3P3SdvgCkfxf7CARSWJE0yVEgAiklcDosIn04p2Vlbdgv8kN1aYcCzbUsA2ouNEDyPR34icf3wFdKLJtbmTT3O6f2O+24+bDftVyOD3b4AoGUJZZCt3YmbBbdNhZ48QfntsKhydSnkRE7V6j+ogAERgogdEjIsPAO+uiezb26I9cdxOu+fju6JbtEQlhMxA2E2H/N06bBOXcC5Cj+zVC4chuiHqdAKdvESae+WcY9Bqs3dSCB1Zt58b6ZERkv7v9DnS0UHkiQASIQAKB0SMiS7qXs5h3VlbePAhCeuNEmIjEDOvsZZ7tbsLVH/8JIttWt0dOX8A8ZRJar7gb431no6LGiev/VAuHR8LV5+TiiqW58PiWYPyS2/my2E2PbsbOOtc+InL6HAcWTXVh9UYb3v8uE5ce04px+QHc+WoxTpjmwLsb05MQjT5VRIAIHLwERoeIVISAAs2wcPHlYhGdDuS4m/Cjj/8EISoisYUsZgfRH38MrNODUGxrceq1FaioDfBRyDaz+sdvynHS3EJkz30T1twcrHhvD175tLaHiDBX4l+e24Qn1mZDowHmjPNCr1GwYY8JDZ163HBmI25fVXzwjmx6ciJABNJCgInIoz+ciaySSJqnwT4GxzuLbUvLXtzs3+h+IkMRbMhmInynRL4zIpDjasSPPrknKiIRZelabjpxKYqPewUbd3Ti7Bsre2yRu+xEO+5bXo6CuW/CmFeCZ3vZHpeJyKXHtaMkO4T3N2dgfHEQFQ0GfF1h4ffwq3PqccfLRYPdn1Q/ESACBzkBnUbEymtmw5ZvTEvS28ERkaddwNkWLiJygYDO1i+GfD8RNq6YTSQyE2H+Wt1mdXbOcNpS2A7dCdG+HpPO3opgKOLKy2wiN/+gBFcuzUPB3Ldhyi/sVURiM56CjCDuuLgeb6+zwRsWsXZLJODnprMacdvLxT22iD/Ixzo9PhEgAoNAgLv4LhzpCRiZd9aZ5mGTCj7WT0xEIjaRiIjEH5mnHAvHaZehxHEZNux04v8easGOGjduvqwQV5yVB2eziAmL34alpAi3PfMdvtrZsc9y1hmHOzGxIID3tmRiV70BZ87uRFF2CCvfz8GSI50ozQ7ymcnH29MzzRyE8UlVEgEiMMwJjA6bSEKcyFCmPYnv7+6ZSFye9+gFOWefg4m/+TU2vv8kcjyPQNC5+RlF0cC1R4J7hRHGMWMQ+NnvcNsaR9LeWbH2KfXJMP/k0e0RgVFCYHSIyDBLBb/vTGRf7yzp2MWYf9/tPOBxx65mGNf9F4roQnPmERin8aL6d7+EEgqjzZyHp+ZdC5fRto93Fl8mE8VI9InCAhi7D2YXYX+j1Cej5JNKj0EEhimB0SEivQQbDpVhve+ZCIsOiRzspy0TFsD8o5/hgkXj9g2KVBS0b9iA3ddeD4QDcJiy8PCxv0Ku19wjFTyri8fbCwJPBU8xIsP0U0a3RQRGMYHRISIOlg232zvL0fQaTNYxae02KRzAqs9aoRWZd1bEAqJvacGYB/8OCDIg93zFbyk9Aq/OuBh3XjkD08Zm7nOv96/agYbV/8XZm56BTg5xIXlr2nWozMui2UVae5YaIwJEYH8E9BoRj141A1lF6bG9Do53Vk0YyBJ7uPjG0p70mh8rmjOr+1x3hqzY33o/p0RdeGM5t7rLORwuXHL/Ju6JFV1JQo6nGVd/cjfEuCSKfOUJAraNmwf5iutxyUkTYNAJ6PRI8PoV5Ns10GoEeAIS7n1xG3wfrsGSb5+HTg6j3ZyL5464Gu0ZeTSqiQARIALDggATkRWXz4KtjGXxHfz9iwZHRIbxclZ3xHpkOYsFGvLUJyeeirl3/QE+rx8b3n0dpcoKQN+BYPtChBbeiCkTSnjsyG+f2AzXl1/ignWP8sj3DlMOHl3wc/j16Um7PCxGKd0EESACw5bAqHPxlQu16Gz5dEjjRJgWsxkJS3vSHWzYHSnCM/cuXYryX/4Ku9/6MayGz9HcHuJR6/OmWSEpVtSOeQULZ+Sjvs2HH//lG4xpq8BF3/wDWjnMl7YenX8jvIb0TB+H7eilGyMCRGDICYweEdknd9Z8vvSUriOWxTdiOI/YRGJxIhpFjo9V5+ctJy2Ec9p8jMn5Ax5+sQX3PNXMb3X2ISY89tsyWHWHIveU55BhMeLuF3fg0y3NWFi3CfO/exZ6KYSOjBwYrl8GX0EOKhuN0GoUHDnBA09Ai/vfzEOWRcLVJ7fgjy8XkQ0lXYOA2iECByGB0WFYH0YuvjHXWmZdZzaR+NxZ8ZtS6RcvRc7sz9Hir8C8y3YiLHU7495wURGWX1SI3CPegrmgCM++X43nPtiLQrce2a6vcNbmZ6FVwtDm5+PJI65CjZiD84/uQEWDHrYMCRWNJsws8+CUWU786pkSdHi1B+HQpkcmAkQgHQRGh4gMM5sIc7tlMRs9gw27bSJcLk5cisIF72BzRSPO+98qBMPdIsJyZz1w4zjkHfnGPrmzmjKCKG2vwiVfPQyNEIY224723/4ELU4tKhv0EAXw9Cfnzu1Em0sLh1uDJz7OScdYojaIABE4CAmMDhFhL2C/EvXO0qC9+TNk5R29z66Fg9m/8ctZrB0mJNwmEsudJcoQuJtvZKlLt+hYZEzMgHHMKlx1216894WLn7NbNXj53gkoL7EhZ/5aZGZZsOKdCrz6eT0K3HoeJ8LsLROat+G8TSu5+69it6Pl2h/AmJ+BfFsIt71UiF8sbcZ7m1l6+Dbc+GQZQt0bJA4mBqqbCBCBg4yAXiPgsevZHuvmtDz54Hhn7Q4BhcMnFXyMZGLak3gLTdaS06G9+ibI3yxDOFSD1z9wo90ZwOkLbSgvtMBpugNTjz8N/pCMnz28Dg0dgZ4R64qCI5s24MRNz0OrBOE0ZWHvRZdgnX8Matr0yLKE0eHRYlJhALsbDWQXScvwpkaIwMFHgLv4XjADtkPS4+gzOCLSawLGBWntzcSZCGs80bAec/Fl/9pOOwWH/uEOfLu1A5bK/4VW2glZ6IDcZkSrezKOuGYlRJ0Oqz6uxuP/reHPEtvZsCvdvCxjUvNWnLfhcZ5uvjMjG08cdR3cRhtFr6e196kxInDwEhgdy1nDzCbS+0ykO+0Jc/FtOvwEnPnIXdyDLMjWmnw+7Hnw9+h8ey0QEmA+fDrMv7oPv3x6O3zByFpUTETY7okszQk72NJWSUc1Lv3yIW5sd1pseHjBrxHW6mn2cfB+runJiUDaCIxKEelsehsZWVPTBpE15Pd48Ne363q0aWxtxtHP/JUHCUZ2VY8lRBTw7dijsO7YK/C7Sw9DQRbbzIXlS1RQfc89aH7pJf57VeF0vDDzEoQ0+n1mInxDdq4ikUSLkxu/xdLNT0MrheEy2vH03J+g3ZKbVgbUGBEgAgcfgdERJ5Lg4tvZtBoZWZMjvcm+sSfGi8T+1vVv/Abo0et7PRcLAold010uEPDj/lf+H3vXAR5Vsbbf7S2bvpsKgdBJrwQISC9KEwSliIog2PvV6716i14VxXrVawNUBESkoyBK752QQoBAem+b7G422Xb+f+bsbjYhQIJJSOKZ/79PZM+cc2a+mZ13v/Z+2RDyWcc5uV1ZWYr41R/TUC0CIHafCMlYTw2MxW9x9+OtBRHo6VvvkGKsDDLfeRNlGzbT4af6RmJb+GyYhOIGPhHiuHfEc9mqKYbkn8Xk5LXU2V6uUGFdzEKUu6j/fLuamzEnAU4C7SaBrqGJbNQD42QNuLPcVUNpuGt7tRv5RIgmwsJIPbNMdq94TFr+LuQKGYy1dcgo0KCw3IS43kpIlS7I+udfodm1j6LRVa++WBe7CN41sgYsvqTYFcPnUw2G/jePh54lF3Ff0hfgmxhUyTzx1dAXOIqU9toE3Hs4CfwJJUBB5I4QKEe4t8vs28axTlwGBmuHqLHOWpjYOus0OuvI2+CZbUoRNWmxzW3iWOpYTz98DiLNXyBGGcC3wGr0gFYyDiHjXsaV//wT5Vt3UOTJdeuJXRFPokgOChZNNfqxlUF3J4qUaqk7vh76HPQStmwu1zgJcBLgJNCaEiAhvl8+GQEvj84cnXW0FggTUxBhfIWoLD18W/NE7Ee8l7aoAXcWWTi7b8Rr8l2onfk05FemolxTQqlPyqssmDnGHSNj3VBiegbhdz6AnA/eRemPP1HwueobgR/D51DTFmlqVzOGD9Qiv1yM1HwZAj2MyC4VoYfKCP9L55BwZCMtbKWRe+GH2EdQxpm2WvO7wz2LkwAnAVLygmgiU0KhjHJrF3m0jSbSgUJ8nXUEL6dkQ2LMouy9NsNWbVw8fGI9IfHZhFkvZeJkag1dAKGQhw1LgxHe1w9l3deCkSqQ/8+/w+/ySWoQu+ATjs2R98MsEOKvdxfhaLoChdUiiPgMFowsw8c7fTApUoOcCjG6F1+Cx9c/grFYUKFQYW3sYlQquOz1dtnp3Es4CfxJJNA1HOsdLMTXoYnoitGYCp6au8Ags8cdGLLgdyRd1GLKs1cbbDc77clbp19HrpmgO4O7z65CSOE5em+eWxC+S3gCT0yqwFd7vBHSzQCDkY/Hx5egqFKE8mohcsrFqKnj49LBCjxw/L8g0VykxO7HI16DlU/rIXKNkwAnAU4Cf1gCXcOx7gQijC8flaVHbzsVPDn4vXTOBIxsiC9pRCO53HMIEqfnokZ4AdGz0x3cWUQTeXKWL56e7YsPk99GvlUBi5UHs9GM6Ukb0L/wCDWJFbh1h++79+LTX9X474IcfPqrCr19jBgYaEBplRBZ5RJU6/hwFVuhOZ6JhH1rIbaaKJB8k/AUNHLPP7x5uAdwEuAkwEmga4BIEyy+t5s7i2wte8Y6G53VsMlHJcI0eCJU4hexeV8F3vm2DMUVdbh7pDveetIfVmME/CZ+A7lMiJeWn0d6TjXlzorMXovYnMNUnxEm9IPh3gnQC2TYdsoNPdRG5JSKEd7dgKIqIcZHaCkx44o9Xuidk+QI/yUVEkn4b5nSh/sGcBLgJMBJ4A9JoGuAyD4DECtp1eiskpJiZGblQOXliZ7BwTAaTdBoKuHj0/TBe+MQX6I7sD4RuznLa9rd6P23V5C84xV4MDsBvsmxkGZTEOqi1qJfoBIX87R44askeo1krJco6jApeS1CC87QsN7L6gHYEPUgzAJRg41AMtntIcUkmou8uU9RKu45uxICxoJKuTe+TXiCaiZc4yTASYCTwK1KgILIpAgoYzpzdBaZva71QnwtFgt+37sPI4YlIjc3B8XFxejdux/Ky0sxcGDTmfDXA5H6eiINaU94Y+5C3Fv/hNFoxoWUdEjObAbMWhS5D0Hc5LFQKNgExHfWp+NQcikN6yUgUuZmhNVkxV0pPyIi/yR4fAb5Lt2xKuEJWIQi2o+EFzdubO13HvwqczD/+H9phUQS/vv5sJdQJ2Iz5rnGSYCTACeBlkpAJOTj6yfC4dmpQ3xbWROhILJ7N0aPGgmBQIiszCxkZWdB7eeHkP79m5TxzZIN2WqHduoTHq70GYzAl1/BsHCfJkvbE26s5Tszsf14IeXJIiBAzFnFSiN9jsBqwZgLWxCXfRA8HoOLqjAatWUP/6WDdMrWt8MKeU7f4hTcnbQKIosJVVIPrI5/FOUuqpbuHa4/JwFOApwE2BDfO0OhjGsfq0bbhfg6lcetKt4MmbL7H1reCm053KSuEIhYM1FVVRn4IjGUctcmn2uuM2DziUqaJU8PbAYQlpSi+38/Z0tUOSkHBARSguKxJeQ+vPNwOAZ0v/aZ72+4hH3JpRQIqFnKASImx6N4VismpG1EdM4R8PlWpKkisTViDswiCQsgttZYLyHP6l+YhKnn11CKlAq5Cj/EchQpf2jDcDdzEviTSqBr+ERWa4GpiiZ9IgxjdSpOxXoJGMYCHk/g+Mue8LaCUbb++hoDrFYrrBYLPZBlCgXVSmhWOGMBn0/uZ01EpGk01bj/g/MgBzuP8GdZAa+a0mtCfAmDL/GNpAQPwaWxD+Lf88MhFfNpeVzCqSgS8ug7NHoTXvwqCUWVtY6tScxZxUoWROxMvuR9U86vRVjBaYDPINu9N9YOehQWMh9i2rrOxiZAElSWgTmnv6BaTZXMA18OfZGjSPmTHgTctDkJ3KoEugaItEGeSF5+AWr0bAIgabm52YiJiYG7e9P8MDczZzXmzqpNHIth778Bq5XB+b1H4WlcAyNfA3HtIFgTHkawrwLaGjP+9s15ZBbXgG+1Qq2XOECEjIk41q08HvhWCyakbkB07lGWIsU9GKvjl1zjbG+8SQiQEIqU2ae+gIj6SNywfMhz0Emb1rZudZNx93ES4CTQdSXQdUBkkpx1rvsJUVFyuNXzRHJz81Bba0CfPn2a3A3OIHI92hP750Q78Jo8CT3/9iou7lwKJX8NtHoLtDUW+HnJYLQGwhKxGv26u+F8lhZ/X5lEzVlq6hMxUaAg1ipvpRkKqRX55SJYzAxmXf0RfS4dpzrVBd9wnB4+C5k6BWRiBi4SM0q1IqrldPMyorpGAE2NgM5lQME5TE1eQ30klTJCkbKIC//tut95bmacBFpVAl0DRJy4s+DXdjXWiXmLf51sb2cQIfngJDOkcXlc55VzGz8SBXH3orfoAew4XI2n3s2D0cRg0jA3fPB8AISmSPhM+gYyqQj//j4VpzI08KkWopREZ1lY49sbcwqgNfDxy1l39PGpQ2SwHgUfHoNn0kHwiE8mbiBWBN6Hx6ZXw2wBDlxwhUYvwORYDaVJ+ep3b2SUsJFZ/QvPU2c7idoieSRr4pZwFCmt+lXjHsZJoGtKgIDIyrvC4BrbPhaMtnGsk7VpxRDfW1lqO4gQXwV1hjMMvPRNZ6wTTUQ2cSrcw85Ax09HFMlYN7HeC7GIh7/MD8Aj07zhFbYB8qBgrNmTjXUH8qCuFqLExUhNWKT9455CbDrhhvM5cjw3qQSpORLsOqfE1KQ1CCtkfSS1AYH4MWExyi0ueH5yIX5PVqJCK0IPtQlKsRk/HvdwTDegMgcPHPuY5pFoJa74eOQ/OIqUW9kM3D2cBP5EEiAhviueiYa7sn1SBdoGRLbXACOkrZps2NI9cGNNhJapstU9t4X5jp4Kv2HbkXS5FNNfyKSOdXsj3FnLnglAxWo1er/0HrZXeGLd/lyoSbKh0kS1HPK8v91dhE0n3HEhXwa5xIronnrcEaLD0o1q3J+7FQEp+wlvPK569cO2QQ/hhVll+DXJFRFBBlzIk+HIJRfUmeopI4nJLLg0HTPPrqSmLQIk3yY8xWkkLd0MXH9OAn8iCVBz1qhQuCS6OgKN2nL6bQMiTTjWPVRD2mVCdmHZQcReS4QczYTFt56AsV6s5Jp4zGi49DZD4v8rJj19BecvG2gHpVyAz18JQmKoAsVLZRC6eyDj7ifwXZ47TTZ0RGcREJlRhLOZciRly6B2MyPIuw6RPQx4a6MPFo8rQ9HHe9Gb+Ej4DKr69Ifmvim4VEVMWkKk5zf9q8ER/mvzkRDT1o8xD6NU6duW+4J7NicBTgKdVAISHrByaCiUYztzUaobhPi217rcMGOdZwGsfAcBI9E5PO4cD939z8Pr4iRo9RVYurICqZk6/OMRP8QMUMBQeQ+qVu6GRaOnzu5Vgx6H3KJ2VDYkQNTNuw7uCguuFMlhNFnRL6AO+WUiVBqEcJUSRz0Pd6asR0T+CfB5Vlz2GoCfYh4GT8iH2Xr9so8ESHqVpGPWmeUsRYrMC98mPAmtrH2Sidprzbj3cBLgJPDHJdA1HOttEOLbUtHenPakvjQujc66azx6//MNnDiRCd+8ReDLi+krScivxvgkBkxaBEN2JtLnzweMRhgFEmyMfBYZPj71yYZOddbtGpDzuIV8hlKk3Jm6HlF5x4llC0XKQHwz5GmY+cIbTpEAiZ8ml9LIE2e7VuJGKVJqxbKWiobrz0mAk0AXlkDXqSfSxiG+N9sDN8oTETBW28HPJv+RhMPKhLEY9/GbFAYqKmvAL80CHyYYpH7w7qaGkM9DSUUtPnvnB4ze9zUkljroJa74Pn4xSpT+rKnOmSPLRnHC0quwzZFCyTAYl7YJ8dkH6eeX1CHYGDm/IUXKdSbYryi5EUXKEpRzFRJvth2465wE/jQS6BKaCJNjAs9T4HCsV5bshptnVLsuYo1ej1dWXW7wTqWmBFO2vm877J3NRwxSAuOQeffj+MuMvnBVNGTgJQ85n6nBR5szUKapRWDFVdx38ksKJJTGPXYhylzq2YSvARSKIAzNWCcaBU1IZBiMdQKSNJ8IbI2cC1Mj9t+mhDaggFCkrLZRpFz7/nYVNPcyTgKcBDqUBEiN9eUPRMCtu6Jd/NBt41g3M0At4wCRquLtkLn+Me6slq6S1WLCqj2FEAkIrQpgZQB5eRl6fvYZeLSeSD0FCYGTVP8obImejzcfDENI0LXx1Z9ty8DO00X0WSRsWKXJwIKjX0JoNcIgkuOroS+gSl4fnkvGSwADfD4NLyagwfD54FktsPL47DUAk5PWIrzgFB1NlmcvrIlfAstNTFvkPkKRMvfU5yxFitQDXyZyFCkt3SNcf04CXVECFESeioa7e/uYutsGRDbpgbGyBiG+7qqhlAzRmRerfgEdlTYcnFnXLm49n1Zzrmm1OsxZdq5B18ZFqexMvuTJV3rGIeq9t9E/UEnHeaXYiOIKK6KCRZBJBLBYGazdm4UfD+RTjYLPAGEFqZiUtIISc9WIFbRErrNG0pwNSsBkQspPiM1lKyTmePSkQNK4HknjZ9VTpHxJNRIS/ksoUjhne3OkzvXhJNB1JSDm8fDNyFC4DFc68RS23XzbBkSaqGzoqR7adrNo4smNaU8IUNCM9cNLwXPKAbHfKh03HhH/eQN56Zmouvw+lNbTgKAWFkMwagLvRcjgmbTrJ9uuYtfJfFonxK9aBJfaU7jv9CpKHknYd9fFLmoxjTsBhLEXNmNQ1gH6jgs+4dgSMfemPhJyX7+i89S0JbZRpBDTGhf+265bjXsZJ4EOJQEKIkNDOnmIL4nOsjnWrb5CaEoJd9aQG2gZrb8G13JnMfDWFmPRoXfBOtbrXd7kvzynTIFi8fPQH5sOszkXe09pcTW/DlPvcEeQnwxZsv9i6B3DUF1jxqMfn4K+zkJpT0pczQgsS8PckyshsJqgkauwY+wS1CpdUKQRw1VmQVWNAB4uZuhr+ZCIGOgMAgwIqIFEzMPZTCmsDPGVWDEhdSNico5Q01a6OhSboh6AWXDzqK0+xamYce5bjiKl9bcR90ROAp1OAl3CsY4OFOLroGjnAV5VRVh8+F2bP4KFEXsTDY+FHZtNNwAAIABJREFUNFgFZa9NWPR6DnYeqaaXJCIe9nzeG36qAHgkboO7hws+2XYFv53Ipyy+RUoT9ZH0KEvHnOOfU3CyCEQQLXsER4rUuDOqCi+vDsBH9+fi6/3eCA00oKRahECvOlwukuLYJQXqzITdC5QZePJ51kdCWr5rN3w75GlY+Cwx4/Ua0Uh8q/Lw0NGPaB6JjlKkvHbT+zrdt4MbMCcBTgI3lQAHIjcVUfM6ODLWbTVG7ASMzhnrziDCGzMV6oTdyCjMw7jHMqgj3t7mT/LCvxd3h3rQNshUAVizNxtr9+WyGesuRofz/HmP/ZCt3QTGyofGxRXhS+/Gqiu9cOSiAh8/lIMKnQhXCiUQCBmcuqJAcg7r+HKuMUKAhJi2SPgv9dV498NP0QtuatoiTyEJiXaKFAIkJCGxQuHdPIFxvTgJcBLoEhLoGiBSYAZc+dSxzvgKUFl6pNWp4G+22g3MWbbwWkrAeGAp+E2YswTjpkIVtx8FVTm4Y+FlGEmEGQABH1gwVYW/PxwIVfx2yFT+DUCEaCKkEUAifFkx5Wcw/ND3FEhE3b3waRBLUTInsRwhgbW4mC+FSAik5klxPksOg+naQlWsj2QLBmXtp89O8wnH1mb4SEjfBjTyJPyYo0i52VbhrnMS6FISoCy+D0VB2U3WiUN8tVb2VCV/bfVEPFQJtHphe7Wm6ol4a4vwyCFizqoP8SXDJMe4ZMQQCPpHwdXvPXy0pgRfbCyn1CUDekix/t2e4MEFPiP3w9VNik+3XMLOMyVUE7GDCJnXkxNL0Me3FtlbyiBa8wMEVjMK3bthxZBnMTq0GqVVQgR4mXH8khyvzCiEWMjg1XUB1GfSuBEgIRQpUXnHqPktw7s/foxd2CwTFdFI7j39NTVtaWSe+CbhKS5qq702HvceTgK3WQJiAR9fLQqHp59Lu4ykbaKzfrA51p1A5HZGZ9klWV9PhHgu2LK4JFud0p5MnYbuL/8VV355AArhOVTrLRRE3JWsY7tsmQyBCx+Dy4z78dB7J2A0W68BEUJrQkrxms08TE9Zjf45p1HhosIXw14CwyNvImzwVponIuKzQGuysP6QphoBuztTfmIrJAIocA3Et4OfvrmzHQx8NXl48NjH1NlOTFuEIsUglrfLpuJewkmAk8DtkwA1Z5HorDGdmYCxAznWnZeycZ6I8zXJhMmIfP01lJYZUJq+FeKsfWD4tdBKwiBPS0f11rOsj2LIdKx1S6S5Io01EefnjSHmqMz9qHBR44thf6EgwmYqEtBg7P9/053W2LR1UR2CTc2gSCH3kagtUthKbDHShMQ1cYu5Cok3lTjXgZNA55ZA1+DOWq0Dpso7TD2R62kiRB8hGgkBh7z+QxD69n/QL4BVAe2OdXIYm8srcfHFZ1CTeoFqL/v7TMThPmPgoxU3MGexpjG2iiIBkYTMfZTXimgiNEvdaW86O9NvtmXJGMalEWe7PY8kDFsi778pRQq5ry/l2vqeo0i5mZC565wEuogEuoZjvZEmUlW8ETJlj3ZdIpNBj62nqxoc3PyiUvT45H+UhoQc93YAIWCSRmhPwudi2ZJo9LEBifOAP1yfhuD//RU+2gL6zF39piJHNRqFrpYG87Kz99pBhGSwfznsLxRE/kgjgEDDf/NZipRsj2CsHvToTSlSyH2BFZmYd/J/1LRVLXWnmlGtqH0oEf7InLl7OQlwEmiZBGhtpP+nRVqZ2NnriTglGxLHemXJfrh7x1FpMIz1mlR8+2c3umZlrOBTvwKrP7DPYmj0gZWxgM8TOP5NrlVrdXjiiwvUB0EJdq2Au74M9/26jH7m3MgTk4OH4HjCHCx7JAruTRAwZhTq8J+vT2Hiwc/Ro/IKvf1o8J34vf/YhiBiC9mt10R86KH9R0GEvIQAwvjUjYjLOeSgSFkbv6RZGkn38quYfeoLqpEQH8nyIc+iWtY+NtOWfQ243pwEOAn8EQl0DXNWHQOQGuUNorOG0sO8vdp1qeAPLQXfKQnEbtLSRI/A6M+W0jHmpF6GpfogtEYdfOX9IOg3Cmp3CfJK9Hhn+XEM3fc1elawDMEHek/A/r7jr5kWAZHBmftQ2kqaiP0FBEjGXNiKhKx99KMLPmHYEjGvGXkkQP9CO0WKERqZFw3/LXH1a68l4d7DSYCTQDtIgBAwrng8Em5einZ4G/1x61wEo5XeecUE+LBU8AzVRAjtyW3kzrLV+iDlcRcffMcR4ls/WwZekyYi+LV/IXXnD3DHmzQyy2hioJBKoTeHQD3ia3i5SXAgpRyfrj6FOcf/Bz9tPvWn7OlzF471HtVA27CDCPGJfDmcaCKCBgmMf0TSdo0kNucwNW1dUoVgQ/SDN43aIu/sW0QoUr6hpq1KuRdWxz3K1Wz/I4vB3ctJoINJgIDIyjlhcO19LRt5Wwy1bUCkiegsd+8E8G9C39GaE3TWRIg3wp6xXg8ijSsbjsPFIY8hzDwBqVcMmPlSJgx1Viyc5oVXF/nBXD0Y/tM/h1jIxysrzyMtuxoLDyyDWptPh/1b3ylwnR6D1Fw5RoZUoeirQ1QTEfi4o/fyubhaLsdr6/xbbYoESCad/wGR+SfoMwtcA/DNkGeblUfiq8nHgmMfUBp5nUSJ/454rVkA1GqD5x7ESYCTQJtJoGs41jsQi6+jQBTDgGasU02E6A9sfBQxZxFPi2TcBLiGFMAsP4bhiy6jqIzNRCckiUuf7I67R/rAM247XNQqfPtbFjYezEOgpg4jLi5H94rL9DmaUcOxv88EvDytAL/+7Qx6nDmMSnc14lbNwstru6NQc22xqz+yk2j4b9pmDLJFbRGKlPXNoEgh9wWXXsQ9Z1dQ9l/iI/lu0BM3ZB8WMTyEF0r/yHC5e50kUKowI9fVSNmgucZJoDUl0DVApJFjveJ2m7NskFGfbNjQsU75fEdPhW/iZpzPqMS056/C6tRlxmh3vP9sD6jjt0Nq4876YW8OfHRiaMUVmHHmW3SvvAqewIKcQaPg92A8+GsOQrD/KMoVasSvmYVnVvWARt/6Gfu36iNxhP+e/x4iQiMv98aP0Quu6yPxMPAxY2QpzFLAauGBJ6gPUhbwGHhLLKTOMKvyCWwFuWznI2Pl1cc+N3WN3GcGICT30QgC9jtl5YFxvkaeTQq5UPTn0Rr19vvIe3mOa+QyDyCBc7a0nOteI/fRZbHPhwfGft+N5kL60PGSipW2IZF5NmMuIhGDC1cU2JTmwoFIa56e3LOoBLoOiExm80QYXx4qS4/dVip4IljyPSe0J4QKnk9OnPrvPqtxjL8Lrv0KIPA6gth5F1FaSU41QCbh4/UlgZgxxhvqQTshV6nw/e5srDtgI2BUmmgy3/1HPoYvMW3xgKt3TISiQgfflAM0TyT++3vbDETo3BgGE1PWI9pGkXLFqy/WxT1yU9MWua9H2WXMPv0lWyFR5omV16FIca8VYEpiOVafcYOFHJYkMo7gBQ/or67FxTIJTFZbGLO9FDBBYh457Fmqe3vCJQVt+y9wW1/7POx9KRmNrZzwdfvSm9iSw/a+ZFykgqS9HDELODaAsPe132e1Ovo6xuTU13Evua/BXNj32WXQkrmQe4b1roGvjMGPqUru2OMk0OoS6BIgwmzWgzemYWXD2+lYtx9QpJ7I4sPv2ACEpT0hjZizFLHx0Cx8Cd2LpiGnWIcX3i9BUoYW7z0biLsSPVBRKMDAe3ZD7O6O175LQdLlCkoFX6w00d+wIrMRj6V+Apf8PJilIpzzH4y4rH2okPug5LnF2HzGA2Zy+LZRY4HkJ8TkHqFvKFQSHwmhSLmxCY2lkc/Hg8c+slGkKPFF4l9QI2nIu0NAZNLQMqw9605BhMyEhEondDfgVL4URoaEWLOTs1dqqafhJyWK2Yu2s5fS51ttQOTQAQjgkFLCN7hmz8OxS5IqLrb7mrrW5BhseodzmQBn7LCXQG7O+ChG3WQMjceX2FMHfzkHIm30VfjTP5aG+I6NgDKxfX6ktI1jnSyjztrhMtZV2kIsPviubZPV1xOhnFYSEQIWL0ZhkDfUlW+DJ9GwP0StQmgumGH4QQpp3z6oeeI1vLmzjP76VevEDhAhfak2kHMUNWIXJAfEICFzvy1jvXXyRG727Whs2iJRW5ui5sMoJOlHN259i1IcFCkkIZFQpDhXSKSayLByrD7tBmKe4vEYhPnUIb1EhDrC/9XYtk/+bfv1fs2bm7pmRx6a8k/URCfAtSPP9a615D32wdxwfLcwBpJ7ZB+nc4pro/eQNRoarIcfByI325Lc9VuUgEjIx/KnIuHh1j5ceW0DIheMQDdhhwMRT30ppYIn7Lb2Zs8Tsf+CDnrhRdQkjII44xhgNaDaNRQeWUnIXvYevSXfLQjrYx+GXuxCfSLFSqOtSiIo6y4BkWqpG9L8Iq+hPbnFPdGi2xqX2iUVEjdHzb9uQqJUxEDtZkJOmRj9CEXKuVU0IZH4SNZFL6AEkqS5G3mYNLQaa08rwVgY9FGbcaVcCIuVJZa0Z/8Td4aV8oMRfwZrVrJTwfBtZic7hxjVOmxulAbXiGZhc2ewbpB68xE1jzW+xiemJVZM7DVbSqqTaavxGKgJrLXH55BEvXuIjp3PmtxYwk8gMVhHzVnrUzifSIs2N9e5WRKgVPD3hsG1f5cK8T0IT9XgZgmgtTppdXo89NH5Bo8jdu1Hf38dCgOpWuhcINfu92UjtfyefALd5j/Q4N7i7Ztx9d9vUwAqk6uwYtiL8KiRU02EzZq3UbfnHIVG7oWLPqEURAgBI2HQbY2M9WbLhlKk/ICI/JP0cM9x74HVCY/DzL+21G5kUA0en1iKJV92B8PwMM0lHSGbvwLqGgYfkAOQcoMJbQBsIU7keic3PT+Jp5sHGPkS7AiZhfOB0Ww9A6sVPD6fysgOCGQtGIGAvUbk5wQW1P8gEIBp4TUKWHx+w/uc3+M0BiuPRytJOsbAJ2tYD1i3Oj5CjcDjNxx743UbbgMRzifS7B3NdWyBBLqET6Rxedyq4i2QKbu1QAx/vKvVYsT6w6UQ8YmdnQ0aIoegrKoM/h98AVjM9NAkzf7L1f4rlicSQfXAfPRYvKReY7EySF+7FlUffkgPZsKKuznqeRR6yR2+Dlr/I+coqmQeSPcNv30gYhs1oUhhKyTykOPRE01RpDw2rgR+HhZ89bs3dLU8jArVItEtG6XPfEfn6ex7YPUNezBSw/LCzitG+hDAIlxkF/0jqey5xgZAECf8sGAd/DhNhNsSbSSBrgEiTeSJeKhY2hM731WDQ8fGgXXja3bOLadjzHHftdeqqrWY916SIzKHWC5o2C6Ph8DKTNxzeiWURq3DBNJ4PfkiIXwXLITqgQWQiuq5uorWr0Pusg8oGVeRazesi11ASQ1Js5uztBJXpPpH3RZzlvM8yKE1On0rTXokLV1N2H/nOXwkHi5m/O3uQuxPdaUGoJ9Pu0EmtGDZg/lYurQWgVV5DvnITDz071EDrYGPjAriuqtP1mwMIKH5p+GjK6Qfbw6fg+RAljeNa6zMiGOd84lwu6GtJNA1QKQD5YmIBFZH4SeH75ZGJOVhzsnPITMZGlQ5J+AhGVYHcbwZMikDc1UsakOeAePWk5YC8fOUoe7XTchZ+h4lkyx07Ya18YtRI1aw0VE5h1EjUuB8YBw9vAmLb2sRMN7KpqMUKWkbQSlSGAZFSn9ke/WnjwryrkO/AA01VJmMYuy54AahABg2oBR7U9T2uCOqfwisJvjYaLbyisUO7Y0dkx3YGeS7BaJCocKMs9/C3VBBr26hQBJ7K8PvcveQiLChPbQciHS5le04E+oSIMJs14M3gg3xtfoIoSnrANxZxP5N7OA2xyzRetz15Vh4+D1IzQaH2cbr5VqQAoC6GguOp+gxMlYJMCIcTH4P6w0i8Pk83JUQgClMMjJfe53uHL1Yif/d8VeMuridmrOMQgnOdktoEwLGW9mqBDzuSl6HqLzj1EBFPRnEA059GLa/jR5MTXwCBjzi+2jU7N4kekVgBWNha6XYQ6Yv+oRhR+g9eHzfG5BY2MCDnyIfQLp/xK0Mv0vdQ/bfkB5aLsS3S61qx5oMBZEx4VAO7XIhvkOuYwBpmwWwc2c1yCdoFNNP3vxKTCpEH66DVasFf1wt1EMZ/Gd5Eb7eXE4HFhwgwQ9v9oCb3B//Sv43NFZAxONhTFwAppceQ/anbNTWlrC5CKrORET2URjECmQFhGJA5gnwfN2wYsRLiO5tQHq+DHdGa/DxDp+2mfQNnkqcyDHZhxCXfxR6fsNaIla+AHxbxJo9Wdy5aJZdhj3lJlTojajiKZx0j/qXSswG+OiK6AcX1aHYGTIdc49/Du+aEpr4uDV0NlICY9p97h3phSSIIJHTRDrSknS5sdAQ36cj4eHamUN89xmAWEmHCPG1c2dRU1ajbGRyUL42owBMrgf4H70L+bwSVFkNGPbwZVic6OIfm+mDl+b7Y+mZN5BjYcPmyKG8OKQX/NY9DmNePsyPPA3N6dPwPn0YDp9I9l5Yfbzxftzf8fzkQqTmSZFVLMG5nPZZ3MbfDurYpVpIy5MeSZ7IxOFlyKsQ4WBGw0RE+3sEjBXjUjYg1pbwmOIbhaO9RmFq0mqodUX03VvDZuN8t/gu98Vt7oSoT8TmWOeis5orNa5fSyQg4fGwYlI4lDEubHRkG7e2yRNZrQUmKwC9FfAToKLkyG2jgieHPZu34JTZbBMqOdT+PqMQfl6j4K4th+biQ7hYUIJJT12B0VyfYT17vCfefiIIS8++gWxTfew1qbF+77l/wUVbhl7/+Au0yRko3biB1upI9w2jjvVKVy8sH/4ynppcBi+lGS99H9jGS9o2jycgMvOOSoT0q4JCoYBUxIeQz0etyQypSAij2QILw0AmEiL3w52o+uUY9Zuc94/BoV5jcf+Jz6Csq6ZAsjl8XpfSSPyVZjx2VwlMFh6EPB48lGK4K/hUHiI+H9paKyp1dTDUkhBkwEViwdkUJdacdeW4s9pmu/6pnyrm8fDN0BAox7ZP0bm2AZEmqOA9VAngsUx37dKcqeDt2gjL7VefDU3+/c97CiCRSOAl9kL1z4cgD16N59/Pw/rf2Yx1Lzchdn3WG+4uLnjj7DKUWuvnQEBk6tk36K/s4H+/huqzZ1G6aRtMIheU9ItBQNp+GFw98enw1zC4nxbRwXp8sN2X5kt0tkZAhIDCnNE1GDd2FJsWUk9JBZLvZ2+M2YLsTz5Gyeof6Eck4fGXsHux6OA7NCLOwhNgY8Q8pPtHdjYxNDnenqo6CPlWlOpc8J8HQ+DvKYVAQOrH1AvFUGfGso2Xcf5yOc1YV0vBcWd1idXveJPosiByu7mzrrfURBNJze2OB8b3Q5lWiupD94HHXMbx5Fpo9SbEDlRA7a7A5jP/wG8WjwaPsYOISleEgtmPILKmCMVbtsEsc8V533DEZB9AtdIHnw15ETyhAG4yCyp0wk6XN0GOQrdaAXWeL7lbiCEJcbiSnAS3qmRWHjwzwLOw/wMfBmMfBAxOQPZHH6Bk/QbquydAsqf/ZNxzZqXNtMXDlvDZXSL8l4CITCLAo1Pj0UMtR2aJGfzUHdDxTkLCqGHwuBshEQGoM1rwxg/pcEcuS8CY4nJLpsWOd2xxI+pIEugS0VlYrQOmsiy+pMb67aaCv9ECExB5f5svXpkdjohgN2RcrQaT8S5EVUmA0AQ9Xw2DaD4+TlWiUmd0PIpoNIT2hGgihGJ+R/hM9KorRr9L+2F290KSdwRiMvagXOFDKxtaKOFF52zErOpew/JjERAZPCgOx/d+C/9alocsq8CEKp0V4X0k1N1SoZuIiJnvgrFUYffTL8HtxGnaL9kvBseCR2DauVVQ6UtsPpI5ON+tc+eREBB5bnpf9PDvhszMcjCnFsEoSMelbBPUnnz4ebnAoPgv+o0cArPZghWb90FuNXIg0jm/Dh1+1F0CRJi0OvC6izoHiEwvxHvbfeAik+HTJ6IhE7NstI39UdoaIx775Cw0erZYFfG1EBZfZxDxqcyjTmWrlzeuBEajd9Iumify5bD2IWBsy91N6okQoTw2Q4xBcZE4se97+Ncuw9KVpfh0fTHEIh6CfCX4+eNg6EwTETVzGazmKvzr+xNQbd9BM+dJI852opE8cnAppJY6CiQbI+YjLSCqLYffps8OVtfh3UVhYHjeyPnmZQh8f8HIRzJQWmmivjUS3RfXJxDVEbsQFizFrgNHUFxUxZmz2nRV/rwPl/CA5XOj4NanM9dYJ+vnxOKrKd4GhVufdl3Vuho9vttXctN3jgnX4O/rAlBr5MNNLsSbC8LRTdV09FRRhQF/XZmCsuq6pkFEk0+T+uCtQk6PWHQ/teO2JxveVADN7NAQRKJwYt8qCArewvCHL9MywtSq9f8h0d+90hOhkdMROfNdWM3V+Of3x5F8RYw70n/BkKy9tB8J/90edi8WHPkQHoZyliIlbDbSAqKbOZqO043kffT0rcP7iyJwJdMM2eXxmP/aVew7pXWUuXKRCXDmu/4QuixFzwl34eCRo8jK03Ag0nGWsUuNhA3xjYKHa8NQ/raaZNs41n+rAQZLHZpIZfHvcPUMpXOw8as2mI/9s6ZoT+zZ0De+Zqc9qX+swWDAv9ZegZDHUM2COoJtl+3uTqJtzB1ejjc2+KPGyIdcIsQHiyPh73X9MrBXC3V47suztKaG3SdiN2f5avIQnXMEPFcP5PRNQLdTO2xU8O1MwNgGu4WACEkafPweoolE4/je78DkvHlNOPS/l/hh8oh5iJi1FIylGv9YdQLnsmTgWy0Yl7YZcTmH6OguqMNwoO8ETDv3PaVI6azhv2QvDfCrxZsLo5B7oQqCnBkYueQCruTVNViF49/1hb/PqwgcNw8Hjx5FZq4G67miVG2wU7lHinnAt+Mj4DKYhOJ31hBfEp11l9wW4sv6RNxVQxtE8LT1UjeMzmKpA0m0jEjA0FBMAZ+hQEB9Ilt94OoixUePxUAm4qOqrBJFJZkora5DiL8aUp8ekEvrGXDnvXMCVfo6+GpZnwhxrP8SPgs+jTSRrgQiJDqLbEdizkqIj8axPd/BXbMU01/IxIXMWrqc5Bf3zx/3hqdiCkLuexuMRUvNWWcy638RTUz+CbG5h2n/8/6xOBo8ErNOr6AaCQGSLWFzkNzJfCS9fI14d2E4iipcYTk8Gb+eTsMzywpQayQ/boBJQ1X49OUAVCq/RfjwcPx+/CgKszlNpK3PgD/r87uET6Qxi29HdawTU8Qr0wvw/nZffPRoPHw9JEj67Sg8TEvA47EHgMUkRbVlKMKmfejYkyyIGK/RRBqDSOCpnah0UbU/FXwbfHvsILJoCg/Dhibg2J5vEWBcBrOJwXfbK6kT+d+PqSAU8FCtnYyQWW8B1ipqzjqbWW8eJGA+Jm0rErJYUkiikfwSNguP7/sPpJZaqu1siJiPCwGdJ/yXONbfXhgOuVSF3T8fRG/mcWQVGvDJDxokRkkwdYQ7NJp7ETbnVfpDat2OAzDp9Jw5qw32KffIrlhj3U+IypLD8FANBo9kWrVTc6Y9sWerO9fsJsYZwvVENJGcigGYMSwYJ87q4Vs0CXkllXj1s0LoaqyYOdYdcyZ4oco0D/3uepEekgREqnV1jugsuybiV5WH6OwjgIcXSoMj4XV6DwzealxZ/AgKqySYNkiDqyUSfLPPG+b6uljtJJE/9hqPWjY/xlkTCTQua2iWtAUklGvuRPist8BYtdeACLlBaDVjRPrPGGwDkouqEPwaMgOzT34Blb6Y5pFsDbsPKZ2EtJGASFQfLzw4LgJmC4PUpHNQXFgBqecRMAZf5IrvR9jQqXD1lGNfcilOnjnN1Vj/Y9uRu/sGEugamkgHC/F1VMGw1XNwthK+ek8BMkskYEwiRBf/DoHnLkx59gpSr7AmGqmEj+WvBmFohB88ErbB1duTgohWV0fL40499zq8tSU0xPcOeQYUx86A561CZVAI3JMOgu/lhtIXHkG+VgK9gY8gdR32p7jiSilLp95Zmt0nsmgyg+HDhiCnzAS9oemkSZGQh95+Ihqd9dqq40jKujZQgazJ+JSNDh9Jqm8kDvcaQylS7D6SbWH3IanboA4vIgIiZD4DewbjgbFBkIoFqDVZUVBhhVwC+LizptDDKaV4b0M6BvfQ03oiHO1Jh1/aTjnArgEiHaw8rp0Cvqkd8XdbiK+wVow3Bz2K5IxqTH3uqiMbm9wzY7Q73numB3wGbYdUFcBqItpa+DQK8R3vdhmCQ2fB8/BEZXA43M/shck/ALXPz0O2RoZqvQBXS8XoqTJib1r7MGy2xreAZPy7GfhwU5gRO7AK901OhJhwxjfFbml7ocVqwc5jmTh2uQzns68fJTI+ZQPibc72ZL9oHOwzHvcf/9SJImVuh9dIKIjwecgsEqFXgCveXRgGoaCh1v3Nb9nYcCiXRvUl9q7hNJHW2JjcM5qUAA3xvT8Kbr26SIgv48tDZemx28addbN9RkDk052+MFnF+E/Qh2BczmPgjAsO7izyq/q5uf549B411PE/Q6b2oyDSlE8kUXoFrifOgOflgapeA+F25gAE3QJQ8dT9yKqUQV/LR0IfPZbv9UaRRnSzoXWo60QTmT6yHHUWBudKZBg2wBPjY5vmAUu/rMX3xzKhUppQrhXdEEQIe/BIEv6buYfO1x7+u+jQu3Ctq6amrU3h8zq0j4SACAHUrBIJuqsV+HBJJDV7OrcVu7Kx6XAuLUXAUcF3qK3d5QbTNUJ81+uBiWw9EXvGuodqSLswStp3hHN01o12CWHxVchc0c1LhfRTJviZH8X+M5X491dlyCqswZIZKjwzVwVzTSK6Tf0UUomgCZ9IMX4Jnwk/TR6ico+A5+6Ggt6D4XfmNxg8PXDw3mdQXC3EqDAt0vOlOH7Zhdbz7kyNONYnJ5ahoFyE06Ve+Oe8gejlp4DFChRUmKEA+tYOAAAgAElEQVSrtaKPL59yRmkNFryxOgXamgp4uphx/iasxQKrGaMvbMOg7AMOINndfzJmnPmmU4T/2s1ZPQJ74LG7ekIiEsBgtCKr2AJXFx783YXU3LU7qQQfbc7gqOA708bvhGOl5qzhoVCOdGuX0bdNnkgTBIwdmTtr08le+Of9kZCK+Uj67SN41q0GT0gqHrIkg3XGGAgTPkUPH1Y9vP+dE9Do6uDbyCdyTYjv6R0ok6vx5fAukCdSK8CUYeXIKhVi4shBGBjkgdy8SlQeXgEPyS/gCWtQo4mDOOwpdA/vBY3OhLfXHoZIaEZyTvOSniak/IQ4kqxJKVKicSx4JM0jIc52grnbwmYjqQPSyBMQCenhhocnRIFheEg7ewzyy99C6nYGTJ0X8kWzEZo4C0pPGX4+XoD0S8lQS6ycT6Rdjrg/30vsPhGXMW7t8sOdA5EZhXhvmy8mJ3TH/aODwDAWJKcVgtm9ARZZNbTuoxE/NQEycb2Nu7E5i7D4/uycJyJ3Q87AITTZ0Jn2hPgWHDVNOtneJprI1GHlKKsSYPGcCcgrMcKydzbMsktYubkCGXkmvPqICkqpHBbVegQn9ERyRinWHjiH5Bv4RBqLYVzqZgzK3k8/TvONwG8DpmLJgaWQ2ChSNoXfj9TAjpXZTkDkrQUhUMh9ceDAOQTrH0TaVR0+X6/BoAgJZo52h7Z6Ngbe93dafnjdzoMwaXVYn6wAYytT0Mm2AzfcDiyBrsHiu0YHTOlEBIxbfWBihHhoTHdMGhxI/cWvrEhGcnYVnpraG2OjfRtsGaqJOOWJ3CjZ0A4i5LBgObk6J5AQEJmSWA5fNy8kDhuMpMPbIC97Gfe8mInkDAPNqZFJ+Pj1kz5Qes9ExNTXaXTWP1Ydx7kmorOu9x0kpq0RF3c4fCSXVCHYGjEbCw5/CE9DGa2QuCV0NlI7UIVEwp216M4B0FWL4Xv5fuxPu4BH38xFnclK13zGSG8sezYA2eLVUAb7Iy8zGZpKLk+kA5/DnXpoXQNEiDlrEilUzvpESgq3gs/3pqp+ezWTyYTD6ZU3fV10rxr8dU0gDCa2/npIkCuGh/tgx4l8XC3SY0ZiIP2cz+dj3qhu9HlUE2nCnEVpT4hPxNUTOX0GNdBEGJIjYwsxvumgOlgHsmoERCYllqGnnx9iY2JxavO/YKlei8QFlxpUgXznsQBMH56I4FlraMZ642TD5kyNz1gxNnUz4nNY0sZ0dRj2952AqedWw1dXYDNtdZzwX7tj3asKeDDiaYxakoGrjWhPCHdWbsWj+KoiGsODdVx0VnM2AtfnliTQNUJ8CXiQZnOsWy06MEwteDx7bkRjMGnsZXa+fmvX9LoaPLcila0FTjQA218yLMqjRT8AGCtQXN0wUopntQICwuZLSLcYWsjK20OGFc+xlOUN8kScqOB9K/MQQ0rDenghp1f8NeasW9oRHeQmCiJDCYj4Ij4uDic3vwumejnuWHQJtUZbFUgAn77UDaNjEtF35hqbJsJyZ91Km5CywZFHQmjkj/QajVmnlzsoUraGdQwaeQIiLnIhpMV8PBD+OBb8Kwt7TmodU1ZIhTj+XR9kFD6H9bVhiPbTQMX5RG5lS3D3NEMCxPK+4tFIuKmbLmPdjEe0qEvb+ETIEJxYfFs0olbqfL3KhkSroEeevd54M9+ncpM4QGQuSTZsIk+kKe6srkQFP2V4BUja3LRJk5Bz5gyYwvn44PtyfPRDEZVivyApdnzSCxXCZxAzYSEFkVe/O4nz2dcntLyR+MlKjUrb1oD99+eI2Xh07xuQmQ2UImV91IO46BfezFVs/W7kt0hPdR2WPhwKK7yQu/bvEHtvx6jFGcgqrINAwMPGZT0R2cMfxb12ICZEgd8OHUUJRwXf+ovBPZFKgIT4rngmGu7KW/vetVSMbQMiP+qBmQow+Wa0Y0XcBnPX6wx46stUx2eUBZiak4iDvIXxtTwe3BUivL84gj7vuS/OokpvgVZkxvyjSx1FqYg5i2oiCnfk9B/cpTQRQntCNJGiSiEW3juWyuHsro3oLngL+WUG6AxW9OkmRmXlvQga/zzcvWX4bHsS8ktKmx2d1dTmJRQpzjTyl1QD8WvoPbj3xBdQU4oUPohGknIbfSREE3lmWh8EB3ZHdlYJrCcfg1l0gRbr8nDjQ+2mgM7lMwwYMQgmEylKtRcKxsRFZ7X0tOL6N0sC1Jw1LBTKUa6dh8WXHNAlpaXQ63Tw9vaG6898YPatq1LkiC8rLYVOr4ePWg25nKXNKC0th0rldV1BlpWVwttbRa9XV2vxt+UnIRZYkVkpgdlqM5HZCoN7K6zwcTFRk1VGpRR15hv7axprItV6IzWRPXJgqYPFl4JIzhFHPZHG0VnN2gEdsJO9PC6JzsorEyIgOBT3DAugOSK5py7CYtoPI1MNN14sXCOHwkUhwrkrGizfcQ6u8uaH+N5o6sS0FZtziMqcRG0d7jUWUxpQpNy+8F8CIu4uEiyZFA1/bzlyyszAhd3Q8c5BZPWG2WMi+oX40gTW9zZchKguB35yjvakA271LjGkTulYT0tLg0ZThR49eqJSU4GQs93AzHGBxWKBUMjyBlmtVpjNZohFYtYXwTD03+Q6iVhybqQWyL59+9C33wBUlJUiLj4OhUWFOHnyFKZMnky72uuL2P/m5OTg7NmzmDp1Kr1O/r1pbzJKa0SwWPhIKW2o2g3ppkNetZjqJPlV7F+hgKFgQ3CGsK3a6eLJX3cXKTVnkfc9/N5xlOnMVKF59MB/4KUroyG+JNmQ1BOBpzdygmPR7dROlCvU+KIL5InQ6Kxh5cgvE2J3pgvGxvhjycQeEIsa0nsQYPn1dCH+t/0KAj2N8HCx/CFNxHlfjEvd5EhIJBUS9/ediPnHP6mnSImYh5SAmHY/COyO9XK9Ev+Y0x99Al0p2JGEUrKPSCOlld/dcBmpVysxtKeOgsj6FBcQUlCucRJoTQl0Ssf6gYMHkRA/CGKJmJXFai0OdkuBVleJnj17om+/fvht1y4KKr169Ub//v1w6OABVFVr4enpicGDBzeQYaVGg8pKDYJ79sCRI8eRkBCHjIwMlJSUIjFxKO179OhRhIaG4eLFdERERKCwqAhlpWWIjmbLrBLAWfarHjUmAUb11GHPVUWDmrd2ECmtEcBgEmB0Ty38XIzIqRbjULYSo4Or4aMwwQQ+hLDCxEgw757xSL+QjqT0y9DV8rDtkgeW7HsbXvpiCiLxTCZUyScBL29ofHvBNfUELHwhvhr6IsqVrIbUWVtjECFnX2iQO958iC02Zm/r9uXih71ZMIPX6iBCKFJGpO/A0Mzd9HXEtLU1Yg4WHVwGtzoNpUjZGHE/0v1Zs2N7NTuIECJPsZCPVX8ZBLmEZT22tyc/OYOc0hqQkBMuOqu9VubP+Z5OCSL79+9H4tBECEgmFfGp/1yJZK90DIofhP37D2D48OHYs2cPxowZjVOnTiEuLg6HDx9GTEwszpw5jSFDhjRY7crKSuh0NQgM9KNgEBcXS2nkCXDYAaeqqgonThyHr68fQkNDqTaTlHQeERGsk/X48RN4d5cRdSYGY4J1+D2znvCQ/PYb3E2Hcr0AFXVCVNYIcV9YBYq1YqqN7LysxF19tdh9RYExfbTYeckVC2KrMW7cOOQXFmLXkWSoZWb8kOqFh/a8BY/qUhyNmIZwQQ5czpyBVSzFljHPYdzvH0Fu1MMkEGNt7CPI8erVKXe13Zw1JbEM+eUiqonE9HbH03f3hYeL7YeDbWZ1JgvW7s3FxsN5CGhlTYS8guSRjLqwHQm2hEQCJLv7T8HdZ79zhP9uDZ+D84FsJF17NDuIFGpkWHJnL4yK9KF5M87tSkE1PtiUgeySGgwL1rEsvikuDX7YtMdYuXd0fQl0SnPW6dOn4enpBbVaDaOxDozVigvp6YiOCseR4ycxYvgI7Nu3F6NGjXKAyPHjx+mBf/rceQxNaEj3rdPpcDYpCeGhoUhNS8WQwUNgMNTg9OmziImJgUwmRWlJCZLOn4dcrsTgwfGoq6tDSmoaQgYOgFQqxaWMDKzbk4nMShG6e5qQViJFoJcRGUVS6mAf3F2PY7kuEIus6O5lRKRXDa7qpejlX4vjlxTorTTiULYco3rpsDPDFQtjNBg/fgKysnbjm30yxHhrcLxMiQk/LIWLtgK5iRPh71MLwQa2jvgFdTjOdRuEKclroTDqUCeUYF3MImR3QiAhB6KbQYCpQ0uRVyGGyaUnnr27LwXuiqxilGkuQm/UIdizJxQ9+kEi5lPG2j1nMijzb3NpT1ry9XZm/03xi8aR4FG4+9wqB0XK1rDZON9OFCkEREQiPuaMjkRMbw9U6Kww5l1ATmUO3KQKuKoj4Ovvhiq9CS+tTEYvZQnnE2nJYnN9WyQBGuL7WBTcVJ2IxZdQhaQkpyIvPx8DB4YiSOGP5MI05ObmIioqEr6+vrhwIR0DBw7E1atXERwcTP9269YNWVlZUKvUqNRUgWGs1Hfi5+eHK1cyUFBYgEHxCXBxUVAfCQEKkvQ3csRIXLx4AQMHhqCwqBj+/n44duwYiHZCro8YMQJGownfbT4MF7EJOy+7YUy4DnfFavDfbWpU1QghERCHuhj3Dq5AsUaIao0Qz99ThA+2+mBCTDXWHfFAZpEYj4wuh5urFR4KM4J83Wjd8IPJIhTlCdC3nxE1L66Aq7aU/ESG4aWF8E0+gcqtqSBFry57D6C/kh8++gFEFiOMAjGWD3keZUp1izbF7e5sp4In0VmFFSI8PGs0FDIR9vx8HH2YR2GBESYzQ7nHSopfQOiceZBKBVi2bj80OiPON5M7q6XzHJu2pb5Cok84dg28G4sPLoXUTCokAhsjH0Caf9tXSCQg8uidwRgQ3BPlFbXQ/PoohK4nUWdkIBTyILS4o87/e/SJ7wGzyYLP1u+Bh9DMRWe1dMG5/s2SAAGRrx6LgKeqfcpNtE2IL8lYb0F0FnGk19ayRaBIUygUEIuJmYSmCjZLcI07OeeJkAP9iQklqDEKkJQhw5USCSpqWYf/9HgNqg18XC6UYGaCBu9vVeGpSaX4+Bcfar/2lJsgFgEeSgneXhCKupo0LN1QjdOZcrwwqQhHd1Zj5NbPweMxMMld0feN+2E4X42Cld9TIMlS9cKO/jOpA5jVSKT4Lv5xFLk3TaN+S5Nt45sIiLjX8EDyRARGV9w9fTiKUi7ClD0Pa3cV4X/rS1BnAuIGyvDB891gcHsdIXdMg16vwZvrSJ7IrSUb3mxaxLR1x8WdDh/JZdUA6iN58MjH8Koppf6oLWGzkRrQtlxbhPbknYVhEAhVuLj6A7ipv8EDr2UhPbMOEgnw9avd0cNrIKxDN6C3nxC/7DuM8pJqDkRutsDc9VuSAEnpXpkYCuVY91u6v6U3dQgQaemgm9PfGUQEPAYvTinG8t2eeHBUJZZt9XHAk1jE4OERZRAKrVh72BPl1SLcGV2F7addqb1aKrRC5W6Gl1KE1x8cCou5Eo98nIGSKhMG9dZjXEQVjGl5EHy6EYK6Woi81Oj1wTLseG81gs79RinAr3gPwMmgRExKWUcjieoEEvwY8zCyvPs0Zyq3vY/dJ0Ko4IN8fBAXF4+Tv30BcfmHGLX4MjRattYvMXutfz0YA/qMwcBZX9Bkw1uhPWnJhAlFypi0LYjPPkB/bpB6JPv6TsTUpDXw1ea3C/tvH586LFsciau5fEhSxuGV/13Fmh0VDrr/bmop9n7eCxbFf9F33EgcOHwE2flVHIi0ZKG5vs2WQKd0rF8zuxZqIs2WTgs6OoOIl9yMIQN12HHGDc9NLsbHv6hRa2JDU8nBp5Q2LHhOWE90dWyQwF+nFcJLSa4z6BEwEBJZhKMoFZu8yHJu+VblYPbxLyAz6cETCPDTiGcRmHEC8dkH6eGWrg7F6aBEzDj3LWSmGgoka+IWI8+zZwtmdfu62ll8g3x9ERcbi9PrX0Wd/kcMe/gSiLzs7dWFvnhw3FAEz/ypXUDE/t7xqRuprEkjPpJDvcZQihRPQzkFkrZ0tod0q8WbD0Uj90IFeDnTMOzhy8gpMjZYrCMr+6Kb/6sIHDcPB48exZVcDTakto+54fbtGu7Nt0MCHIi0ktQbF6UiBz6Pz4fVlmxof83MQZWYEl/ZoBxuco4c723zo32fnlhCS9kO6m3A2ChvyJRDWO6sGhOmxVdiWlylw+BWda4Ixa9vg9VQSzPjvx/0KHoVX6CMtARIMj37YBuh7TjwNsSWOuoj+XzYy6iSe7TSrNvuMXYQUSm9cMcdg3Fs92rIy97AHYvqNRECpts/6o3AgPEImfZfwNr2moh9xkTjG3nh50bhv3Px2P43ITfpKUXKT5EPIt2/dSlSyLoG+xnx3sJwZBUqITqXiK+35uL1r4sdizEwyB07PguAVvwlQsYM4UCk7bYp92QAXQNENuqB6e0TGXC9XeMMInIJgzFh1YjuqcPVQhm+P+zpMDXcP7wcabky6uNoqg3wr0VptQBvzyuAp2ciRJIgtrJhjQlivhVymRWLRpVi4wl3BHiY8UBQEa4+/QUYmGEQuWBr+Gx0L7+CIZl7KRNklkcf7O13J2adWQmXumoKJKvjlnR4jcQOIpU1PCyadReys4rBO3MfrpblY/nmCuSXmLFkpicGhcpR67YK/RKjkFGShRXbLrdJdFZTa9WYRp4ENuwgFCmnvqYVEq2UImU2kgNjW/WwCVbV4e2F4RCLvXFixw744yVs26/But+qEdpbjMdnqcCzjIX/ne/D3VWADb8egqFKy5mzWnUVuIfZJUBBZGQYXIYpO3FRqg6wns4g8tAdZYjro8fW0x44mOaCmjri8mZd9qNCq5FTJsbloqbJyoTU6sXA202Mr55hQ5HtRam8lWbMSqiAWMzgYr4UcgkPs0f4wFKgxPlFT4Cnr0StUI51sQ9jQEFSvd1eFYqz3RMwKeVHCiTEtLU1fC5KlD50TMRERhUmAZ+k+rMbgfy1XSODZ0gqNNGunK6RGTHk/2jtEvYaYSTmsXey7MWkCBJb2IQGDlTLvW/KJEap4A186lgntCcz7hyOQLUcqcn5EFxcChfxaVrZsFbbF0bvZ9H7jkEwWyz453cnIeJrb1oet7W3CzFtxdnMiGk+ETjcewwmJ61tMxp5Ep01LsYPkxIGwGCw4OrRHyCvWgehNB+MyQUV/GHwDXsBvj08cP5qBXYdPgkfjsW3tZede55NAmIB8PXT0fBwa/qHcWsLqk0c68ypWvBi24dBsjmaCOnjIrFgWpwGMb1q8NLqQBiduLJcZRb08jXC190IYsoqqRI6rj83qRi9fGpBwMTTIxhSxWAQFl/CnXXHAC00eiHSciV4bGIZXGVWxIVNh5Xh4W9Lt2P8tmVQmGroEL8d/BT6Fp7HoKz9NGrroiqUUpvPPfk5NW01bnaQI2YYFhrq49Ts/03ggTzrVq+Rd2Z59saa+MU0kulGzU4FT0J8i5hAvHxPX7grxbQS5JUSK7R6BqHdBRAJBag1WrBqdzbOXMpqVdqTlmx+Uo/EnpCY6huJff3uxPyjn0BprKby2hw+r9VIG+011sfHhWB8nC8EfB60tVZcLjBDKQd6+4gooGcX6/HcF6cxKKiGTTbkfCItWVKubzMlIOEBK2ZGwjXk1vkLm/kq2q1NQAQdzLFOJjow0ACJyIqMQim0tfWUFGIBg1fvKcSG4+7ILRdjfHg1XOUWfP4bS1Mi4ltBfrx7uQrw4QIrZMphDk1EyGcgFrLVCumvdRcB/vfUYFqk6YlPz6I26zKWHHiPgoBJJMSPkQ+jW/lVDL/6Gz3Isj17Y0vEXCw5uBQSc32Ic0sW8I/2JUBU5BpAQc4saFhXxfnZHk6aCKGQcXMR4V9zQxEc0HCjkryQf61OQ0aBrtVpT1oyV0KRQsJ/E6/+Tm8jpq0tkfOw8NAyuNdWUoqUTRHzcKEV8kjsGeu5pRJE9XbF3+aEUSBxbj+fKMTKXZm02qEjY50DkZYsKde3mRLgQnybKaibdXM2Z708rRB5pWLE99XTGtcvfR8IbS0bnTVjUCWq9HzsTnFzmHWev6sE729XUbPSvYMraaa7h4sZ/bt3g0TBOtaJJvL4+BJQZnkwVAsxmXmI698NIlk8HvvkDArLDfDUFWP+sU/gYtShVijFhqgH0LP0IhJsGkmmqjd29ZsBj5qSm2oDN5tzS6/3LU5lqetpaGwINkfOh1HYkMaE/tIA4FYrAAnxLbDRnpBDct6oINwzrGG+y9mMSiz96RL0BtNtBREyboHVgpHp2zE4ax8LJKoB2D1gKqaeXQW/Vgz/debOUrtL8dkT0ZA0IqZctuES9p8voeMYZiNg5DSRlu5Yrn9zJNA1HOsdTBP5x8wCfPW7Gs9NKoSHwoLnvuuGqhpWG1G7mTAxshrf7feiICIVWfHgiHJ8+bua/lshMUMsZOCt5OGNuTzIlMNBaqxX6Y14cUoRzS2pM/HQQ21ErVGAV++TQyQbTEGkoNxA3+FhKMLcY1/B3VABC1+En6IfQI/Syxhk43+yb4xbS6u8/rbSyDywLWw2slV92SqNjRqJWBubttnBjEtyLDZFzYepkUZCtSwbiBDurMP5blhyZzBGR/lQ90q1wUo5yryVfPD5PFzK0+Ld9ekQ8rW3zZzlPNXG7L/EjOhMkUJklPQHKFJYcxYglavx6uz+cJGJYLIwqNRaIRHz4CbnUyaGVbtzsPFQHobaubM4TaQ5ZyLXp4US4ECkhQK7Xneiicx7LwmMlaGkigIeEBVcQ9l3UygNB6mbDiwYWYblu71tzmxb4Sr685s90l+aWoS+foRGgw9vrxEQiP0xb+kJaA0mTI2rxO7zSlTbzGNBKjneXyiEQBzWAETIcxR1Ojxy6F3I69iyqetjFiCwIpON2rLpQK0NIsSfUkeoVoY+jwqX67EIM5ic9AMi8k9Ss1uuWxC+H/wEzI18JKQoFaGCJ471IYOiEdtfjRqDGak/7YCvZAX4igJoi2bAe/JjUPu4oKiyFm+uOQoXadtwZ7V0m4xO2+qokEhqtu8InYElB5baKiQCGyPmIy2AZYBuaSMgonKX4qVZgyASCXH6kgYuhz+EXLUDTE0gLsn/ilEToyEQ8vH59ivQll/maqy3VMhc/2ZLoEuACPOdFrwqK/CkG5BiBHaxzmVH8xEAc5XA2TpgL/tr3dEChcAsFzCrdeAVmxtei5MAw2RgVmrBq2yYIIhEKRAuAT6rovfo5WaUZxlhNFthnWnG/7F3nYFRFWv72d5303shCSSEEmoACSBFVKqidFARBBRBwX7vtTcUO9gFQUUFQRABFZAqIDUQCISEFNJITzbJ9nL2+2ZONtlNT0j8vJ9nfijZnZkz5z2z85y3Pa/N0w4myQRJpgr8EtaU5SC+jkUnMe9rXzj4bE118nZOikDUf3F3LUrlBJHhsVXwU9uwO9ETBgvgpRThqycHU5+IqyZCrkXm9dCXYf6J9yC1GCmzL+F6KtCEULNLRzeSyT3j7FrKImwUyfDV4EdQog5o8jLOZD3qq/GMxKZBi+kanY1SwQ8rQ7GWjwdn344SrR3aA09AoTyI3UcqkV1ow4NTPWGzREDSbR1CevnhUGI29p5L+8tCfJuTIQn/HZG2p9ZHku7Tnfqj7juxBj76YuojIeG/7amQGBVgxmv3xUEh98XJE1cRWDIPxdoybN5bjT4xIgzv64FK80PodddiGhn39c+HILCYOMd6R296bj4qAbGAh68m9YGir5yyn3d26xzHemevuhXzEz4umYzlbLKaM+Cw68E4bLBZUqDQ3A0eXwrGYISh6DfMWe9NcwjoYV8zd5CnDTOGliPUx4z8cjFEQqB/t0BIa3wixJxForpmDSuHv9qOahMP2SUKzBs3AgxkDUGkBkhURi3uOb0GHoYKWPli5Hi5U5+wwbjNNxr967Dimlc3nIwYCZug8ciq0PIs3H1uQy3Vyvfxi5DrFdno5ATkxlzZiZuoZkQy7Hvjp75zYRWK2aABUh53WCmEfBn6D7wJVWlHodQ+jgdfy8O+k5W0lriXSoBfP+wKgcf98Bj4MATCCny24wqS2lljvRWPuU1deA4GhLTRlSKFFLaalPRdrY9kV++ZlH25tS3IS4ZV94VAqRSiXKeBbvd9SNOexKx/Z0NnsMNud+CJewKx5O4waEN+RJ/+wdj/x3HkFVTSjPWWnnVr18H14yTglAABkS8e7Qev/+YQ37/D43QFkdr1OACj7iCkymHg8USw66phuL4fczZ6u1WYo+kZdvbnvWJiMd7f7QcfDR8fLqyLzqrWmanGMnlgBcw2PsK9LYgNMSI0KB58UdcGIOIEKDKr3KzD/OPvUR8JrYBXE8YLvgM8UlmxtnNdeC/5Dowz46MO7I5GjqEV/hi+exEk5z2HlF/DzLNfUKoVk1CCb+OX4LpnWJNAQjSSgbnHqOZEIpq2DphPQco1OutwpgpPhu8DX7iJ0p7YamRFJv3w0VCMi0/Ao2kPU8e6t9KOpE5i8W3vPqvvIznW7VZMO7OWUqSQZ0F8JBdCW65HEuApxav39oKv2gC7g8GpA6UIY6bhtiXpSLnmHm2X/F0s1J4vI/T2qTRjPStXiy2cT6S9j5Ab14wEiDlr/ZQ+UMf9N4f4/g0esSuIWIwp4Al8wFgzwONJIZaz9OCMVovX1qTilM1au2JyqD8wugRfHGB9CA+NLcHQGB39t1I9AkJnxnq1CdOHaTE2rgo7z3hgT5IaSqkE659o3JzlxAWSNEgS/iRWE+66sBE2YlNrRwvVZlFWYNLOhg7FL72nNTmLl74Ui46ugshupYmNhGqlSt44wycBj/EXf0D/vBN0vkJlIL4c9hhUFgkmJpSgoFyMI1dFWB5+FCLxd5T2hNDAO9uqR4IwZdAQrEhb8X8endWUQAhMj7zyi1v478/978Hig69DadXBDj62970XKc1USCRlnVxh8S4AACAASURBVD9f1g++HhIwtnJ8tDsLpecqMD9+OSYtz8TFdHcz7bnvusPH+z+13FnXcrWcOasd+54b0rIE/l/4RFq+zc7v4QoihspdEMl6wGa+DsaWD7lmMnh8GaB34JMNRxE3tMjNB+KrtuGpjcE0aZD41z3kNngoJVi9hC3j6wzx9ZDZEORjhY24NHg8qKXAc3OHgYGkUU2kI+9aZLNgWuKXiCpNpaa488GD8GvvabVmufrX8q+8jtlnPoXSXE1DjTcOWoICj9BGl0SA5JaUn2trdaT7xGB/j4UYN6oafKsSveP7w3b1LMTVS/HM6kJs3V9O5wnxE+PXD6NglT4ARb+FkAn1+GT3xb+FT6T+jdankSc+kt96TcO0M+vgr7sOO4+PXb1mNFrYykslxpvz4xDgJQXDOPDTHydw5JIRxddleCV6LQqsf2DqU9dQVG6lpANvLAvF9DF+KA3ehf79A7D32HEUcSy+Hflz4OZykcD/jzyRv8EjdddEkmG1XIVENgR223VIZH0BHmv+eWrteRhNZdQT4fSHTB2ipXTxJHxrWHQVeoSZIBfzMLSnPx2z5DM+yrQWLJ9UBLOVD52JTxMOfVQMBscGQCQb0ukgQtZBDvvpZ79EdHEyXf2fEaNwKGZck/kmYeWZuPvcVyzVilCCTQMWNlmyl/WR/Iybstgciyz/3sC9t6PApsKSabdBZ7Ai5+Bb8BJtwelLOlQZGIyOV8BgGAjPAe/BP9ITW49fxLmUwk4FEQ+ZHbf0qUKAxgrCkUZAnw075lNf1r4LqlrG5sa2JTFtOX0kKf5xONr1Vky6QGjkr1PT1o6+c5AcNIAOJfsj0EuKF+b2RJC3jAZQbDyYh7MpafTLnBIx+jImzOv3GqosRTieZESIvwC9u8pQ5XgZvSbcBTvD4KufD0Ns5Rzrf4Nj4v/lEjhNpIMea32fCKmaSHmmao8DBjDzsOLts8i0utuvI/1NtIwunxykcTr8fkEJHw8pvnyMtZM7o7MeHFuEY6kqJNUUXRoWY8Cjd3hCJBv4l4CIE0hmnvkCXUtS6NqOR4zCwe4Tm9RIArV5tEAWoVohQPLV4GUo0gQ3qZGMS95aY9riwRwejsTb7kX/wYMworcvzDYHLu/8Ex7Cb+DgmWDXj4TH6Knw9VUgu1iPd344DaXM2mkgIhEyeGXmdazf742U69I6bjESeMBjMDjagEn9tXhxSxD1WzXVSD0SZ0IiAZJ9sZPx0B9vUvMf+XvrgPvpUE+lAG/M70sBhETybdiXgW3HCuGabEj6BVULcU/s71CqzkNs90dZwArcNDKKAtyGfddQWpCKIDlHe9JBP3VumnoS4ECkg7aEK4iYqg/BbifaBtuE4gjw+CKIrT2xddsRDBx5ndVCakKj0gsl+GC3H3W29woxIjrYjCNX/LFueT/w+cI6Aka1Dc/eVYDsEjYUNsLfgvDQu+CA+C8DEXo/ditmnv4CEeVXqUZyLmQwdsfNaFKSnvpSPHDsXUhtRpiEMnyR8AS0Cq8mgYQSGuYcBcPjocIjCF8lrMC0W7phypAA8AV8CiYkGkAsZM1/iVfLsWprGjzlhk5NNozvakCYl4UyKDsbeVGgRJMkXJtUrhxcQelsTmcoG024JOMIRcqI1D0YnrmPTrMn9g5El6QgvPQqpUXZ1vdeWjPmk2X9awAEWLMzEwfO5sMOXgMQYeckVTHFeHdxH3gQv4mDweqdWTh8rhAJEdVcnkgH/c65aRpKgIb43tkXit4yLsT3RjaIK4g4HCY4GCulKuRRMxYxP/HB04lw5tg+HK2y41qZBC9Ny6fZ7PcML8c7u1jT1VOTC5F6XQZflQ23DfSFVFlDe2KwwsEwUEgdlBaFNINFjo+XDW00T+RG7qU1Y4V2G6Ymrke3kstUC0kMuQl7e06BvYmoreCKbOpTIZUWW6Kjd/OR8BxI8+mJn/rfh7FDwrF4YpTb8g4mleDjn6/CZGM63bE+plc1SqqEVNNpLFSWgEi/SD0UEgZ/pDRfAEpqNeDhQ69BbjVgf8xEdCm7Sv1Nl4L64/DwB/DG/N7UB0JMWGt/ScdvpwthqzGA1tdEiEBIXtGzs2IRGchGyLzzYyoOXyihtrZhUXqOgLE1m5rr0y4J0BDfR/rCy+OvKcfxj8gTsdlKYTVdgsNhg1AYBLGsO6t2VDM4enA/dhcDafkS3DlYi20nPHH/6DKs/d2bPsDnphUirUCGPuEGdA0Jh1QxmHWskxBf8tpdY4Qnh1hzyYbt2g1tHEQO+2lnv0RMcTIdeawm/LcpIAktz8S0xPU0youE/24a2HQeCckTWVS1EZKzZ0BMg5kBvTDk43cQEequweiMVry7PR1nUssQ7EU4x+ydY85yOHBTjB5qOYM959VNSmpC/yqUVQtw4mrzPyiJ3YylB1+F3KLD3tg7EVWSQkEku+sgJHz4dq0P5Jvfr2H7sXxKo+9s9UHEQyHGK/f2QJeAuhDLQ0lFWL8vBxU6C4Z1qUYgZ85q4+7murdWAs56IqoRTf8uWjtXa/r9I0CERGdJlaPBF8ig126FXD0ePL4C0DF4dGUickUGGmpbR7/Oio7PMIgJtUAps8NLwcfDU0ZTTYb4RCoNFqf1i+3L48FDIWwyY701D6Mj+hAgmX3qU0SWpdHpToUPp5nxxDTXWPOpLsKiY2+DRCsRjYSYthqjSCEgMn50GZSfbYZfXirNbJHFxaD76s9wpdCM8mobBneTQyIjWbLAhztScelafueBCPFRKOx4Y04unt0UgjKd0K1MLyHaJGwCz0/Np9T/Tq60pmQstpmx7FBDEPGZMA6RL75M98bnu1Ox+3RpA7OYK4ho5CJ8vGwgGJsZ5zOM8PUUIDpYBZFIgOtlBiz7+DwGhVZxPpGO2OzcHA0kQMy5hIt7Q0JPqMY2Hsbf0WL7R4CIUX8ccJjB40lgs+RC4TGVNWuZHPjqx6PoN+C6W5r4tRIJ1h7wpYeFSmxHqJ8FvioHlk5SQSSJxH3vZlMCRtdGHp7n3wBEyJrENgumn1lLfSTEj5EUPAi7e0+nJXsba966Ysz7czUtI0t8JF8NWYZidaBbV2dlQ8KdNaYgGcZtmwE1A80iL0jl5RAIGFjNnqhyPIPYyWNptNvK7w7BbO0kTaRmdSQc++5BFYjwN7vViBEJgMt5cuw4o24RQFiZNQSRyNI0eI+7BZEvvob3tqfiaHIZbExDw5kTRAwWDZ6Z2h32c+9DwuyDQKwFGAkM9u6QR7+L0Fgf5Jfo8cPeY/AR2bk8kY4+zbj5qATEPB4HIh2xF9x9Ig7YrQU0N1wg9AKPX1fx6/HPz8FgrEB8Vz1G96rG5Rwp9lzQILNITKO5CI38leukaiEfkwYyEEki8NAnehRXWqGR22G18mC08UFKpIb6OPDY9DG09G597qyOuKe2zOEW/svj4WT4CBzoPrHp8N+yTNx9fgPNIyEJiZsGuof/Oll8bUYFZk69GdlrVsMesRaJl034fFsJyisZTBmtxj3j/WDyXI3uw0agoKQca3aexcWa6LW2rL+1fZ36lVJqp3VgnK2sWgiTpcbc2IrJXEHk7OAZGI506E4mwvvWW7B/6ALsOVkIG69xkhJKwKiRYPYtfaE9+jP8lW/gnW+KcPCMHkF+Ary0OBBq8TBobv0MAZ4C/PT7UVSXc+VxW/FYuC7tkICYRAEm9OI0kXbIzm2IK4jYLFlgGB0YO5uZLlUQtlYe1URWvHMWRQI9np9agMxCCX4644FCrYiUQ6d270FRepzKUMBHLcLnS32pJuIsj/vQrSU4ekWJggoRHhlfDJ1JgEHdoyGU9vo/BxFynyyQrEN08SV638ciRtMKf01TpGRh1tkvILUaafjvt/EPId8znI51aiL+Gh8MHz4EJ/Z9CaX2bYx58CrKtHbqcCY08DvfjkJIyDjETVsNxlaJFzeexLkm6tff6DPuyPF1IKJHwIOLoEs+i6qjZ3G16wBs7zYX1iYAhKyhTziDZ2fHIr9UAXHiGHy8PQtvfV0Ee43jJK6rCjveDYNOtg69bhlMaU8ycrXYlqxs0szYkffGzfXPkgAX4ttBz9s9T4ShUTEO2GHQbodcM5H1iVQzeH/tnxgwogh8voM6gj0UVpxMU+LDPX50JTOGlGPCQMIMzINKMxJCcUgtiDw+qRBb/vRGiJcZ5XoRxAIGz82QQyQf+rcAEbJ+4tchPhJi2iItMWRIC+G/ZVh8lM2RIBrJZ8OfRqXcsxZEwgMCED9wIM5tfRZG3RYMm5/mlu3/7/n+mH/bMERN3/pfCSJSix5dVixH+emj0B09g+Sgftje9x7q82IaqclCstfXPhJFEBvXUyvAy5mCIfeloaC0jkqHAvj6aIQGPYfQW+dSEOFoTzroh85N00ACIiEfGxb0hjqo+YjEjhLdP8InYjGeB2OroHZ6m60MCo8p4PGEFET+/c4ZGPyq4CBvjcRawefBaOWjsEJE/3x8YhESs+QI97FjfLzGrTxuXIgR0xPKUWkU4sNffNAzzIJ/zwgDXxz9twERslFEdgumnl2PrqVXaPhvUnA8fuk1rUmNJKAyH7NPfwaFpbpGI1kCvSwCk4eVItTPD4MHD8ap376AuPwdyp1VbWBfuYlDffPKSPSIGoOeUz+nIPLCN6dx/pq0o/ar2zyRfhbMH11S+5lr7IDref/NEW+kXm9+DRqBDUsOvAqBvhJBjyxH0va98MtNwaWgftjW9x5q2qxf2IsQML44tycCPYw0fPxajgiilFF47ctsfL6tLi8pzE+BA1+EwyJbjdixY3D4xJ/IyeG4szplU3CTUip4LsS3AzaCqyZCTFkOhjjW+eDxVSyAkPa/ledWfnwSym4EYOpaebUAZzMVFERmDi3H4csqPDu1CP5eMZAo+tVqIsQeLxAQu5eDmiVIYaLPHxn4t/CJ1BchDf9NXI+Yoos1FCkjqWnLXq/4lHNcWFkGS5FSAyS/9lmM/hM8oLPzMe/OCchJzYTjyhwcOl+IT7aWQFvN4I6b1Xhoug908nfRa9StKK4swAdbk3Ghk1h8yT01FnVGKlEO616NwV31OJaqpKwCTtNSY1vLVyPGU5PDYVhyLywVFUgbMQuiy2cRWZMnQjSR+o1QwP9nVizC/OSUgJHVc72Q/NN6eMvew2vrCqlPJMRPgJXLguCtiIc44UuEB4rx0+/HUF1exTnWO+B3zk3RUALUJzIqDqqbuRDfG9of9c1ZJEeExxPDwRhY8sWaPJEn3zwDaZQWPmobEqJ12HHGAxP6VeK17Wx0krO+h2tRqjk1NdYj/My0RK6zkTdhP59+EIhj/1aaSO36HA7MOLOWJiSSdqLLzdgfO7kZipTcGooUCw3/zbtvLgplEZgzZRR81BIcPXwFIVXLIRQWg8ezw2pRosL0DGKnTKC17F/46gx4Di0u5NQFMtzQQ21hMJ/nQKCnFQ/eUoKkHDm2nvBs8XIKiQBvPtAHIQoHkqZMga2iojZPJKI0DZdrzFmuE5F7f3dxX3gqSTAlKIgQcxZf4I1qrRmF+1+CRHIIfKEODrsIZiYY/PAvEBnnj7IqE77eeYSLzmrxyXAd2isBjoCxvZKrN84tOsuug9mYCIliCAyVOyAnRalIuKvZgeXvJiLTZESolxlTh2rx7i5/PD25AG/+7B7i2hiIxIUbqNnLmYNADpUvVtz0f5Kx3lqxUYqUM18gooylSCGmrZ19ZjU5nFRjXHjsHUqRwkikOHX3UjDhffHond0AHh8mnR7XirWoMtjQO0QFidoDAgEfe84WYsfRFHgqbZ2mibgu2lNmx8PjilBWLcL3x7yhNTRPsU/MU+QF4f2H+iHCXw6rTo+Ld7UMIsSE9c6ivlDL6wqBuYIIWROhgdFXlCOtsBpqmQjhAV5QKKXQG+1Y8uEp9PSr4jLWW7thuX5tlgDnWG+zyBofUJ+A0VC9HxJpL9hsxZDIetcOeuzT87haoAMxgSy9rRjeKhuOpyqx+5zGbWK38rirTtE8kUg/M2KCzbQfMZdo9VL8a2YP8AT+f0tNxHlDJLFwauIGGrXFUqQMwd6ed7VIkULYf20iEb7r/yAkvfvg8anRCPZmq0c6m8HC4OOfU3HkQimCva2dmmxIrikVMZg2uAJeajt+PadBWgF5D2u5eciFeOX+OHTxk8Nqd+CzbZfQ84NHaMGwfbF30Iz1+uasEB9iwuoB8n/X5jRnCYQsy0Fj7cSVcqz7LQOFFWYMj9BxGestPyKuRzslwGki7RRc/WH1QcRivAirJZ3NVufVHDR6B5a/eRaZPBO1adfVC2y4iMZApKu/GdFBJhqdZLHxUG0S418zYsETBv2tQYTcnauPhPx9vCb8tymKlK4lmZidvA4Oo6GWRr7bmKFYPsW9vO+eM4X4/LcsWKz2TufOItF0L0wrgNnCw8mMpmlN9p3XoKiqTnMgGuOzc3oiOkgJ6/9yfK39LRP7j2dhyeHXKQXMPhfak+Sg/jQ6y08jwWvzWP6s+q2+JtLYFv73lxdxMbuSaj/DInWcJtJBv3NumoYS4DSRDtoV9UHEbiuDWf8n5JrxlICRtmoGy1cmIkNURwXfVI3zxkBEwHegT6gR3mobTqbKIRTL/s9pT9oiPgIks059hqiyVDrsdFgC9vS8u1FnNckTmRJ1GUGbvwevqhICpQwxG76GKrwLpRth4ICQz6b+nUotwxubU+GvMXW6JtKW+yV9hQIe3l4Qh6hgFQX/d7ddwaELpY1mrLMEjP1wZMRCfP7oAJDQycZaYyBCXknsdlqShgT8wW5nsHJzKk6nlWMYx+Lb1sfG9W+DBERCHjYsjIM6gAvxbYPYGnZtvMa6vbYYVVMg0tRFGwOR+24uQ0W1EFeLJFg8tgTv7grHR/9HLL7tFRapkEgSEgnXFqFIuRA0ELviZjagSCEgMnlEGcpSy9F9+zrITAYI1UpIFjwFucd+2PjVEBpHwWvM3fBQi3DpWiU+2ZkItdzWOQSM9W64KfB37UZAgABIZJASNjuDd7ZewfGUCpr/0RR3VkHPoRi+5i2QfJCmWn0QuZxnheTMRjCyoxDY/FGsWYjBCRH0mm9vT4fAkMlpIu3dsNy4FiVAQny/fLAPNH5cjfUWhdVch0ZBpP6ARjSRtoAIyVL/NVGDjCIJ3p+Xg9W/huO9hxL+1o71xu7Plf2XhMyeChuO/bGT3MJ/nRnrBeUCzOoRiNwX/g1eXB48ExgkpZlQXsVgVLwc+urR8B36CnzDNNh6KBnnMgtwoRNpT8j9NAUghAald6gJ18sJBYoCT83oAV+lAxKZEp/9kon954trcz8a585Khfe4sYh66XWaA9MaELlytRDS5PnQWbNw4qIJ4UFCRAd7QC9+GbG3jaPlAzbsOASRzYwfkpVscg3XOAl0oAQ42pMOEmangsibp1BttMJHZYGd4aFcJ0TvMCOuV3pi/WMD/+tAhB7E9WjkaYXEmAm1CYlOEJEIhJh4+63IPbIPDv3jeO6jImzayybWBfmK8cvqSNg0yxA39iGabPjc16c6HUScW4aYjUhgRBdfMyYOqASpfHguU46cIjUSuooQ1SUc6ZnXkFTuhwOJRVTzcrb6INKrIgUBhWnwnXAbIl98pbZ0cmPb06mJGKyeKPz+Eehk+zFhWSbKq6yw2oCPngnF7fEhqOz+C+K6a7Dvj+MoLKjk8kQ66LfOTeMuAc4n0kE7olUgYgeWf3QOGWX6Fq9aP8RXV22CQgFMH1wOhYzBqXQF0go8/qt8IvVvmlCkzDr9WS2NPKmQSExbpDlBJNw/APHxA3Fm66tgjBsp7YmVVDasaeue6IIR/RPQddbGv4z2hFCSjOlVicnxlTTRc+ufHhjcTY93dwXQv99dFAdLZR4y0tPxZ3EQLuWxwRCuzRVEkhJmYWDhGVgyrkLatx/6fPF5s/vDCSIZ6SbIssZh8vIMnEs11I4hnGIp3/eAVPUKwsZNwR/H/8S1PC5jvcUfHdehXRLgQKRdYms4qDEQcTDGmkTDmv7/G5a7/JNzyChuGUR8lCJ8NDOAekoXfZ2NShPw8G3FyC0XY2zvKhAn+7s/B+G1O7tSTeTxH/JRUFXHKttBt9Xp0xDOrLtphcQUliIlaCB+6T0daosYkxJKEREUSLmzzm55ERb99xjxwFXY7HUn8mtLAjHj5qF/CXcWCbGeP6oUlQYRjlxWIKtYjOIqIURC4NHxRfh0TxAN45XYK6Ct0uPncyaomQLsz1TC7nA3IxEQefjQq1BY9AhZthQ8jRI5r75BQzC8bx+DyJdeA494yRtpThDJuVwFQd5kjH0oHanZdcEaZMjpb2IQ4PcsQmq4s7Jytdhy6a9xfHb6puEu8LeSAAciHfQ4GkRnWQtg0v8JheaOOud6NYMVKxOR7hKd1dTl/dRCfDQ9kILIAxsLaFEqUkb3TKYc991cCg+FHa9vj8A7U0Jgt9nw2E/FuF5h66C7+WunIaYtUmq3O6VIIZntI3G+y2SMG6GFr8IbI0cPRfLRXyEufhz3v5iLPy/q6AK91EL8srorJJ4z0WfSC3DYK/H8NyeRdK1zMtZlYgZDuurRP0oPu52P5FwpLuVIUWkU4cmJpZB7jkGPMDVMFjs+Jz6QxEJ4KewoMwgblNN1aiKEgDF8xXIEzJyJrNdeQcnPu6jXxW/KJIQ//iT4kqZDfIu0ahgPzMDp9HNY+FouqvV26vJYMDkAzz8QjHKv79BnaDQOHjuOnPxKbOVA5K/d2P+Qq9F6Ijf3gmqUe65bZ93+P4KAkQjPpD8NhimDVDEMfH5N1EIbQMTVnDX/nVMoqaorSuUpZ2CxOyAVSbD+sXj6Bv9/XU/kRjcMARJXipSLETdDPSsB+VYplk29HYVlRhiPPAiR9Bx2HKxE1nUbls/xgt3uBWHYDwjrG4AjV1Kw93gekjrbse4glCPA0BgdpsRroTUI0auLB33WdocU7267iqMXi2ifCd0q8UuaGnYI3AgVAxTA/b+9BGG1FmErViBg9mwqwsxXXqZAQsA0cMZ0hDzyKARilu7E2Vyjs44eP4PQ0iUorKjE17uqMLCnGKPj1dDqF6L3tEcoy+d3u4/AYTBwPpEb3aTc+EYlQKIQ1y6Ng5cnF511Q1ukviZirP4dIll/WE1pkCmHsHO3E0Sc9UTqL1AtZrBmhB2ahJF4eM0Z5Jez2ez/rY1QpBAgIeG/JGpL37sPLgy/G2Nuvgm9IzTQVplxdccO+Mk2gC8tha54MpQjFyIkwh8VOjNe/uYE5BJLp4f4EgoTluofEPxvmeL3H+yOYI8qWCwpMBpNeHGTB7LL2RBdgYOhIO/qEgn3k+H1WV2RPnMqbBVa+M6chojHn6L9GbMF2WveRdHmbdS05TNxAiJfeKFJEGEYB85dKYDi1IdQ+O4Bow9FhmwFho4eAqlCgl2nCnH58nkuY/2/9UfxX7BuSgW/KA5qfw5EbuhxNeDOMqdCIusLY/VvkKluq6WCb605i9RY/3RuGKSB/rjnrXOo0pndkvLIm7unSozVw01QDhrxX6+JOIUvYOy4O3EDYoqT6eGbFx2PvX1n4/4J3XFTrBd9m9caHDBbHfBT88Dn85FbYsB729NgNJb/JcmGRPbEbqSSC/Hc7Fh0D9XAZGHw+a5LCJNm4MJ1GXwkNuisAihEduzPVMPKsD6RmBAVnp7eHT5KIZKmT4c5Jxd8qRihKx5BwJ3TKbGiTW9C9up3ULp9B+Vc854yBZFPPQGegM2CbyzZ0GJjUK5zgCgtXgqi9QC7TuZj3Z5MJHTRI0Dm4DSRG/qFc4ObkgBXHreD9oYTRMghR99Ua5rDYQWPV2OO0DFY/kYiMgTuTtDGluApd+DD2+SAWIKluw2o0DWssa6R2rB6mA3qoaP/34AIkUWtj6T4IsB34M/Q0TjWcyLuH9cN4wa7E1VezqnGyk2XodVbO532xPU5EULEJ6dGo2+UF8xWBh/9nI7TVwoxNERPQ33TyyW4UiLBHbGV2J+lQrVZgDAfGV6Z17s2kdBEaOAfXgzj1SzwBGJ0ef5f8Lt9Ir1n4he5/MQKVB8+Dh4Y+C24H2ELHgBfJG4UROrvoY92ZuC3M6REMzjurA76jXPTNC4BzrHeQTuDgIhEbINJfwAy1QRil4CR+EXs16HwmFULLMs/PY+MAtYx3FQjh6i/pwifPRqPyvOJWPa7gxIwhnhakFchpiSAhBNWJhZh9Qhzk5oIqQOuFDEorHa3qZPrjojVIT7KgBPpchy7okSfcAOSshs6pH0UVljtfFSaBB0kqdZNQ0J8H818H8y1TGoKSgwbipvfeRk9urg774gZ68l1l1BUbuh0EFGI7RjQlQ2lnTYoEMHBHmDsZuw+UYiMYgPEPAcIXf/m456oMgupk3tKjBZ7M1XwVCmwZukACGqoWpxSYPQWnJ89BbbrxfSj8Of/Df9JU2qFlLxiOQxHj9G//ebOQ/gjS+CwV9RSwTclzc1/5OO7A9do4bOhXaoRJOc0kdbtPK5XWyXAgUhbJdZEf1YTkcJmLaacWYAVQklviKVRdZoICfH9+BwySpoP8SW2cI3MgdWjeBColViy04IqgxX9I3Q4k6mAh9xO8xGEAik1ZykGJuDhj5Nwvczotjp/Dxt8VVYk57qzwJKDTi5mcClPBrHIAYuVB7mEgcHcMKS0R4gRlQYh8ssbAlEHia7RaQiITEgohNcnX8OjNA8QCuE5/lZ0/ffzyChxoEpvR1y4EEKhADqjDW9vTUFReUmnmrPkEge6+FrxzPTuUCtEICaklzdegNnKA8lWnzOsHEVaET7b7wetnk9BxFtihZePF16Y0wNqeSMyJGSaJWVInj8btqJy8CRihCx9GIEzWUe7zWBAyvPPwXj4CI3U85s7A2EPzWsAIjozgyu5NnipeYjwFdKXjMT0crz0bQoSulRzPpHO3Kz/8Lk5EOmgDeDmE3EwsNsKYbcW0KJUEsUwVhNpi2NdzMdH1AXJwgAAIABJREFU94ZBGuyDe966gCqDBXcNrkCBVgQx34Hz2XLEBpvw5LQYMIwZT60rRV65HQOijDSHJL1QQrOpewQbse+iBlp9nSZBzC0JMXpoDQKcvyYD4+Chf4SBluVdMLoMl/MkNIT4t/MaxAYbIRc74Kmw4fdkdYOkuQ4SX4NpnMmGeaVCDD2zBzh5FDwFIL2vP9Sel8EXmmHSdYcj9HFEDImD0WzDG98dBXidx52lUQjxr+nd0bOLB/WBfLQzHceSi3Br3yoqpwPJapzPkiFIZUVPPxPyK4UQKHzx6N09QKLtmmvm8gqkLn0IpqsZ4InFCHn8MQTeeTfl7rSbzLjyr2egP3qUAonPrGkIXTIPIrEPTCY70k/ugKzoB4gVV+GwqlHKux3h8UvgHaTCsUslOJmYCF8Jw/lEOmuz/sPnpbQnI+OgGslVNryhreAGIowJDFNNwyt5PCn4ghrhtgFEvGQM3rnJCnVsD8xfn0tBZECkvlYTIY7Tm2L0WHh7NOyMAU9/XY0qnQ2je1VBJnbgVIYcFToBfNW2BpqI80Y95TZMHliNr494Ir6rnmbBzxtZhg2HvDGomx6nrioovcrNMTp8uM/3huTT1sGUgHFYGap0Itw/fSzS//UUmCG/oErHYN1P5cgttGHpLC/07KKB1edrdL2pJ65ml2L9/nO42AkhvkqpEM/MiEGfSE+qgXy0IxVFFXmYO7yc1oPZdUZNAx+ILkfyCtViO0ZFVCPYU4jRo0dDLG6aUNEpG3u1GZcW30eBhLSw555CwMRptSTQKUseRvXpU/S7wEeWImjWHJzY+wdCHctx4LQW3/1ahd7dxHhgijfs5jvQ5a7XoZDysPW3P2Cq0mFLsrJRxuS2PhuuPycBVwnQEN9lfeDl0XR5hI6U2D8iT8RQvRd8noZqI3CYINdMAo8vr9FEziFd5G52akzA5M113YqBVIOZW8OdRcxZZzPk0CgYas4iB/0jd90GxsHmiQR7lCIlTw6dmYcofzOtgBgdaMbxNPeHS+YkNOo2hsGKCcV4f7cvBkYZakHk60PeGFgDIsScpZIx8JAx2HdeQanGCRW7XM6HruX4gHbvHacm4qP0xsiRN+Hk/u+hqXwVty9NR36xlWatE5r1PR91g6f3ZPSb+hZLe/LNSZzrhGTDdxbGITpEDRJS+8amMxjXJwvZJRJ8dcQLNkoUwAIIsWHF+hgxJNSIhKFD4O3tTbPVCfA01/h2Kx1r0emRsfAB2PJz6d++y5YieOZsNrrLbkf2I0ugS0piiRSH3gr/0b/j56P5eOzd/NpM/lH9PbH+5WBUyL9D31G9OdqTdu9CbmBrJEBZfGf2hSaaA5HWyKvJPq6aiL5yJ2SqkTBU7QcYIxQek8HjK1plzhIxPAgcPHgqhPh8RTy93oIPz6Ci0gK1zA69UQiewEEdpj5eIqxZEAG7w44n1l5HcZUBEb4W6oguKhehysxH9wALciqEMJoF8FCKcPeUaET4SXD4cDIy86ug1qgwdWIfXC+qxsZfcqCyVyFHK4S3jEGZkQ+VhMGIYaGI7y5HRYWVhtiSsNOQUB+UVllx+lwpDp/Ih4nf/CHZVuHWcmcFBLC0J9tegKV6E+XOIiDmbK8uDsLMUQmImvFDp3BnySUCvHJvTwogVosJ+UXHYTYV4bcLGuSUstoFG4tH8kbYfwkEXvjXjB5QKyR4Y9MlOPT5OJUrd9cCnGRajbDqKszVuP/sx/DUFsLGF+Jw19twMmoM7DwepFYjZp/6FMFVOeDLJfB/uhLDF6Qhu8A9eu/UhhgEBLyA0Ntm4Y8//0RmrpbLWG/rJuT6t0oCXIhvq8TUcidXEGEYHXgQsD4RBwORtCs7gY7BijfOIl3gnhTYq9qMQSXXEFyUAr6pEDyhpxvduBvrkgsPOZvARlyoNalstR1rqiY6iyfWfO085NhRdelvzn/VDq+5hmv/xiVAAIXkLejAl8XgpK83LgX2QLasHttgy+Jz60EurzEJMGlYKcL9/TF40CCc/vkD8Ko+wc0Lr8JgYlGEXHvts+FIiLsZMVO/oiDywjenqJ+nI5qHQkTDeOMiPakPZOuRZCiEmbVTu5Eq1sgsJswTXUN6wubwxGe7M3DsUiFuCtXj8LW28VaRuitzznyK0PIsMDwB9sTegcTwBJo7E+ljxLhj66EsLUaXJ4qw9I1c7DhcWbsuL5UEx9ZHQqR+A1FjJ+PwiT+Rk8MRMHbEnuDmaCgBzrHeQbvCDUTsJjD2QgiEJKeBcSNhrB/iO7REgLEXPwBjYu3grq3uKGaPfOcbr/Owdz386wOBE2DqPmdnIDPVL8zbsC9ZBQsh5LuG4MPOwwYa172B83gCVASPxbext0J7A8FcxNzmYeBh8ohyIj5MnTwROReS4ciZi692luKDzUWwWh2I7ynHuufDUCH+N/rdOhtGUxle/e4cLmQ35Jtq62OWigV4fnYsekd4UDPRW1vTcCKllBaUaqqeSISfDG8t6kdl9umudFo/RCxgsCBBivFjBrV1CWB0ZlxcPB/mtDQ6NmD5YwibNRMMU0GlT4AqfdPrUHptxoxnruFShglKOR9fvxKObgFRqO61Hb27yfDroeMoLeao4Nv8ALgBrZIAV2O9VWJquZMriBirfoNAHAKbhURnVbJ11olPxOrA8g/OIaOazTUQ2/l46vA7cJhyay/gSpDh+j7PHlx1/3U95imoCBwQ9h8E9fhxMPy8A8ZzSezbes3M9QHH+TkBAnJNMrcTYNghLHCx3zk/YUHFCUZOEHFexwk4Zu8xWB0/CZYbMHERc9bEhFIUlIvwwPRbIBHz8cdvh9GN9zh0JjOlg9co+SgtfRjd7noAKqUQb24+hyp9WYfQnjh9IFa7Ay9tTMGFrHIamUZo4IlJr76uFRuqwsv39gIBn9c3XcKJK1rab/zgQAwJqka/vn1b3kSN9LBpq3Dh/nmw5eUCIj787l2AsAem1ob4FhRVw3BwCQTKc6jUM5CKeZAJ5TB4b0T3oTEwW2z4fNtBePBtXHRWu54AN6glCXCaSEsSauX37j6RXRBLY2ExJtKDR0Ed61K3GutCBw83m7wx5NA8wMHUHtaupquGIOJcTMMDXxYRgT3de2Djpk34aMNaqNeuhfHipRpdou6Yd75FN7yOU9tx1X9c9ZGmKvq5r4WCkcgHa0b/C5WC9lfRcw3xVQfG4P5bu9BQ5JK0HFTpL8BkMyBQEQ1lVC/IZAIcvVSG7/dfhEZxYyG+JBP9+Tk9EBNC2HgZfPDTVRom25yBjvB6PTm1O4j/5N1tabicVYihYXp4y/joGR2O2NjulJ6lvc2ur0LyoiUwp6WCJxbC7/6ZCL5vNoQiNmKusMIOR/4pFOvzIBMoIfUZjJAwDxgtDF7+NhnewkKuPG57hc+Na1ECBETWT4yDekDbTLYtTtxEh39EdJbFeAE2WznVAkTiMAglkaw4XMrjku9eOH0S9pLNte/69Q92p3ZQX/9wly17+CtGJGBNeRnWf7MRmz/4FN2vXUX1kYNADWdTnS7hqmfUmaqcZqk67aNuNXWmK+eV6wxcTs2kbk0OOHgC7BryBi54idyYa9uyadgQ31Lkl4mwP0uJoT18sWxSFJRylj/K2YimsOVILr4/lHPDGesaQmUyjQ3jJVQma3ZcxeGLJc0uOyJQiVfm9oBIJMDnu9NxIKkEQ4P0iIoKxNQxvXHg4AHcNOQmyOU3Rk9PatNcfmg59ImJFM1DlixD4D1zwRM0Dk7ZxQZ88FM6MvKrkBCp40CkLZuP69smCXAhvm0SV9Od3Vl8GcryWtt4NYl+9UDk+eO/gtHurfU7uHO9Um9Krampvk+ENSWRxh7o5O/grzZA5CEH7ELkzr8fjLbSzRTlrlewmkX9edgZ6yCnoQnNHY5c/Sm16+EJsD3hbVzSsKaf9jRXTWR/poJ60aODVXhnUR+36b75PRs/HsmGnUSMeVnanbFO6EhW3t8LsWEaGj79wtdJSMqsblYD6RKgwOoH+1E/yfvb0nAkmfWZjI224qZuCvj6BeBKagpuGT0GQlK56gYbAZIL9y+G+XIKnSlo8VIEzZ8LPuGcr9cefP8MCipMxKWEEZE6joDxBmXPDW9aAtScdUsclEMVNHKzs9s/QhMxGy6BsZeAcRjgsOug8JjCUp+4gAgR9EtnL8BWtL5JmTt9Ds7D3um7aMxXQSbhK1QQ+PnAVlgExsj6XVy1GFeNwhmd1RgYuV7HFajqtA53aHHXVAjDrRg7E95Ckrr9Yb/OZMP8MiH2ZykwsrcvHprUjZqMXJvNzmD3yQKs23sNwZ7mdoGIRMTHynm90C1EDYuVwYvfXMDlbB2aqxPZ63+THP8zMxZKmRCvfXcJJ1OJsxu4KyEIM28Og9moA8MwkEqlN6yF1N6vA7BX6XBx6WJYrqSBJ+TDZ8Z0dHn0MTfST9K/RGvCGz+kIi2/GsM5TaSzz7V/9PxciG8HPf7Ga6w7YKj6BTLlGNYnYnBgxVuJSGfYZMOWQMT5Du80HvF4DsIU3uDt2NV53lTkkCucOLWa+hoH+3nNpy5hvq7Odae4atfktpoa/whPjN8S3sKZdoKIM8T3joQS5JWLIfOLxgO3R8Dh4OH6hUyYDCdhZLTwl/aButdgyGUC/J5YiO1HU9rsEyFhvM9Mj3GhMknFkQulVENrqvUMV+Pp6bEg4PPhT2n443IZ7TpuYAAWjouCzWpGds412EmCIZ+P2JjoG/KJuK/DAZu5AFceeRr6xCvUnBV0/wLwBkSgRH8NCpEKPO8xiIz2hcFkw/PfpiBAmM9xZ3XQ75ybpqEEKO1JQi+oxnr8JeL5R2gicNjhcFhoaC9jr6yhPWEPJdcQ3+ZApDENwXnA15qhakClft/6rnHXJ9ucY53Oz9ZbqoUTV02EfOqqgziv6xo2TL/nifHTsFW4pGKaNQc1teNIiK/GyKfRWYUVQjwwfSwlWjz562504T+H0ioT9EYGYQFilJfdj6jJS6D2kOKTn08gr6QaF3JalyeikgkpgJA8EJJR/sH2dPyRXNzsmiP95Hh9QR/weQ58/ksGDiSxJqzbBwbg4UlsPlDi+XNQypXw8PCESCSEp2fH/rhIPRGHxY7Up5+HLvE0pPcZIfMDCkpt0Kj48JR6wuT1CaKH94HFasPabYeg4lm56Ky/5Ij7512Ei87qoGfeoCiV8Qwk8qEwVG6H3GMaayu01IT46lhTU1Mg4prH0Vh4rfOzxsxbdRpC3ZEPAQOHndgqm8s3qUs/dDdh1eWEsNDCzuJ8U2/M9AWeBAeHvoVjmuYMQk0L3jVPRGrzwMQ7h6Ho/AVYC+7Bmk0l+GhLEQW66DApfnwrAjrVvxA3ag5sVjbZ8EIruLNIqO7bC3ujW7AadsaB57+5jIsZ5c1yS3ULUuCthX2pN+rNLSk4XqOB3HlTMO6/LQJOlvcLFy+ivKwMCoUCQqEQcX36QHAD0Vn1JeUsSmUxS5G96kEohpzHLQ+m43qpFXa7A1tXRaBHcDh0A39DzzARfjtyHCWFXJ5IB/3UuWnqSYADkQ7aEvXNWYbq/ZBIe8BuL4dY2pO9Sht9IiwMsEd3YzkczgPd1bTkkMngMJpqQ4adEV7sAtzjvwQeKti11fWyT1iQaJhSRzQMpzmtIRiJukahavxkKFUyiPYexPfSmUhWtc8nQjLRNUYBJiWUIjzAH/Hxg3B6zxoIyz7CyIVXoTPWZax/+1wE+vUYhe4z1rWa9oRoIC/d04MCiMnK4O2taTiVWtosQ3FchAZPTe8OhUSIT3clw6DPg5+HHaEaGQbFeUAm9YfZ5oFPducjN18LB2r40Rw88CVqGhggYHiwE08LeaFwBhwQ5GEYCAjDAf2OqII1T76GqMztOwDBHgYacsErE2J61EI8vPIadh2trJ3SWyPCiXXR4CnfQdRtt+HI8ePIzuNApIN+6tw0DUAEWD8zDuoYjsX3hjZHfRCxGJNhNadBrpkAHq+GBrzdIOK+NHdgqIMHycD+yB8zBjHBwSh//EkwVmuDZEMWS/hQPHAvTjkE6Hc1HZY/DtNQYDefSCPgVedvqfkXqcBHQoiFAkR+twXdesUgNiIUW7fuwpfrK3BK6s7n1FoBU5+IUYA7RpQh3MmdteV5mPWbMWLBVao5ONuLiwMwd0wCoqZtbRWIeCpZKpPeESyVCakAeDipsFkNJCZUjWdnxUIs5OFK2nFUm4pxtVCKPlE+6BPpB8CCSl010nKzkZipwNEUBcI0Foj4Dkq+mFomZfm+nDxZtLxuzR3Qf/NrOMlqbYlsXzKI3/C7Lr5mOt6vksE9fVZg1KJ0ZF13p9I58VU0ggOeQ8itcznurNZuPK5fuyRAQny/XN4fHqobZ4pozQL+GT6RmjrYZsNpyNS31mkAbQSRhsmG9Y/xOt4s0td7wnj8wRPhljkzUbhoAZhq8sbKtvqhuvInHsdXh37AvB6Dof9mG014bMxExWIOA15Nvomrea1OU+IjdMsPGHvbcESG9MSn763CJ98akCy1wd4urwjgDPH1VHpizMgEnDm4BbLSFzD+kQzkFLLgRBzbv6zuCh+f29Dr7tWAnZizTuJ8Eyy+MrEAL8yJpU50QmWyaksqTlwuaRZASBjvOwvZsOLdf15CN7/LeG5TEMbFB2LReNYHYrLYsfL7y0jOqcRL0/KQnCqDSCiBSSCG3GxBkSAKvA40ZwWqzDDZragsUuNWyTxsPZKOZ1YX1LL4Du/jhW9fD4FW9iV6jxqAw8f/RFaeFj9e+muSwVpzEHB9/v9IgJqzhvWEakzH+v6aktA/BkRYAZDXT5e46RsBkVq/Rp3m4ZqjQQ97kQgi/0A4jDpYy9hkR/dDvy5JkKdSQeQZBXPBJcBqc+PKcj68+uObzinhQeAXBr+3XoLQakHhsx/hx67zcZFEZ9XQhLT1J+MEkbJqPhbPGo/svArwTs6A1paLDT9XICvfhqfneSPQV4Si1RoEP/IMtH1j8e1vWY3SnpAXewIG3YJVlDLlxY2XcSmrgj6hpjJZYsPUePmenpTKhITxKkSkrgsPUSHdMP3mcIiEbLjxk18k4UpeNVUenp7kASlzFTxhBP2+uLgYN900BHJ5x9FkU8c6GPAFPjiyby+6WJ7A2RQd1v1UifheYswZ5wWj4U50u/tVSoPyw54/YKnScY71tm5Crn+rJMD5RFolppY7NR7iW2+c0YEVbyci3dZyiG9jOeENNRPX496pcbgz9PJFQsgmToI9+WJNsSMXOkWeg4bN1uWSuEBOjfZR/4B1BRYykzP8l/5bKGQ1HoaPPUPfxGk1q9u0Nd3Q1ZxFKhtOunUYIoOUyMoshf70p9BI9oMvqoJROwBVv+TDnlEEnliB43GTUNy/TwPHOslEJ1QmhM6dmLBIJjobheW894bPl/hAnpzWHVIhg3W/XMHZtArEd9PDXyVGXEQkunaNQqXeihe/SUZ6gZ7WTr9nVDjGD7TSSpOl1f5Iy8iFVCJGQFBIyxuoDT1E4hLwbGKE+AfBZmGQmngQirx1bGVDsycKRXega/x98ApQ4WhyEU4knoe/lKts2AYRc13bIAEORNogrOa6tgpE2hDi2zRg1OewahQCag9u+eAB+EpfhQl3TINi5WtgGFYzcmPfbfSYr3PCuzL21gxmy/fR5h5QTD+hIb5v4bKKvC+3FULYWYkmQhzr18tFuGYOxIo7uyHcX06p9fPKGehNDnQN4MNWkI8ry1fAnJ0LEoV2pP9MHPEdUvuoXOncCZXJxzvTcfB8UY2vgToqGjzWqAA5Xp4XB5VUgPT0TCQnX8T1ahF6RUkRGVoEsyUenn6heP2Hq0jLrQSfz8N9t3TBXUMDYKjeh7S8AHz2ayVsNjvl+yo1EUrjpvNO2rIFiTS7+JjodINju2LaiFCIhXwYLAyyi+1QyIBQLxH9PimjgnJnDQnXc7QnbREy17dNEuBYfNskrqY7twpEDA4sX5WIDEfzmogzxLcxllwWAFyPb9fQXPcKIGQecWAUPFa9AF5hAYqefNpNM3ANB3YCRUPW3jqQqoOMxhl+ndJx8CQ3lCdC5vE08ikVPNFEDmQqIBbx8fLcXugRoXF7CGU6G15esx8Td78FlbmKfrenx10402UYRAI+pTIhjnGSy/HKtyk4c7W82Sce5S/H+0v61/YpqjDhsx//QEqRGK8vGIhgTTosllys2ynHH9eElNV38YQo3BxrhtFwFmnXNDh4zk6d6mEeZlSahPgpVQO7G4fZjW26iBrHenaRGF2D5Vj1QH8I6pFdbjqUg28P5tALcbQnNyZvbnTzEuA0kQ7aIa0CkVb6RMjh7xq260wudOZksEBCiA7Zgt51eSXuIEL6ESASennCodPBYWEd0g2d43VA0RxfV0Odw3U2F3DjibEr4S2cb2/GukuyIaGCJwSMxFy0dHI33NKPREPVtSu5Ory0MRmi8jLcc+IDqExa2PlCJMaMwbiVT6FrsIqSKb76/RUkkTyQZp43YeP99wyWysTZCIg8tCYRVjuDN+6LgcNQhF+SymBzGBHsbcX4/mFQqRwQCn1wPgN4fWs2engbKICcyZejSCdqNvu9PdvPCSJZxRIEe8uxZklfkAgZ17ZmRxr2JhbTj4ZH6LiM9fYImhvTKgmI+cD6uXFQR3Ehvq0SWFOdOhpEGhqLaq5c42So72to6ERn+zsByT2BsPG7qK+Z1I51o1upbz5rWOiKmLMI7clZkrHeDisOGeJhFGDi8FJcLxPhZKEnHrurG+KjvWguRHGVHUYzg1AfAU3iyys14q0fUiCozMbUxA0QXLsOgVyOuG3bwKg88cFPaTh2qbRZAOnZRYOnp3UHCQF2bYVlOqzZfAK+Ciui/fjoEh6Kjw8YkFNiQp9ID7xyXy8annsytRLvbb2AsZFV8JTakKsXA3YerA4ejmYrqFmroxoBEfLq4OcTgsemdIVMIoTZ6sD1cmLO4sFPLaCa1+5ThTSrngORjpI8N09jEiA11r94tB+8NDfGVN1a6f7DorPqiaUNmohT+6B6Bt9BQ2yd+SHOUFwnMLhexensrv9A3E1kdVnnruYrV0c5S3/COp4bZqjXaUr1s+bpdXlibB/2VrtpT8gUnrQ8bhkIAeOoYfGIi/JGSakeuXs3wUeyDXxpMfSlY6FMWIbAqEBUVJux6rtj6FGRhNjt30MgFSPuxx/x8TEt9p9vns49MlCJlff3bkDuSNZxJS0diRcuI7VEhoSe3oiLCcHKbfnILNRjSHcP/GdWL3rL01/9E2arnUZ78Uj1Q4cDDJ8PHsPAS8mgzHDjLL7OZ0pAhKz54ckDwOMLcPFiKhQXPoPM8xgYsz+yxYswcNRtkKvE2HwoB7k5l+EvdXDRWa09pbh+bZIAR8DYJnE13bkzNZE6QGF1i/rmrTrzlDPot+E6XcOBXcHHVa/gCRjA7iSkb1hsqg5wavwwVENx10zo3DwxDgx9u920J2QKZ4hvsZaPh+aMQ16xDbaD90HkcREbd1Xgaq4Nzy/yAewaOIJ+QJeBwTibUojTO3eg35Z14Eml6LvtR8z9IgMms61JLSQ6RIVVC+KouayxRsxZy9achlJqx5wBPCh9tDhxVYZKowMR/grMGtWFOvtXbr5c6626nCuD3syal0QCBkNC9Dh6TdlsPkpbtiEBkZXz46CQ++LwoWREGu5DXpEOn2zR4qa+EoxP0ECrvR+9Zz9G98r3vxyBXa/nQKQtQub6tloCHIi0WlTNd2wViLSaO6vumHf1g7ArqB/8y5bG5dnrc1+xvfkKBbwfeQTm5CRod/7aoNwtO2PLrb6PxtX74krASGeq0UQuKxn3mlgtX6a2B6uJlMJP5Y0RI4ci+divkJU+gbnPZuNksp4kckMlF+C3NV0h9ZqNvpOfB2Mrw9r3t6Dv5nXgS6UI2rAZi7/ObPKqxBxFilBp5E0XhCcg8vDqszAzDry/uDvCfQxY/1smCirNiA5SYepwNnx39U/JmDJIi5IqIT7Z64/SajaHpBZEckiiX/vrq7jeRFSAGW890Ael1R4w75uG09lJWPBSDnRGlqts/iQ/PPdAMLS+W9FnSCQOHD2O/Osc7Ukbth/XtQ0S4BzrbRBWc11bBSKtCPFtPCOcBZWGnFYNw3udPFukPzF7KW8egTevnMH8eUshe3OVG4jU0qfUOlRctQ93r0vdX41f07k+Cko8MfYkvEXzRNrTWJ8IHxOHlyEiMBADBwzEmR0vw175HYYtSKMkg8727tIQTB42DFEzvqe0J+s++B5xm9ZBIJXCd+33WPrdtUaXEKAR4+3F/aBRNA0gZKCrY331Q/0QEaDAo5+eQ2aBHoNivPHsrBjYzBk4eTkJx1KVOJ6qpEWtnE0sYDA4RI9j2Spq6rrRRsgpo4OMWLWgP66lVUGUNQVjHrqCqzkmt6nPb+wOL++XEHr7dEp7kpWrxRYuY/1Gxc+Nb0QCHIh00LZoFYjoSYjvWWSA/cE3xuLbGrMTPbAFDjjsTo+FO7uu0yBF5hKo1QhctQr6E8dQsWEj1ToahvGyQmjMbEZBwS1arM5H4mYWUykhXrIUSocZVV98jy29/tVun4iTCv6O4WUI8/fHoPh4nPlxJey6DRix8Cos1rpT+v3HQzBhMOHO2gRHDYj02UTMWTL4rf2uSRCZcXMY5o4Oa/HpNwUi2UV6jOghxKKxhbQE8rRVxtoqjiRzXSEiEO6AxQaEaWxI10rbXeXRbZEOB3qGCfHavG7ISTVCmDMBM57OxJ8X9XXAJeTj9MZoeHi+gLBbZ1IQuZar5cxZLT5trkN7JEBBJKEnVLdwtCftkV/tmFaBCHGsv56IDHFLIOJeQqr2cK+pSOXmdHfJGxH37gW+3QzT5at0XaLoaAhlQugvplIyP9Y1X2e+cnOk1zAFO0HDjTa+Jnu9KdoTnkCAkM3bET+oF7qGRODrdd/is++1SJZaW2Uqqy94Vyp4sUCAyeO6qPX1AAAgAElEQVTGIevMSaBgAV5fV4y1O1hHeVSwBL98GIVq8cMYMH4J1US+eG8z+v3wRaeCyLNfncVtvbLgo9Gge+QwWjdm0gtHa2+jq6cZ4R4WlBiE6OZjxk+XNZSIsaNalK8Zqxb1hsnujcItj8Es3YvxyzKRV2yhvp0vXwjHqL5BKO6yCwPiPLH3j+MoKuDMWR0lf24edwmQEN91Dw+Ah0/r6vjcqPy46KyVicgQtQwiroJuGHrb0LwlDAnGhXHjIDTq0H3rT+B7eiBnzhyUZmdiwJFjsBaxOQNOjcPdBc/+Vd+85W7QqhvtTktP1B0Buvy0Bf37DEC3iDB8v24TPttQibPyGjr0Nu4acl1NjU/kepUQD067FTYbDyk7P4K/ch3ScgwwmBj0iZaiqup2BI54Ad5BSmz4/QLM506g/5a1LYPIyDDMHdU2TeSDB3siSJ2OwtJM7E5UQiz2w4Lbu1INY8Vn52rvMlxuQZZWjBytGFO6V2JfpgrVloZ10NsoltruxLH+xNQYhAWEIDU9D5KkJTAiHZczzfDxEKBLoBI6ydvoccto2Ox2rP/pMGSMmdNE2itwblyzEhALgM+X9YW3p/IvkRQHIi2AiPMwd3V3Ow93pzeCDdd1954IPVQQrFgBkUEP/XurwZeKIXnyKVgrzWDWfQSmgtS4cPFn1Ibw1o/tcufeagAkJOiIcQGcGvBR9+0DzRMrILQxKPjuB+wy3I5T6vaSnrAhvpOHl9GM9W49+mB8fABsdiDjSBJEjl2wMWZImXioB42Fp6cMKTlV+HjHWfQ0plEQIY516hP5NquOgt1li89oB4i8vygcgep0XMyqhMFsh4dShNhQlhn3eAqbCU9Ce49fVkIjsIOx82F18HEoS97oGtr7iyMg4q2RYenk/vDWSHElzwppyvcw865A6NCgymM24voH0dyUD3emw1qZySUbtlfY3LgWJcBFZ7UootZ1aLU5q0VNpO6gp+YjWrPDlS/Lnf7dqVnU0rjzSKKZ3c1sVRfh1dCc5RzvGjrsmhvi9Hs4jTGuPpv6Y52+Ez5P1GEhvpT25JoKUxJCcd8toZRmxLWRax69WIJVW1MR4mVBH/PVTgORDx7qh8h6jvXnZsfS5biaswiQOP1OZLV2UoSqA5szY73CqMHbC3rC31NGnfmuUcokZ2Xllqs4m1rK0Z50oOy5qRpKgHOsd9CuaBWIWB1YvvocMqqaLo9bv+6Hq1O7YSlaVm9xHuZkrLt+0jB4t74fxNXR3tx3TlITV+LGurF11CssHUsNAaPSAYb4cdrRSJ7I5Jpkw/2ZChA/yU2xPvjXzO5us/18ogBf7cmAhUGng0hj0VmNgUi4xoKBQXpKDW+y8rA3QwNLJ3BnZRWLIZcIseHxQZBJ3M1lT3yehNT8aiqr4ZE6joCxHXuQG9I6CXAg0jo5tdirVSDiAFZ8ch7pRTo6X9PRWe7mojqQqL+MupDcWn9GjaPd9eh2NUk17udwH9QgiLdmUH2nfB1kOdfl7MjSnpy5gRBf4hO5I6EEeeViyp3VI0yFx+/uDj+PmiqRNZc0mm1Y+9s17EssRLCLJtJidFY7zFmtAREigeHhOlrNsEgnbBcVfkubzamJXK+QYfbIMNyZENxAQ0vKrMSHP1+lIcrDOO6slkTKfX8DEuBA5AaE5zq0VSDSAu2JaxphffNRnTO7Pgy4EzDWvx1nzQynBuGkP2mY+e4ErvraTR1A1Pli2HrrhBjLOa8TUOg98MTYmbAKSe0FkXoEjFphGP4zK5ZGHlUXVyKvJA9VJiN6BgVA7hcMoZCHb37Pwp+XriHOzPpEWgSRdoT4vrcwBEGq8yjWmmC1OyAT8+GpFFMtKb+MDSIg3F5/XlCCV1MZ2AYefk7p2OgsAiICAR9Tb45DQg9v6EwOGEtycbWgBJ4qKQL8I+DhJUd5lQWPfZ6Enj5lnE+kg37n3DQNJcBWNuwF1Rh3hu3OkhXnWG/GJ9Jk5cAaJ7irOcupndTV+mAPf2f4b2v71o2qnwnfODtwQ/6uums6fSmECn7HsFW4qGpfep0zxHfCsFIUlIsx7+7R8FCJ8fueZHQ1L4JQpAdDyvnaRSgp/w/i5twFkYCHld8dgHc+6xOBVAb/TskTkeGxz5KQWahDfLQ3/jOrOxiGh7tePkotfjyGmPD44DkI+SR5cGzSZ0c2AiLzx3ZB35goVFZZUfLrCohVx8DjkQqVfNjNfmC6/A975wEeVbW9/d/0Se89gTR6R5o0sWHHjtgLINjlXvVi78pVUMReEMVCtaFYUAQBQYTQOyG992SSTKZ/3z6TSWZSyCRM/N/rnf08PgJzzj777LPPfs9a613vWkrSkGgaGsy8++UGwlQWLzvLkw/B21fTDEgU3/tOIzjYS/E9pWXhCUvE1QZwZKg74MIxvDZkT5zpuU134eyUarYYmqyJNvxazf/kamG0jmo4U4xbjw+Zhp/HvXTK7KyLx5UhMwZw9VWTKDySgfn4DXy3tYB3viihrt7GmSP9eeS2WPRB8+g/8QIqqytZ8d5Khq/sHkukI3eWRmnlgtRqDpf60ifcbpkIAPnhWKBH80SSRZ7IzEEoVBEcWvEuoSFv8c8FeaQd1hMUIOe1B+KIDhyOetJn9IhQ8O36LVSV61h5wN+jLLFTemG8J/9tZkCo+C6+aQjBiV6K7yk9VHdBZM6Lu0h3I0+kXXdWG/EJ5zJVrZ1d9ttyDr+3vNFmuGkGKgc0NAOIDJnMKin7OsOGK8A0gk9jYP1AVy0RR2XD8WUkREYyetRo/vxlMZry+ZwzO53yavHFbWcjffFiCr2SJzPg6reaZE9cMtY9SPHtCETEmJRyG2arsAeEWSLDZm2sM39Kq6v5ZDH7yTFG5s8YQla+Cs2+c3jh40ze+6pM5JNKLTXel5/eSMLg8zb9Jk9gy7ZtnMit4osDnhOB9NDteLv5G8yANybioYfoFojUWpnz4m7Sla6VDeUBAcjvvJNApRzdZ8swZmW7FJpquaG3VbDKQcV1Pba1FpYzOLXFxmoGCFc6cMt+W2aXOFsxdhXfl9kaZBcE7EpzqPj2jI5m5IgRpK16DEPdKibcdsxFm+rR6VHcdt54kq5agc1S21o7y4Mg8tqsfiSElbN6czZlNUaSo304e2gUCoWad9Yeo7xGyYFcX0L9zQwJ00vYrpTZ+DE9ALPNMzRfMc8DEvQ8f+tp5B4uR5ZzOWNvPUZ+icllmrcu6U18zGMknHejV/akKwvQe47bM+DNE3F7qk5+oFsgIthZb+wivayZ4mss/gj1Ddcz+dkXUKtkrF+7hprZ9yHDLJkP7WlpOX+bNge129a/crYmnAPrrYHBEYZ30sdqLEjVXPHQfpZr1nqL+EmTiu+pUXyFdlZkYDgTJ45h+7qP0VbM44yZx6mutYOTyBn5an4KyYnnMvAKuyXy/sLlDFvRPcmGr80eRGKkjOeWHSa3tJ7BScHcdUmKNJZZi9JIDjcwdXwFz66MocFgh+vzeutYlx5Arclz9URSow3MnyksEV9U+yeyaEUOCz5trpmSGhfIz+8kUOfzNgPOnsCmbdvI9mpneehN93bTcga8IOKhNeEWiFjg/td3c6LSLpYnKL6m4iWoZs3imqfvQ98Am3/5ndLZd2E1m5yyPlwHKbYndWI81joDprLSJhdTq/K5LQO6LhUKXUvwNgNKczzEVSTe1cEmjpcgp6lPpziJTMMP414iravsLCF7oldw6cRyagwybr3yInJO5MG+69iXVcB7X5ZRUmHlxouDuHhiEPqA9+g3cSw55bl8/+H3rjERD1oi7rizLhtZjcxso6zcnrcR7mth7bFAjFbPWCKiTxETeXHGYNSqcHZ9t5oo5TMs+aacbzfp6NVTyUM3R+GrPIOQs98kMkzJVz9voa5S5w2se+hd93bjOgNed5aHVoRbINIOxVc1aBBR99+HRa1Bt3w5uu/XSvRZe3OubGj/F2VYGGUzp6MMCibopZexVFY1H9t0Py4OJpckRJc4h0gOlM5xZhC1HUp3MLPacnQ5S7HIGmus7+4qiMgguF7OlIkVkuzJ1EvOICbUh107MwnMexKt6igyhQFjfRy1mgfoc94kqTDUU0t3kFixt9sovu6AyPCkOsJ8LezPtjNVqhoUNJg9ByCiT8HOunBUDOeP6k+dzkTO5rfxMa1BqSrHZvGhhkEE9XmB+N5hZBXX8uXPvxOhtnpBxEPvurebNkDk7IEEjPdSfE9pbXQVRIQlIm3f8sa6Fla78u3JYheKiHAaHnwAX6sc2/znMJXVSGMXlkhLt1PLDHbnwHtL26IlPdjZZdVSBLK5RK8rxVeyTxrdWV0NrAs3VaCoJzKuVKL41qrjmTu1H0qlAqvVwtFCC9W1NoYnK1CrlFI98a+3FvDzzqNNsifdR/F1rSfinLGusFm5ZnwVDQ0y9mc115s+Xu6aIHlKC60RRMQCueGswYzqFyF1V6O3cDDHTJC/jD4xchRyJZU6IzMX/sHoHvVE+3jL457qvHvPb3sGVEo5H94/jOAAL8X3lNZI10Hko1ZuK8eG3VJWpMldJZOhjovBZjJhLC51qQ/SBD9OsvF2e8bupmoJMs037WR9SCKLzhIqLS2Tkyc4isD6L2Pnsz3I0iUpeDGmEH2zJSIy1ntEaHngqn5SUSjnVttg5cXl+9iXWesie9IdyYaLZg8iPrSWt9ZmUlihJzU2gFsnJ0tW0GMf7yc+xMSZA2vYnBbAsVKNpNw7PqGWn04EoTN6zhpxzlg/Y1Aod17Sp1V533W7Svj45wxq6s1M8Gasn9K77T355DMgUXxvHEpwkuu72V3z5k02bJFs2GSJOM24s/Xg0M5qKTHibBk4u5JaKv7a3WF25V2H00rqv9Ek6Uj+vaXl4jhXUH2b65O0IBZ7gOLbJAVfrpJkT0S2+mVj47jl3ESXtbn1UBkLv05HyJ84CzB2CCJdkD1ZOCuVhJAiftxZRFWdibgwHyYMDJfGs3xjLrV6GRsOBjAwvAGhuVjZoGRoVB1rjwehN3tWCl48v8wSDWEBGt65bzhalWv/z31+mO1HyyX9rvGJtd6M9e7a0bz94o2JeGgRuGWJiMqG89I4IW+/nojdamjd2sgNbNJlah3ydpzfMlPaNZrRljur7XiJA3XaKtHbCE4KKzaL/WtbuLN+HjufP06V4ju+jLxyFVtyA7l5ciKXjI6V5kZvsGG22AjwEYF9GYdzdbzw2QH8ffTdquLrTkxE3L/IFUkJN+Avt5JTraZU7zlmlujfYYnI5KE8d+sQArRyLFabJH+iUsrwVYv8FBvv/pTF2j/yvQKMHnrHvd20PQNedpaHVoZbICJqrL+9hxNF7QswOkCkZXzCESdp7ZJyjZ80Gxltua+cJeVbntfafSUBl8ImtMydYjSuqYltUZAdMZHD/jYsp6DiKyi+IrA+7LQRnDEoHIPJxt5VvxGpWozMNx99yVVEXDaD0GA1eWX1vLTiTwbUH+02KXh3QWRsjzoOl2qo9DB4OJaqAJFAPzWPXj8WH7WCXRlGfDcvwifsR2z6OE74P8yZ5/VGJpPz+tpMDOVHvTERD73n3m5az4AXRDy0KtwCEbPNTvGtal8Kvj1LxFml13XIreuLtPzd/ve2ctZd8z2cLRMHiLVW6m20PFwsJldm1ymzsxorG04ZX0ZxpZJZ102mSmejeOOzBGm+ZmNaDQUlFqadH4hBP4SAwYuI6R3Gj3+kk7V5vUTx7Y6iVM4gUllTzQXD4YpxwcjlAcx4LZeKOrvFMSRKT++wBomZZZXJ2JgZgKVrMmJtrk4BIo9f35+IkBh2784iJPtWKusL+X5LHf2SVZzWJxid9SEGTJkmaYx99u1vyAwNrPJmrHvobfd24zwDXneWh9aDWyDSgYpvSwBx5GGI/b91bMI5n8NxE+1lmTvkSITKrDPoNOZ2OAXhnd1ZzVaR/V9dgEwakFNuiHREo5UiU7N23Mvs6irFV8ie6BVcPKGMUHUY55w3lvTtv6EovYs58wv4bkuVdKWIECU/vJ4CwbMYcv79UrLhBwuXM3SFG9pZXYiJCBBJjJSz58h6quoMmAln0qB4rLZath1Ix2SRsfjXCCwmG4Fai6TLEqQxc6Jc41ERxuQoAy/PGEydMZTKr2aSb9zClQ9kUl1nkdx8z8yO48bz4qlKXMPgwZH8snkrhd4a6x56073dtJwBASJLJg8i8PTAv2RyvIF1N8vjnsx95RxUb04ZtNsajt8clfWcJVKat3mHbSJzYnY5ubPkNmRWu3igHSZaWjEtrR/7uQqNxo4rBitfjX+ZrlJ8xRWF7IkQYEyKiWbUyJFsX/MCVC1l/G3HpI3S0d6Z04OzR40jddrnbWtnfZ7V5sK+pgtS8K/N7k+kz3qeWB7F8QJRJCuER64dKPV/yROb6R9vYNa5pTy/MooIfwuj4+rIq1azPktYIi3jU1173wT9OTm6gQUzh5KZXo8m80LOv+sEBzNc69kf/Lw/AcHPkHDBlV7Zk65NtfcsN2dAUHwX3zeMkEAvxdfNKWv7ME9bIicLercFIm1TeNvLSrffQ7PLymFnNINLS3BqCUAtXV/qQQMou+QqgoN80f60njWGi9nWxcC6QwpeJBv2iIqSQCRt1dMY6z5n4ozjLiAy7+5YrppwOilTV3c7iLw6M5q44FLmfqolo7COUX3CcM4T0cgtPHFFMen5GtYdCOTs5BqWHwjB2Eg4OKUF1nSyjYE9FDx3cx9yD9egyJvCBXe3BpG0z/oQEfgICRff5AURz0y8t5d2ZkAjgyUXDSFgZMBfMkdeS6TDGuvNG7lzPKJlTKQttlYzNDizqJwl5R1QIBCkSZir6cE3h8xdLY+24iMuIKdSEr9yFX1SU+jdM5rvvt3AG0vK2K9urMzUhaXlEGDU+mm5+MxzOLxtPcrie7nv5Xx+2Fot9RgdpuL711Mh4GaGXvQvbBahnbWMoSsWI9f6EHmyeiKddWeZLSyYHkxybCj/XFzSJogIVeFJvWpIijSSW6gmNsDExhx/sio8m2yYHGlg/u2DqaoLoeaHWzhe/gc3PJYtqRvL5TD35jhmXxFHafRqho9IYP2WreQXVLPq4F/zknfhcXtP+S+eAbG6l4iiVOcG/yV38b8NIoLi+1IaJ2iH4quwc/1tFmsTzdeRYChlj8tFhSNBo3UmATe6luQ2bA6XSSOjytm+cOR0tE42dM1pd6wCV4FFO/g0Jz+2LN8rJ2bpEmbeOYMesb14fM59fLLCxHZfu7JsW5TljlabA0SKKuXMuvZ8Kfu6dMOjBGh+ZsNOHfklFq6/MBCDoTf+/d8jtm84a3cdJPeXLd3GzlowPYjEKAWvr6mSKhn27xHIrZN7Srfy4Af7pf/3idVTp5ez8WAAMYEmEoMMbM/3l1yDouqhJ5oIrD9xfX/CQ2LYlZZOaO5tVNSV8N3mOvonqxjZP4Bq8z8ZdOlNUmD9k283oTDovbInnph8bx+tZsAbWPfQonDLnSUovu/s4UShg+K7F1Pxx/akvdAQYt56E6tKS+1zz1G7e1fTBtyW+6oZDFpv7o54SMuN3/F30bGrREozHbjZVnEN0p8sDiP6lauDSXh/IXKDnpx7XuDLkXM4HCi0iLu2czpARFB8x48dzYjeITQIiu/yDUT5vIXcp4S6oqmEXHQz0dEBUi3x5z/7g/7dSPFdeHsvYgMz2JtZTHWtlbAgDQN6hEnPadOBAqm+iUjuW7UtlIJKz+aGOC9TASKxkQE8eOUIqUzuzgwj/r8/i2/IJqz18Rz3e4wzz++FUqFk2W+55GQeJNbXK3vioVfd202LGfBSfD20JNwCkQYbcxakkW5skIpxP7nteyxV66URKP71EBfePh2FQsWOzRsouPG2xiB5a2puUx2Qxkx057ogzW4mV2BoXS63JZOruW66ayDd2cnV2LvcikySRWlmZ0kWh0wpMZJEotuW0Qv4LbTrvFYBIlPGl5NfruTPwmBumpzM+adFSnZNvQGXZMP0fB3zVh5FJa/p5mTDoSRF+3PfO7ud3Fl9pec35cnf2xG59NACc+pGgIgAKx+fKB6Z1odAXxVmq436BhvCmBXJhgLYRd35L37PY3xSnTdPxPOPwdtj4wx4QcRDS8EtEHGi+Irg8ewCX8L23CH8V2geepD7571EQLCGdxe8Qe7M2+0jawx+tJ8n0rkbcO6nLeaWBAaNXbYdd2mdW+IMRxKsKEN5bdJcatSNopKdG6J0tLMlImRPVHIZV42P57qz7e4jR9t+tJLXvjyKrqH7ZU9aJhuO6RvCo9cOkIZyyZNbXEQzu3DLbp/iyFjPLFETFezDm3cPR6Ny1eZ6aeVRNh+01xjxame5PbXeA7swA0I766MpAwkY6lXx7cL0NZ/SFRAJqpdzx+/PoDSWIQ+PIvrFeagsBgqWfY7ht81S584WhP37sqWIYlN2Roe/Cfptc3nb1rRdO2Y1S8M3/bkxJ8RBO3Ywt1pKpDgAqD5oMG+OnY5B8IS70ATABkkqvmUUVti1syKDNDxybT9SYlzrONfUm3hu2REO51R3TjurCxRfO4j48u8Vf1JYUUtKTAT3XDa4CUTEH8L8zdQb5eg9KLjYcgodIJJbpmVs/3D+cWXvVgKMP6aV8NFPGeiNFsYl6rzaWV1Yh95T3JsBtRw+mHOal+Lr3nS1f1RnQUT0pLHIuSHXQOzhhyVrxKaw+9FlFnsNcXuehvNm3+haagycO35xrmxoBwLXioiOf3Ns/q37tR/R1E9jAL9lIN3RjwPInEHO8W+q4NNZNPJqqtQySaK9K81B8b1ofLkEIgeqIlk4ezD+WqVUR/xwvokKnZkxvVSoVEpJN+qVLw6TUVDUzVLwQ4ny28rm/fUcKVBz5RgdsdHnIVcGM+XJLQxNqGfW+SU8uTKO4uquW2EdzZkAEfFxMW5of64aFyu5tmr0VnafMBIZIqdvrErSFMssrOX+d/cyNlHnjYl0NKne37s8AxI764IhBIz5a9h//9vsrBYZ6+KpKZEzrtzA2Rl7sFT/htVUDAotMpkv2OoRsuo2m7FVxrrjq98ZNGQyFTabqIjY2iXVlmuqrVyUtvptBiHXfqVjbaKMrxW5tg9FcRP5KTaBbD+NFGG2dRFERL+SO2tcKXkVai67YAKJUX7s2pmNb/aT+KmPYZPXY9L3oMHvIXpNHofZbGXe578RW3rcvaJUnaX4Wqy8OiOShNAyHlqqJaOontG9Ndx3QTp+QRezfsfP1NQrWL0tmDqjoot0AvfeYwEik0+L5sLR/dA3WMnZ9C7a+rUoNYVg8aHaNorwQU8SnRzCoexqftz8h7colXtT6z2qCzPgpfh2YdLaOsUtS0Rv4/4Fuzhhcs0uFl+NYsP1M8qJsfpiUlgxCEsFECRZNaANVHLfeclEh2gkF8VbP+WRV6STzvMN9BwTSG6TSbXLJbawVcjIyzDqrJisduvIKJehFv8ONPx/WY9Xb+qH2mbj6bQCDh4uAoUMi81esqprdojdkhJS8EI7S1/vw43XnEN+Rgm2fTdwIDeT978so1iUx70oiPNPD8MY+i69x40ip7Cc7z9d3W3lcV+ZHkRSjGueyJzzdyJXRPDqt/DHcX/JKhA33tV7d2c5ivK486YPRKONJO27b4lRPs7H35by3eZakuOVPHBTFFrZ2URetIjQADlfrttCfZWOlQf87fQxb/POgAdnwEvx9dBkugUiLSi+7lzasRmLjT082Jd/Tx9IiJ/dVXLvW7vIKbWLOXqyCVBzbDUnc0mprDI+fmQMfloFz39+iD+PVTTL09us2ERRjS42iZ01oZz48HDGjB7DnxuXEVDxLOfMTqewzJ5/IpfL+OG1VKKiLmTI1QtdMta7Q4BxwW1BrZINBYj4Bl/OpU/v6eKddv601GgD82cOJavED9WOs1n6UyZPvVskufVEG9kviJUvxVOj/ZjB55zmzVjv/BR7z+jEDHhBpBOTdbJD3QIRvY0589NIN9uTDeVWK1aRYuwUx5A278ZNXGzgLV1OseF+vHL7EPw0cnR6M9v2lrAzoxJFdTV9hvbip9/SMBSXYPQN4oIJA9m6OY2zLzqXvWm76ZHak60/b2XShRPBYGTXzsOcce4IDBY5f2zezYhRffHzFXaPa/sxrYj8Mr1koYiwu/BSSdaKzcaKh8fgq1Xy7GfNICKz2ST12lNpDhBJjI5m5IgRpK1+HGPtSkk7q3GvlLp/YkY0N507npSpq/7PQMQv5GqmPLXzVG63U+cOjNfz/G3DyTlciSJ7GmNv20deiR1YHW3rkt7Exz5BwuTrJRA5kVvFF96M9U7Ns/dg92bACyLuzVOHR7kFIs4U30awkCLFAkjEztyGK8RhiTi2ZLFBR4f58uJtgwgNUJOXX8KOnUexIOOqS8dz/4NvM+/521n02hfcdPNknp/3Ca+/cg/vf/gdZ5w5mqefeZ83X72HGl0d7y7+nuefug2jwci/F67g8X/d2OZ9PrpkH/uyaqRgrdwqyos0B/uXP3I6vhqFBCI7jlVI92E7RQAR9ypUfKdMLCcmJIJx40bz59q3UVa9xhkzj1Ort7O+xGU+eSaRYX3Pov9Vi9tR8c10qljffHvXdCEmsvD2RGIDs/jzWKUE4GL+T0sNlYD1l93FTZ2v2RFMYVX3BNbFM0iONrBgxhCys+Qoj57No29l8en3lU3Xjw71YdPiJPBbQK9zz2fj9m3kZld5M9Y7fIu9B3RlBgSILL5hCMEprszJrvTlzjnewLqTdlZ73+oSlVZYI2JDlsDFXsFP+rOwTuRygv2UUn3v+AgfqmsN7N93kPFjh7Po9dXcdeelrFi5mWlTz2DeK6u4585L+eqbzUy9YiKbtu0jJSGeOr2J7JwcLrloAvV6PctXbebG685CpbTHV7RqBfHhdlXORz/az77M6kb6ryPB0L6LL5s7Gj8nS8SdReDOMY48kXqbjJsuufU9tSAAACAASURBVIicQ8ewpV/Pmi0lvLmyhDq9jbNH+fPU7GhqtC8w+OwpVNWWsPztr1xjIh5U8T1pUaonNv9l8QahnfXSjEGgiODIytcIDlrMnAV5bN9fT0SIgtf/FU9s8CCsIz+nVw8N3/68larKai+IuLPwvMd0egaEiu+Hdw8lOMS30+d25QQviDiBiPQ13TiLrmpYIGt0dQkgEZaKAJA2GVbtfPmL84VFIBdWjsViZ0s5/ixiv41uNIdbShyvsimlAZkVNsIC1Xz4j5HS6B5ZspeD2XapliYXm9UqAduyx8bhq5Y3ubO6sihaniPGFFQvQ6j4CtmTW686m0A/Fb/8uI++1pnIFIKYYMNillNc9ggDr70ajRKeXJpGfOkuiZ2F1oeokwkwdjlPxK9Fxno/afgi2VA0IX0iSfJ3U2RdrIHECAMzzkticK9kqqqNlP1wL9qgbWLRSDVeLGZ/DDGr6T0ilvoGE++s3kCE2uIFEU8sTm8frWbAy87y0KLorDvL+bJNriopN0QkGDqxe4QaidXuIuqOfclh8TinBYrxhPqr+ejBUXZLpNGdJXeKdYiNXuyUnz8sAuvNMREPTWdTPRGRJyILSuHeS1OlOdAVlVNUmUutwUBqeDQ+UfGo1XLWpRXzze+HGdRwzD2Kr4dB5I7XNjJ5SDW9ovW8+0skWaWtY0uemhtB8dWq5Nx47jAGJQej01tpKM4mu7IYf7UPkVGphIT5Uttg4YF300gNqfTKnnhq8r39tJoBb0zEQ4vCLRBpsHH/K7s4YXCl+DqG4Aiq2+MkMolie6rxha7envD3f/yAK4g4u98c2evLugtE9AounWivsf5rhh8Dk0N54PJUQoNcZdWFKOPiHzP4cWdh5zLW3YiJWPR6Mg6mM/e7Kow2GcKdFetj4oElR8ipMnHeMBXTz/XBbC4ir6SCVdtCSDvhi9nWdVaaO8/LkbFeVO3H9WcmMGWMSDh0dY7uz67hrTXpUu15r+yJO7PqPaarM+AFka7OXIvz3AIRQfF9ew8niuyuoY5aUxykowO74fcQPwVL7hyA1WzhyVWZHMirlyyhRgOk6Yqf39VXip88900OuzJ0HhuJswDj+gw/yS03qk8oj15rdx852tdbC1i6LgOTDRcQ8QTF12Ywk5NXwkPLM9AbbLx2xxD8j69nU4OGpNhagvx9SIgeRH1mHXvrDjP/22iP3f/JOmrWztLgo1ZIYO+jsZcRcLQH3t3N0YI66a8TkmuJ8fGq+P4lD+d/8CJeEPHQQ3cLRGqtzJm3m3TJp/+f3YJ8lXx0a39QWHnq63T25thpyS3jMh/fJVRkFbzwVSFp6ZWSO84TzUWAMcOPi0fHMPOCFCk3xLmJ2MOW/SW8/OVx4kIM3aLie9einaLiL/++VkN8xGE2Hgzk002hDE4O55Gpvak5flQCkQXfRDbFmjwxB+314QCRMp0f82cOJjasdUDTYLJKcaq9mVVMTK71urO684H8j/ftBREPLQC3QERnZc6Lu0hX2Tdk56ayQEqlWvrar1PbMGvkoFRJTCwp/iDiJRYLNhFwNxkJ1ssR2eWlfhbKfezZ5J5s4f4aPnxghOQmccREWvYvRiWxs3xUTRRfT8RtJIpvg4JLxpeRX64iOmkAUyfGY7FCxuYDKEw/YVKU4WeZQNDocwkKVPPn0XKWrtvHQL0jJqIl8oNl3P1ZZpusqc5QfO9ctBOzTcbLNyaRFOHL0o27iA2vJilSRlJsHOYK2FGYzSvfRv0l7kcBIiI3567LRpEQ7sOJIjOK/Wuol+9AYwtHF3INg4fHYzRZeGHVMfzN2V5LxJMvx39wX74WOfFVKmwyG7UqGzahjij2kUaSjVUqeGfDajEhN1oJMMpQWGXkBpio1zayQTt5fwJEPrhlCCE9vRTfTk6d6+FdARG1VUaIXkGYXonZR0VOhA2USumBW60WbAI0BCvLEYAQVF+5ArlCDjI5VrOJIJ2V0EoLtUozNVobNWrLKd2H4+QwfxUfPTha+mu7IGKzsfzRsU15IiJj3VPNoZ1VUKli5rRzsdjkHPjxE2JVr5KeV0+Vzspp/bTUVF9G/FlzCYn255N1u6nb+6d7FF93YiIGAwW5xcxZloPRIuO12UNJjFQy5639ZJboGdXXhwcu16CvOExJvZVv0oI4VqiVxBe7i50l5leAyANX9qFHTDwZWWXI02ag5xgHTxiJDleQEB6M3u9l+pw1EbPFwpKvN+JjNXrZWZ5anP9h/fia5IQ2KPA3KbBpVGSLfUSlQii4CRUD8fEp9O3EfiJTKJDJ5Pb/N7I+xR4TVm4mqNaKTmlGp7ZSrXV/H1Er5CyeNYzgKHtKQHc3L8X3xV1kKwzE1alQWuXkRCtQ+/phNjZgqtXZKbRuiBcKppSg/ip9/VFptZiNJgJL64mrlHM4woBR6ZB079ojFRTfj/5pD6wLiu/+rNbxDmEhfd4NeSLOUvCBslAuuGQc+Wk7sZTcygsflPDhmlIpNtMjSs3aRSk0BPyDwedMl5IN31+4nGErPkCm9SHw7c95YFVWmxMwum8oj13b/6STY2swk75jO3N/BaPVxqLZQwnN38ujGyzk1MoZ0zOQubf0x1xYzrTFx5nYT8fFI6r48Ndw9ud0zwslrLSkSAMvzxyEhXDylj6ILfxHSQ6mrMqM0WTjk2d7MrZ/PDWDfmJQii/rNm2luMibJ9K1N+E/9yylVUZKhRqTSkZ+nAqFWoupoR6zvl7KMXPHtSwoIOJ9U/j4odL6SOcHV5joWS5nf5SRBmXHvXgpvh5aI25ZIrVWPns6gx3WSsqi/DCqQGGswSq+FhqflbyR699UMEom/mSjznByR5FCoUDj64dMroKKKvoWq0mL7XrsxZmd1T6IwOdzPU/xdYDIpRPK6REVxYgRI9nx/QLkle8zccZxGkSAojE+89HcRMYMmUjvaR+3kj0Je/9z7l2W3eYTvmJ8PLeem9jh0xdld+98fRdGi1ViZyVF+3Hf27vJLKqTAv2PXWcHIkeeiDAShSxLd1kiAkR6i2TD2UM5kWHCJ/08rnskg817mskaIsi+95O+qALmkXj+xWzeuo2sPG/GeocP+7/ogH5lGrvnITYQo82Mqb5W8l6cysKzu7wUqPyEkKgMVamOhColByNbu9+dp8obE/HQwukQRPQ2rAcMbKisY1eDkbPjNQyt8EHuSCdQyWCUFqoscNDYPCoLWOqtKIIV1JQ1UFhpoqLawLFkK7vyK8kobLYQxAajUKlR+viiNFiILDJQo7FQ5uu+aeq4cFiAmo9aUHxbTlW3WSKS7ImciyeUkxQTY9fOWvUkxrrlTJhxHIulGVCfvSOGayeNJWXq6ra1s9rLWHfDnWW1NlBSZOauD/ZitNiaQOT+t3dzQgKRMB6/zjXZ0EPL6aTd9Ilr4KXpw8k5VIUi71LOmnWc9Fyh+9zc/lzah5iox4iffIOknZWZW8Uqr3bWX/F4uvUaGrOM+BoVlRFq6v2UktVhMRtPBTtajVfsI0q1RtpHVPUmwkuMlPiaqdW0bZV4LREPPfKTgki1ldojDXxaXYlaq+L6sRFolF0TKBT1y2WNDCVbppGC3dUszSthR1U1JhF5bjRPVT5+yFVKwgobRESeAn9Tp5IVRbLhx45kw48Osi+zWZvJMWUtQWTH8QqPLWYHOyssIIBJZ5zB3k1r0JTO5Zq5WexPt1tYAb4Kvn89lYCwqxg05TmwVPPBwmUMWbEYhVZLhDuB9UZZGcc9STGoRiJDQ34O+Rn5PPSrBaOVZkvEpcb6XwsiYtUI7az5M4ZQVBmEafMUft17kHtfzqe+QagIwJWTInjln/FUBn7C4AkD2PD7NnLyq1jtBREPve3/N92I8gg9dGpO9PLBbDJK7m/RuiuXTLi6hLtcrlSSlNVApdpMkX9rEo/XEvHQemgPRKwmC5a9Rh44VMztZ8UyIN6zmcxWkw35l3Xk5dXyNFkU1TQ/ZLlShU9QCOayCnpWKTgW4vq1erJbDw/UsOSfdtmT9gLrrUDkaLnHFrQDREqq5Nxx/YXkFNfClmvBJ5PPvq/iWLaJp++IwGZTYItcS9KoeHZmHWHnyt8YtkqAiKZDEJk6Lpqq9T+iiQglaMR49FmZ6A7vRxsegWbQMKo3rKPUKOOZXaGILJnnT6un9znj+dfSo2QU1jE00sIjN4/Ax9+vyZ3loeV00m5EYP3F6YPx84lg48Y9JNXeTF6JnjdXVDFumIaLJwRRWXU9g697WKJkL/9hE+baOm9g/a94ON10DSFIGmZSUZQcRENFKZZG/7f4aAjz1Uj6eS5gIh68QIG2nBBSIOQkv4l7aHKvy5ArlCiCggnMr5LYXBmBTp4SICXChxcGJKGaFPKXlKv53wqs11qpKzHz8u5ibhwfQUqUtpuWGFBjxbi3gT/zqllw9ATmRo+PFCsJDEFdpiO6Eo6EuwckIf5qlraQPenIneVpS2TK+HLyy5Wcd9ZY+vUIpLhYR/76ZYRrVyPTVFJXdjY+o+8kvnc8unozz3yynd66Q5LsibvJhg0lRdTu30v42ZOp3LaRwGGnU7NjMwFDR2MsL6Uwt5SHfjVLlsj8aT0JLz7Ms0ciOVFYy9BQIw+O9UGV1Itr3zyMRark1f1NgMiglFBmnDdUcu3tP3AI/8OL0AbuwdoQSY7mNoaOP5+AEF++357HwaMHiNZ6kw27/8l0zxX8LQqCDUrKY/ww6qqxiNgHEBGs5ZGyGJKvCkMe4JpsSqAcIhSQZWoNJJEK8JdDhmv5AKnTaAWoZZDjZHHYIFdj5v0/SrljUBQxx8wwoPljWOCNIQx8QrpHubrlrP7vgIjOim5/A//OLeOWSZGkdieAtJjl/I2VPLs9nYJ6g+TCUsjlqAOCUFfUEVoDmSGuXxJtLf2uxESEFLyn8kSE6S4C60L25IgukjsvTmFwUhA2m5VSnY0Gg424UDkKhRwR/H5jjWAnlbRONmwnJnL9pASmndkTk05H9Z9bCT/7PKq3byJo9ESqtv2K/4DTsNRWk59RxIMbzBjNVhZcn0xozl6eS4/mRGEdp0Va+ccolQQi0944jNX214GIIFv06pHE9PMSpWx1If9SXGVBq5YRGaSQxNc27ivm9a+PMaZnHTG+XhDpni2+e3sV1U4TalTk9PKnoaYaq8W+uU+wBXHLnalERncPC7CtuzpRrGflH+XcPTiCAKGQENtcUdVgNKFRi793/zvwvwEiVjDuaeD1gnIuHRFK6l/4oB0Pv/y9Uv5VkUmx3g4YSqUKpZ8/oXm16NQWdO0EyRznO1sijyzZx/6smlbrqtsC6zIZwfUyLhpfjhBgFNpZQm56zmW9GT84wmUcGYW1PPPZIcp1xrZlT9oBkbkXGhmQosNsMWM2mVCqtFKAUib+UyuRybWS31nk45TXWLCaZYQGm9Go5JRVyxE/abRWQgNUUjJjYYkZFDYwyUAl4ipgMzr9Wfy7svHfzTL7sZLbQIZMITTS4J11EeSUd+zudGSsZ5do6BGp5ZVZw6X5cW4f/JjBN9sKpH/yZqx370bfXb0LCm/vSg1ZvQNpqKqQAES8c6OCAnk4Jgn5tL8muc/5/vZk1/NNWjmPJESgSlVDiH3d2UHEa4mc0lpwiYnsNPC1tR6LzcIVo8P/AmxuY+g6K6XvlnGb7ljTj3bGhQ8DDxvY2QH91z2Kb/fniQgQWZ/pj1Ih57Fr+3FarxCXmy2u1PPg4oNU6hrcBhEROP/XBQaiQ4NITB5irwdm17tEJpKyBHlBcHXNNkrrjMx5Zw9ms5V/3zqYHlE+PPLxQTKK6hjRK4SHpvaVxjP1+W2SfL+Q2FdgxSI5pEXU0yoBkWiO3+3g0ViMTFiKWLloUA078vzILnMfRDJLNCRG+fHqrKEoFa5fgB+vz2H1phzpUuOTaon1WiKn9H7/1ScLsOhVqiIrXonFasZsNEr7yMjgQB4JSERxW6A95vF/0DYe0qFvUHCBQgFD7IKoXhDxwINwBpGcndWsLqljzgVCXdUDnXe1iwIz+xcW8JRvHkZpMwNtQAjWulp6lMlIP4lbqy0V35bD6D5LBILr5U31RNJKw3jiur70iguQNvq8MrMkf94nToFSoaC8xsD81Ueo0pW36c4SeDBuYCRhaiMbDtdTXW+yg0hYMCmpw086u1KeyBu7JHfWyYpSTWmsJ9LSneeQz2+h+GU3+xvRS46Vy4dUsyPfl+wyV5XitgYnLBHhzkrtkcSsC5JQq+TUG61kFFoI8pcRHyrcCjY2HyhjwaojjEv2urO6+gr9X50XqlegUWqpDFNiqKmW3MSDtX48G56C7FZ/ZC0sz79ynCazjWe/zuPGIaH0alDBILUXRDzxAJpA5Dc9TxeVceOkcJK7IAMgFktWThUn9vzG92lZ5O7ZjrmuWgKj2MGTmDQqiYFDx9C7V7xUVbfDVmFhwZqj/JZpj1eIr3BtUAgheTqqNBbqVW1zvzsCEbEpir66JWMdEDGRKY3aWeefOYY+PYLJzi6nett7hGh+RaauQF81GmX/++k5tJcUWH/x8y0kVdm1sxyB9Xs+y2RULz+yf1lIYXEtc1/4Nwu+LeKB803ug8iiNHvGuiPZsB2Kr2NOHBUopaJgjtowTlTiJhUbqXiVnbJ9xeDKToHIsJQQbjx3CFarjCNpm/DN+gRNwF5sxlAKlVfTd+z1BIX78nNaEfsO7SVSY/Wyszp8Wf4zDpDbYECJluO9tBhrRTKyVXJXvj6qL3Hnhbo1SCF3kp5TzrE9P/PrtnwKD+ygXl+Lj08QMQNHcu7YOHoPPIeU5FCp6kRnW2mNmRV/lHFXnzBkPVVeEOnsBLZ1vAQitWpybQY2HzVy3YTgTnUr9piaCh2vvryAlxY+i74xK7utToRf/tYL7ubBN54gMT7MrUUwe/5O8nX2zFONX4CU3Togw8qemLazUV3YWR8fYl9Ga12s7rJExBglKfgJ5VRWK5l53Xnk5tdj+/166pXH+fDrcjLzLcy9LYyIIH/MEctJGZPKwROlbP7yS0k7S4CI36KP+dc3BVw4xI8500ZgtsDv3/3AOzttXHOWnqSwnvTuM6xDS+SO13dJOTgdWSKS1ERjKWPhrpK0iUTvjenrDhB3/GaXuAG5zW6J7MzzIau8YwafsET+PWMwWm0Em3/aTrJ1FruP6Hj/yypGDtJw7Xkh1Oum0ueaJ1ArZaz8aTPGmloviHTqjfy/O9jPJEepUtPgp8RYXyetnxmTkrhkUpxbno28wgr+/fizvP/JaxiMJ6e6zLnzYf75xEPERXVuvxKz896vJYyI82dYvgzjeKU3JnKqS0aAiPa4nPt2FfLIZTFEB3fslnC+5udrfuPhmdPIKytqkkDpaEwhwSG88MQ8Zs+5vYNDbfz2ViYLCwsxi88cmQyNfyB+pbVSgN0kKTy6tq5QfD0twChAJDoojPHjT2f3ljX4lz/M5f/I4FBmg/QyadVyfnojFf+wqxh2+fP2jPXGZEOZRk3E+8u4d3k2/RICmDbMAHoDwVU1HH35TUJfuJewqGiSUoadFISFO8sdEHHInkiJio2lg6UqlU7li8UsO/4ulT1uTBRrcmcV+JHtRkXElGgjL88YQmFVELZNF/HLviPcPS8Pg1EotMKlE8NZ9FAcFYHLGTqhLxu2/E5eQY0XRDp6of5Dfh+b68veIX7oK8ux2qz4aRR8OHYQvpNOHkgX1sdnb6zk0RfuIb+k1O3E357xUbzy3IdcdtOFbn2QOqaptNrAW7+U8USfcAyxNrShHX8AeWKK/77sLF0NpVtlfFJfxSOXJbj1xeD4SH1l3ns89ewd1Oo7Fjtr+RB8tQpun/UQz7/4DL4+zZS7lsfZvqzjrvyj5JXrpS8btZ8/cr2J2DIbJ0JbU37/E9xZQgpeyJ6MOG0EaV8/hblmOeNvOyYpkzravDviuOqMcSRPXYbNouPV935i/JL5UsxAOXAAL0VNQ6/xo3esDzHGMsZ88TLyOh3KiHC0D97DwDMv8IglcsUzWzA5JXbZq1TafVkSeDQChuTqatHkMhtXDK5yy50lQKpvnJ55tw0n+2g1yqwrmXT7ITLyXfN/0pb2JSLySRLOmybJnmTkejPWPbGBdXcfgQY5vlYVleEqDHW10j6ycEw/kgcGQXz777fwXLw57zUefOofXRqij1rLK8+/xK333SUxEN1t7/5awnWjQ9FWmFAl/DV0478tiJgO6vmxoZ4BCYEkR7pPdVvyygpuf+hazE56UO4+QMdxolDTS/M/4L57b23F0nEcYy00sXt5CU9XZdpzR1QqhDTK4MMGdsTpW+V3dAQiot/ucmeJjVJQfKdMrKBHZCSjRo1ix9cLsOne54yZrgKMbz+cwFnDJ9Lrqk8lS+TJT/6k5+ZNDN6/TqqbkBnaiy9Ou5kGla8UwxmYu4OLDqxAYbWgio6i8vW3UEdHt8ugq6ky8MF7+6SA/sxpAwnq6cPHHx6gpLiO5NRQrry6lzTFlioTR5UmQk6YKCiukYpYbdldgEql4NwRsWw7UEKlru1ET/HKXjGkkh1uWiID4mQ8f1sfstPNqDLOY/ozmfy8vVlDLcBHxdaPUvALeZ6kc6/4r9fOEmxorcn9ja2z7487x1sUNhoctGx3TujiMbE6JeWxfhjrayXp9uggLe8WJiF/KbTNujjSh+j/Tzx885m3uOfJu7p41ebTlr27kmtuv9ptRum+nHoOpOuZqtSinCiKo3UhwNLJUf99QWRvJS+k1/LklQluT0l2cT1j+8dRUFHl9jknO/D3n7cz9hy7fHtbrXZ1FdfuPyD9JNwpPmERWMoqCGiQtRJpdJY9aUvF11EoqzsC62J8DtkTkYd7+cUXk7t7N9aCG3l9WTmvLiuS7qF/kg/fLkymXPkPTjv/NizmKp78ZCcJUclcottK3vxF0itWEJTIh2PvbZKFSC45yrS096Q50MTGMPiLr1C0w3Zpy50lKL+ixPHI3s0CjC3nWzCj5q8+KjGnVj16Orml9dz95m5J6r9lExRfiZ3lJogkN0rBmwkn57PH8Ilcw9mzT5CZ34BSKeOr+ckM7BlHSa8fGNHfl582baXkv1gKvm+pBoMobSCzb1HC+yrWhWA1C5EAMaNWSe1a/CZD8tg2bq7S7zJ7WQRRxE1SA2m0DkV/4jwH0UH8Ln4TTZRbFn4BxzUja5Vsj6/3yHt6sk5SKzUUpgZRX1EqjXWsOoh/3doXYtq3QjZsLuDyC3tQXdt5odWWYwkPVvLDrwWMGOaaj9XuntJg5a6PMnlvYAzq07V2anw3t78tiGRtr2Zpfi2PX+5e8EtvtHHN5LF8t+kPt32XHT2byeMn8cOmDe37NfPMPLfpONuPlksbqDogGGNdDWF18lYg4pon8tcnGwYJFd9xZRRWq7j96nMkieq0L1fQI+AlRG6IKP8aH6miouIGki68j6BQLYu+2UNJRRk9olO4/fxEjn60hOq335GmrSgglk9OvweDUiu9nNepfydhzTcorSa0sXH0/XAJmjDXHBRx3qGSev71zm6w2Hj8hsGMTA3k3rd3k11cR2JSMK/dMlAay70H81BWmrhoRBwXBWh5b08x3351XLLWVj4yClNuBnN/aiC7uHVdliYQ6QTF975Le5GS0IPs3HKsf9yJRX2AgjIzfloZEUF+1Aa8R78zTsNksvDBVxsIwPRfGxNJrVCT7uRyFWv3stHVDIqv7xapGaGSPGdpAuW65o07qVJFZkgbMiEdvZSd/H1ghR8nktToqyuldTpvXCr9J0e320tDg4kzx47mj927O3ml9g+/5IIprPn+G7f7e2RVNndPiCBGp0LWy30vjNsXaHHg3xZENv9QTl6ghWvHRbo1N/v3HmDosMFtfpm61UEbB2k1clYs/50pl41ppwubVFxKZKCLJpIPxXdcZJmVgkBXdc6O3FndSfEVYxMVH6dMtMueRCf2Z+oZCRKdNX/PcUyG32kwmwhT98N/wEgCAjTsPFbBRz/tJcjHRI/YVGZdmExhhYFP7nqeM9J/lGIkJyL68PXQG6lX+XHzxAqMGw7Sc/0alGYzPj160OvVhfj0cLUkr96fTcPqXGm+hl7akweHxnHjm2lYywwYglX8cP8oXq6o5PdFh+xgdXoo28/rx4SV+wg9pEMulzPj3n5MzDzGm0cD2XakvNWzUchsXC5iIm5aIoKdFeinZvZFw4mP9CO7xIIi62eqGrLRyP2whU0mtU84gs8/b+VhfMx5/9WyJwJEMkNNBFjUmKxmVHIlfaP1HC8WFUA1YLGgV1owyqwIW0PYFnIEXaH572LST/ZbgFWNXJTjkMuYPqGUT/+IoM5kQykT9QFthOps3Qoi4n0KNCjQqHyo9DFjMjSgVcn57OHTUbdIJHUsIGE0bU3L4dyxqeiNngO4EH9ftu4upG9qoFtb0dqdFSRHq+in14IXRNyas9YH6ax8ua6QxKHhDE9xj5X1+OPv8txzs7t4wfZPu2nqOSxZ/nO71ojx6QqutNo3PLlCIcVFErMNHAttcFEBdaX4HmRfxsml4F9edZRNB0o9dj8SxbdRgPHXTH/OHh7DrAsS0aoVTRnm4mIiyL52ewHv/5gpZayH+FvoGZPSBCK3L/yTCenrmXj8e2lsWeG9WH3abfzzUgs5FVp2rd7HZXs/RW6zoO3Zk75vvYUmsvlD4JbDeZQvz5LiKcPPjeefpydw05tpmAWIhKj47p5RvK2r4ZdX9zeByJ/n9WX8yv2EHazGJpNz7W2pDD2RzrLcIPZkVLeao6bAeidARHymltcG8PA1fRiQKDTFRIyquWvBnJn/5XEOZVUxIbn2v7rGugCRkfUq+pcfdp07hx/KJqPOP4GXUmXY+Wmda1qLnOcOVaO3tl7jEvjI/fgxOonfI3VSXk93tf6lGk4kqjA36LFYLPSJDeDl4FRk1/i1eUkxlHuuu5U3l3/k8SE9edcDPPn6y24RhAoriVOo0gAAIABJREFUGtifa2Cy1gf6dKy4cKqD/XtaInsNvF1SxcXDQ0kIc8+cmzxsED/vsccnPNmSElI4dOwwWm3b4zA/UM7UgMOYJDUOBdrAIJKO1XIo0pWh1VkpeJHRfceiNEqq3VMJ7uieHTERYYmsz/CTgor9EgJ5acZgl1M/+zWHVRuzschEpnbbICL21tMzNnHm0W+k79TCoDiiX3wMeZgPf+xVcuyXbVy/4x0JSNQxsQz58kvkSrsq6i2H8ihfYS+xe9rkBAlEbn5jJ6ZyowQiP9w3ijeqa1j/yj4JhIUlsuP8/oxbsVeyRERTyO2+eIug+7axB3UVRITsiUoh55OHRuGndfWZ37kojVzBxPsbaGcJEDndWEuPXXNpzLyR7sthZ4g/W3q9woK+KowWs/SMRR1xKQ+nMSlW/Fl46yXatSRs1lw+NqxOyd1pb2CubZYIcr6Own8kG1PvYFNcjUc9By3fAQlEkrWYRIKhzcaFqeHMVie0CyJlOispMVpq6jxnhTjGNKRvDFt25+Ov7ThQbjTb+PKPIq7pEYGsR/uxm47eeXd//3uCyKYGFtZVccc5EWhULSSZ25iZUp2Ffgm+lFd3rKbr7sQ6josKDiKroACtj2BKtG7mf5ZzY9gxag0WydWiCQoh8Xgth1tIxDtbIv9avI9DOa0FGEXv15yRwA1n9ZQuVFDRIIkh5pedWgBSLFtJxXd8GXnldu2s0X1CuOfS3gT5uYKjAK9Vm3JZsSmXuJC2QUQAkPCjT0j/xW6RKGwoe/dC9sDt9O0zgcU/ZJC79mem7PsMtdUksbUSn38ObXwCs4vr7ZaIkJ24JpmH+kZzSxsg8ssr+ySgk0DkvH6MWylApLaZq+KUL9LyqXQVRIqqfLh7Si8mDIxo9cWYVVzHgi+OSbGb8X8DS2RUXQlJ+5+RAMLemjc38Sdz6gLm91FittmDyw5atYM077IVymR2pYDGnsJqldyV9iaWuiMt2EX2ayn9R7Gp1x1sjK3uVhDpW6YhM0kryb2LK89MTWBK7ygY3Xb+xdFjBfTtE9fZLcKt4318/cnMyicqomOXlgCRJRuLmNUz3OvOcmt22zpoSwMvV1bw4CWxbnWRXmimV6x7FotbHTodFB7oT3ZBMb5+bYOI5e5Sbow/gU5vVwT1CYsk4UglR8JdAc1ZCv7B9/dyJK91QFhcVpAxrjmjJ9POsOfG5JTU8/SnB0/JInGAiMgTKShXYQtK4Z4pqZJLqSy9gMrqg9SZdfQM6oV/Sn+0GgXfbM1j3c7jBPmZm9xZBRUGZr22w2UKzzz6PeNO/AJyK9b+wxi1aAFWH1/mffwn+q1/ctGBlVKwXR4Siu/s2dwbOQC/n0uklzr2nHCuUOp5a3sD1koLhmAlj48L4hONmuKvCrDZZBSeHsrjxlL+rQ+WLBFfhZXYoX6cI9exLlNOZpnzN659aJ1lZ4mYiFql4IZzhzI0OZiyGiumnL3kV2cRoPXHL2IEcQnB1NSbefijgyT6Ff1Xx0QGFVUw6cjbBNWLeJJ9Y3cAgANShCXyUi8RB3EwsQSbq6VimcP/1bwkxCHRdVpu37kQS+3RRgCyR0/sYCRD5T+SzQPu5Newyi44y9x/g4UlkpHig6Gmyg4ikXFMmRzf7sa8Z/suho05zf0LdOLIQD8fDu1PJy6p4z3NZLHx9k853JMai6x39+xrzkP/e1oivzewoLKcf17s3lfB0XwT/RLUHmNlOU9wcICK3IIK/P3bzm613F7KjcmNICKXow0OI/54DcfCXN1QwX4qPnlotNT1qs15LP3F7tJpq4ks7OsnJ3HV2DhEzkp5jVFiMNXUd83MduSJOKTgZ0w9Gx+tio3fbyHVdi8GswGDyUagn4LSkvvpf83N+PgqeXXlb5TpjCTHpTLj/CQcICKsECFBItFrbTbOOvodp2dskFwjAaePoe+CBVT+8TtP75KjPHyYq3ctkY7TxsfzzAPPYllXhVppZsTUZGanxjH3020UZNqwBctZeUckS+tkbF2cT1W9nHF9a5k2No4719VDjgmV3MrQ86N5bFRv5i0/3HZgvZMUXwEid16UQt+kRErL6tH9Mhu5/y509VapnoiGEAzRH9FrTCoGo5l3v9hAiML8X8nO8jXWMX3rawTXl9rVkBX2L2NnEBEbvjXpWeb1skoZ3kJJuTOxi56GAG7Z/CQWY77Ut1wRKMWy7CAC6qBz2Bh/Ib/GtY5ndWJf7vDQPuUashK1GHT268yURTPlviQIadu7sXf7boaOObmAaIcXbecAH60PGceziI7vmCgkQOSddbnckxrjtUS6OuFsbuC1umpuPysCH3XHPOkKnZkRfULILKzt8iXbOzE2PIyM3Fw0IsjVRnMGEYWQPwkJJ+F4DUdbgIh4SR+c2o8JA8IoqzZw+8LtmKzt35v4orvlnESuGB8vXbWsxsgD7++RAKUrTcREBMVXYw7msismULT/MKacG1i6tpi3VpdgMsGwvj68/XAP6gOfYuCkK6mqquGzjfu45uxRhAeoySoxcM+brpaItEnYrDym+g7rmo2SdePbtx/RN08jJyCJPwplHF63lWt3vovSaqYiPJqXLn2EXqFmFl4oQ+03nsrKb7l7fQQ3xxZz7ohhrN2hY/2uImoMCl6dXkdg4Fj2H1vH4yvsHxUfzh1OhNaHO9/cQ25pXavp6KwlIvJEXpoxCIUygmOfvExg9KdMm5vJ8VwDKiV89HRPUiL6YDr9a3rHKlm78XcqSv77ZE98DXXM/H0+gQ1VmOVKfhl1B7XyPvgoNERoZFSYbYKYJbUSPwt5cnsMSDxTd0FEIkxkb+X8g18ht5koCYwn6pob+O5IistzqrdaOBJk77+7WksQuTQhnOnT+7Yb3E4/UUavVPfyOTo7Zl9ff7KyC4kI77hmiXBnLf61kNk9I5D18VoinZ1r+/H7DSwuqOLcYYH0iOw49V9kP181YQxf/b69a9c7yVm9Uwdw4OBeVOq2v15cLBFROjcgiKTjdRyKaB0Q99Moefve4Yj4SF5ZA3MX76a6vv2EJgE8085M4LpJ9hhJeoGO55YdkaTaO9NEP6Km9MUTyugZFcXIkaPYse5tVOWLOGvW8aakKgFcK55JZmDvs+k39T0pY91qq0OpikXfYGbukgNkFLUN1KIoVcAPv6Jfu05yXaj69kN9/wMkDxrAG2uOU/HjT1y8fwUqjKhiIimf9Q8ikk1sOd6biwbv4bdj/UkJzyQ8KILXv60lp1xJUpSc56+rQaNN5UTufh76NBKNSsbqx8ZRVKFn9uu7XCRbHHPSGYqv2PSSow0smDGEzFwZmkOTeej1DFasq2yybGMjNGx6JxWL/yJ6Tz6LTVu3kp1X/V9liYTXFnPtjvcI1ldgkqtYM/haDsUMbQKIi4fXsPGQP7UG13Xe0s110nVnszG4YDdT9n4qrYGc4J4sHzmbBbOKefqLWEqrmzfExCoV2cGmbndniRwRY61Ous7I3iE8cf2Adm+hqs7K6QMDOZLV+sOkM+9bW8eOGRLHhj9zJcu2o2Yw21izQ8dVkT7IUrwg0tF8tfm7tdbIVxuqiExRMqG/e1LNLy9cxkNzruvS9U520j233chrHyxt9+tFgMjNSSeoaTAjUyqlXJGkXHMrS8RxjVG9QphzZW/8fVSU15iY++FeiirbVv6VvgKBm89N5LKxcRIrKaNAx6NLD1Krd81D6ejGHeysntHRjBwxgrRVj2OoW8mE6cdcBCqfmBnNTeeMI2Xq6kYQqaXOGCkF+I/ltx3HEWOcc2k9/oGx+H77A3Wfr5Re2uAzzyL1madQaH2Yt+IwVT//zJT9yySJlCq/EIz338T7u3vywrV5LPw+SkpGO3OAjtP71FJZF8q4oaPAsAW9JYaSsqP867N41Eo5d12SytL1OZTXtD1vnQmsi7H3j9PzwvTTyD1UgSz3MiZOP052kavF98fHvYmNfoyEyTc2aWd9cSjQ7S/0jp5Pd/4eUlfGdTveJbS+TLJA9va8g3W9E7AohQtYRClsTD29iu93BaAzuLKBHJnqkYEmpp9VTm65mrW7gqisU6BVWTlnUA3f7bIr1g7I38UV+5ditcopCIpn5cjp1GuCeeO2bJ5eFUNJTfOGKJIN88JNjEqs4/cTdsqtv8bCBcOrpbhgWrofJ0o0XDS8Slqfe7P9yKvo3Ibar1RDZk8VxoZ6Sf59SJgfz6b0QXZR2/FNMYZH7vgHL77zqkcfh/g4m//o8/zj2Ufc6je73Eh2iYEJCg2y3l6Kr1uT1tZBO3+uYLfSzMwzO/YhivNPHMqlz6BELGLFeaiJDWv95iLGj2nfxLXMLuPGxHQpsC7kpsWuH1lmoyjQJNEf22qDEwN57pbBEjCV60zc9fqf1Bna58uLgP3MC5K4cFSslLtQXWvg9kW7qTe4DyQOEAn3D2PSpNP5Y/3n+JU/y6Tbj1NRbbeGRPzl+9dSiY45nyFXLpJAxGSu5fFPyzmc2zabTJwnXvoP7/Yhq8iAym8Av8x9kXEn1kt9+g0eyoAP3pOYVq9+dZTs9du49s+3kSnM6NRBvH7m07xwXT4L10ZTXK2U5mR4ShAPTClC6386hro9PLEyiAm9TrD41wi32DydARExxpQYIwtmDCarMADVngksWZvLU+/apWBEG5QUzLevx6HTvM/Ac05n89ZtnMir4qtDgW6Nx0PLsUvdKCwW7vntWQIaqrHK5Hwy6i409CY9zDW+NnVMJT/uCqDGaAcRuRNvS4TWx/SupbpOiWTlja7k2dWx0nPzUVmlbPTUokNM3bXYTr2WyXn9rGeo1dg36zen5/DMymhKajXS7yKWJkCkPLaBt2bkcMPrSdJxPcMNJEcZ2XAwQPq7Wmlj9jmlrN4eyv0XFvHo8ngXUc6OJiSgQUGg0peSQBum+lpEedyv4gfBrPYZUidyihnRP5mqulNjRDqPrUdEGGkZRYT5K91SwvrmzyL69wimV60CUjsHnB3NSVu//z0D60DFAT2vHS7j6avd084StS2evHsuL7zz767MY5vnXH/NLSxd9qGdB99Os+it3LRwOzqDBZVvAKb6OsLqWmtntTx9YM9AnrlpoFQcR7i2/vnuTupPEu4QY7j+rB5cPcHO2jpRVMfjHx1Ap3cv2O4AkXqDjJuuvIjs7BJkadPIqcrnw68ryC02c8+0UIb09sEQ/Bm9xw2RQOSVL3bx26GTL+QhSYE8drWNQ1kNFOkTeX/NUSYeXcu4jF+l2/YdMYJ+r76KQquVvnzLft9M1sMPYzUYUUeH0Oft50nLULNxww6uvymY6NBQvl9by8VXnMf+Y99TXWfjRJGG73YHufVsOwsiyREGXpw+GI0mnO0/rSPO8iA/bati2Y81DO6tZtaV4VhN55NwycsE+iv44qfN6Kv/8+uJBNVXcusfr0kAIlxYq4fdSpQuj6H5u6RAt03Qd4V+lsyGv9ZCvV6BRaoQ2XqafbQ2LCJmYlMQ6qenrE6NjwqUSivVtUpC6stQ2CxU+obz4fg5NCh9m7p5Q4DIqmhKapq/qiUQiWvgrenNIJISZeLyUeXsyvDj14MBaJU2bj+nlEU/RnLjhHJWbw1Gb+mY8u88+n7VfmT11KCvqpA28Gd6pTD0hph215HJbGX6FVP45Nu1bq01dw6aM3MWr7xnlwvqqImpv+fjTJ6+OJ4wUXLIm7He0ZSd5PdDRl46UcKDF8e7leUpVn5hlYULxg9m78EWmbhdGEZSVDhrftjBwGGJJz3btKqWW9IPSCDiExyGprAKC1Z02o5zfYclB/Hg1X0J8FVRXGVg7uI9lNW0DwoiDH/NmT249owe0pzsz6rmvbUZmN2wvvzqFP+vve+Ar6O60v/mzetVvRfLkixZVrGK5d5iU0wLhJbQAothQwIJJGwgWZLsbgjJn0AIZEMSSoIhBBYIa0qotnHvvcpNVrN6eZJef29m/jl33lOX9WTLwmvN9c8/yZ47d+6ce+ece9p3cNnMRpxoEbH8+mUMnbjicAOkQ0/DrNsGldoJT1cehKQHkTGnBAFBxB/f24vW7g4cqBneLzUrNxqP3pwDwXsQ2yqceHW9lvkrKMJs8dEPMScoSGyLFiP+xz+GwWJjzKb5449Q+8tfQgoIDBql/ppb0WaMQnlxBhKS4vHLZz+AEJeLIzW9ETwh08pIyzkanwiNRdFZCwpicMPCInhcAZzY9i6M7W9Ao6+B5LegjV+MpKIHEZ9mYzT/bMPWC76yYWx3I27e+RIi3W1MgHxQ8HXoAh5cfuRdZk7sSU4fkphU2UuU0RiDbSDtyQjGkhCDSYrUrdUcjzfL70WnvhczzWIQ8Js7avGz/0lCvb2/EGlP9jAtpa8msqTAgT2nDNhTZYSeF3HvJa34709jcdOcDqzcHgmPf2SfQt9XIgDG+skWuO1t7AAzx2TFjy7PAQqHR8I4fLQVX1s2E0dPVY601Ua8njcpDx9u3oaMxJEd6jQYWSZ+9vfTeHZaAvgSnYyKeZ7bRauJ4Lgfqx0u2Kw8yjLDWwCi9drVe3HzTUvQ3D64cmC4axEbocfvX9+EG68YOdyPfCJ3ZFbC5eeg1htRctiLLamDoeCHe3ZZVgQevnEqTHqeCZBHXt6HZvvwPhJizt9YmoEb58k+EkkSWTbxSE1qFuA17sThYzxKSsp6utNp9FSLiG6XhLwUnmlGVEvh128fQUNbM4M9GU6IlGSZ8dgtRdDwHLrt+/HWmlqs3CdrCxQGTMJiwbFPMLdyNcuGPhpfgJXTb4Oo1rKQ35z6fbhu32vgJBEdlhi8VvZtdBsGV4QbTXQQPXu00VkkRIgbLivPwyUlCUzAOrwiKP/IYuCQEasCx/Es+u/fXtqNWekuJBikC9axbnXbcfu23zMfiMDx+HvxN2Hwu1hgAzF+lyYaB5PymH+EGmklU62dqHRa4BvKQspxSFZ3IjLBAI0YgCNgxvEmAWkxPkyNBU62+NHYwuHjKdfBp+5lztEmAd+/uhGpMT48/GrKIJ9Ie7IXv7+7Gve9lIaAwCE5UkB2ogsbj5rh9qnASyK+s6wVb26OxrcuacJ//T2J9RtNS3Co0R6vR8DrgRgIIMGswwv2THC/GN7XSoE6qz74CDffejPsjrOP+IyyWvHpJ5+jbPbwSOAD32VHpRP1rW5cw5nBzVCKUo1mrQf3FYGmVV349+oWvLg8M0xtRB5m89p9uPHGGahvDc/U0/fhsZFa/OEve3Hd1VPDqrkeis7y80ZwXU7YHCrmDxlNy0+zMnMKNdJICBr9TGYqEiRfX5qBbyyQw3/DaVKbAIfjCE60eVFcMnxCFX1AT7x5BNsq2npgTwYKEfqMU2P0eOZbxSxJr6Pbh1Xb1qCpRcKnFbI9O9To1HvdnlcxtWk/EyT1tjSsYDDyZHUHUtoqcdv255kg6TbZ8Pt5j0HgB0QIjSLE9FyESE2LDjmpJjx+53QmGPu219c14O/rKkEx/PMyHEgyXphCRBPw49vrn2BhvIKKx6vl9yOxqxaXHFnJBLtbY8Kq/J9iP4NC733Hm+d04B+7rXB4hjYXqXkJc3McONWiQ12rltWDKc9ywqgTIEocth0zwRfoTfy06AX8+/WNeP6jGDzytUb8x9tJaBngWG+I8+K3d9Yy30fFaT1eWROFJ26rZ34/0jpWHTDj8a/Xw+lR4U+fxaKujyYTzp6nPhavCraABs1xWviccmDI9bPSceeyM5vJ6f02fLYDiy4PXwD0nVOU1YIPVu3C7LLsUfGuZz6swfcuS4XKLgKxozPdhUuTgf0uXk2E1OTjfjx1pAk3lEdhcsLwERVDEe9QxWk8/eAjeGPtG/Ccob5633svWXwZnnjyKZSW5oe98Cw6K7sKXpUeliYHOnSiXDJ3lC0v1YKf3Z4Po45HXasbj7x8AF1ncJIQQ5iaZoM+CAujUrEqsuDVgBCQ6+0wXKkgnzA5gTlFlXAF/KjuHN48RXhUAZKBQeVmd6URLV39I3amZ0awUElitLXNTvz8b0cwI7MR3m4eB1picfWsJKhqjsGuj0bKJBl2O+bt59H98YdsQkfjpuJ/i++CwJOjUcKUhgMMtJEy27uNVrw647uwm6J7iwaJYr9sadJMFubHoDQrAqpgvYUvPt+OObPzUOfg8OmOBizLbQ0bxdekFTB/mhMSRUIE6UXF6CjQgEhIwRqiQFqffD0z0ov2Nh3e3G8ZtrDRKJd/TLpHOVtx27bnYfN0wM9r8L+Ft7GQ3sXHP4JaCMBuiMKKWQ8gwRXTz7FOPqQbZtnxjz1WOCk6izZSyA94BniZvpNm5YlJ2BNitCGAB69qxhubolBRr2cmq6Gis8YDCp4WrbzBhIPTjPB02SEKAVCpm1dKC2G76swQJIIIHDtwAo8+9C28/4UcKBJOu/6Ka/Grp36LzNz0sPkIjVtx2oX3dtnxw7RocLlaIAycrXDmM1Kfi1qISO0ig5pYsbcND1yZwGLaR9NoE3z8v5/hxVdfxIFta1HT0gr6v74tJTYSk6eW47s33oFL7/46LIaRTUN97w/c24LlBc3o6nJhWjWHvYnDm6JGmnvx5Aj84MYc2IwaZht99OUzh//SeHT26wEhDEoOgqcgSjE7dhDTyOpV46vzZSh4ws4arvVQuE/N8r59yY/zo29MY0mghOn1izeOMKF33YxOSB4O1126FJFWLdzVJ1Fhl1BclMVup+Eqf/0k2t5+m/17f9J0fFR4a49JJb9uF6uQSAmJbeZYvFVyN9rNvZF5PQhPkoS7l2Xiq7P7wkdI+POf3sc377wUKq0epxq6sGHr+rCFSGiCjF5EuxAd+yTaMfYYnMS8TOcFh+Ib7WjGzbteQrSzpccHohH9uOLgWwzEvcmchNfLv81KG0/u0EKt5zDJqYKPIGn+GbWVmeLA6ToD3BIHjUoDv1qDNRFdg6KJaD/RgYVCD0WOA6+SWEkB5o+XwLTXB5d14uCKeFR38tBIPMqnO7B3rwUeSQTPqeBW+dAGDQ5Fjfyt9F2Lkb6f4a6b/CpoeRVcFgO8QW3km+ZE3FCeDCwc2WTk9on45N3P8NQLz6P28Bo0trlYWYBQI3qkxVuRMmUxHrzvXlxx3TIYwsgHGTjfZz5uwHXTrJjUwA+L73W2NDjTfRe1EKEXFz9y4RmxEwtzDSD/wdk2qte9/mArTq3/AkKnE7yWR0LZYswqS0CM9eyRMruf7sDdqENitRunIryD8IVGM1/6YCj89ye3TmN1mSmP5KE/7UKHY+RQXvaxDTixk9mLPnQ6Jdq8alwzvw2nRxAiZ5pvaqwJT99TCIOOZ3kqDzy/m2XSU7u+vBPpkRFYPGcuTnj8eOhUPRqrnbDG6dDV4sVz8zIw22TA0V8/ic6332Ec52BCMd4vupWZr4iBZzXJYaKUAU9RPi/PeQhubX8NNNqqx8sPlTCU4furm3CouhMaPQ9nhw+RSQa8mpuOODWHd1f/A2uPGlHdMnZx9iHn8oLJDuYTefug+ZzWezR740x9DT4Xlm96mmkd5AN5s3Q5c6hfUfE2REGFTkMkXp7zfSZAaC9kdugwy+tAxoF/k4clIUB/edJAAEnkEMh8Bk9OCSL3/jM822YAvjE7BkLAize2dsHj8slhwKS+sUMLh2irHz+8phG//8tU3LLtGYheGTurX6MqiobZ2Jx7Hz6Pt4+YZxPScJiWc5aw8bRuZacNOJirhc/thBCQv6ffxWdh0k2xQEyYZiMRcPgErN/agPrD2+E42QpLggGpcy/DzOJo2AxhjjPEYp5odGNDhRvfzDBDlT52ezacPXbRCxEEJLhrA3h8RwN+cVNaODQJo89g4LgwbhrUxeMX8cO/VaOxvgWppzkcH1BD5GzGpHvItPWr5UWMsRKS70N/OHP4L90TEiLsg+a4nvyFEFx3pFuFqxe0y0IkCAU/mvmlxZnw5N0FDCKdKiH+4IX96OyD5XVNmR2FqYkoLyrFgrf2I+Jwb14Jzacrw4gv7iiGy+nBB3d9H5OqdrL3OxGTy+qRyKYtILX1BG4JQqQQ83tlFlVP7DW/XT8vDjcsmIId7V14+oX94EQwbYac+HT/nOtysXyKBZs2b8SnRzjUtYxlnL18+pyb5UWsyY+V+/r7f0ZDz7Hqq/e7cOfW3/VAmbxe9i0kd1Zj0YmPwAsiKxj24ryH4TDYmAAhHKzMNg1meRxI3/toUGPtPVXLqYeAmP00fp2tQgASCzR48o7JWDK7EDnpmXjhxRWoeugBiD45v4gLmm8p+ZD8GS6fCmaXB5AG+wbJL6axzMKG3HuxJq7zrAXDaOmnD3CI8+nRmmyEq0MuZJafYsMv+ElQ3WYGRq059Ma3yZFqZ9/cPgEPv16D/7o8CdHNHFCkCJGzp+Zwd1b4sM3hwcbGbjx0RRKzVV8I7c3NzTBr1bhkJwd/BOCntSfN3g98crgJr0utZz1NEiSP3ToNFoOaCZJHX9qDDmd4NZ9DJgD5VCmHYUZ41bgqiOJ7JnPWUBPOTbHiZ7dPg1nPo6bZiV/+z1HU9YGnp/FJiBSlxqAofyYW/XUvok/1h47oTDZg/b2lTINZ/tud+Mr2v6KobhvzvRxIKMNHBTchwMsMP69+D67e/wbIHDOwsU83qBIQQ2IFwkP/F+wsn17lE/bYHBcGU6XHvHbWKzy2N5IP5P2CW2D0deOSY++DDwTQaorHazPvh0tP5ktKGZS/m771RHqh4PvPh1B8e4SICvjve3NRVpiLnMmT8Lc/r0DdPfdC8staaN9w39AoQ9En9H9qQvHN+TbWkCbyz4jKRbYILHDbgL4GgcuMgEcC1g3A19KrgGUGoEkANg8wh5Ep+nIDsMcHVPXfO+pMLWBU42SrGxsDLtzabEC0VYcMo56F0XK3fzkHAioCt2J9C0omGVDUoQVXHF4RvrHcPRe/JhKklrTPjXfcDlgNPC4pjBq+7vlYUvcMY6075MSBum7cXxADmFSArY8vxS/Pl0Q4AAAdXUlEQVTh85dr8VxDzTnNpjgzAg/fkAMr+Ui6/Hj4xT095qPhBg6ZXHrEbNCcZaV6ImH4RAaOmxFvwON3FsFqVIOq+/1kxQGcbhtsyyYhMn1SMqbnTcfC14YQIilGrL+nhGX23/PbnXB6Arh63xsoOr2dnWT3JM3CJ/k3MK2CzHBTSZAcfgtqv3ewXV729oREhvw7nYYZoKUsNkJXBwPFn/2S9FbM6H32cEz47J8y+jv9Gh3ez7sZOtGLKw+8xd6+2ZyI12Z+By4yYYWGDJqEWGXD7m5kHnq052GhPiGBEMj+DZ7K4uEnVY9O7ek23LEohmkzez7egJotcjXP9CgPJsVqsPUEjzidC/EmCYebbJhVtQligE78fQW5LMgICn591n1Yk2RnY9wdmYhrr0wbl8Q6YasHv2psw6I8M+ZOCS95dfQrEv4d/9jbjsomH76TFAlVigaIHJ1PNvwnDd9zwggR+CUIq914wt2OhVOtWJA7cnGXsSDwUGOcbPLhjU1NeGxREqR2AVzWYPVz1e4mPPve8XOeQl/TFkVr/fsrh1DdHB5AXG8NbA42N4cr5rahoV2DNVXh5d3kp1MU1lRWQpc0iH/97XZ0efpHJoTYORMiyVYUF83HgqAQ6YkQoySqQis2X1/IhMfdz8hChPwiN+xegZym/VCpRByLzsdbZXfLNvZgQhzBlUt9FM97L5/Mor+2nO7CL1/YFwofkL26nApzlqXjhzNT8MH69/D5ASuqW+W16St2Bi7KSNfk07bcOFHEvMkuVk+E+UT6aMVnGudc5zBcvB8jjSihpHYLrjj0DpujQ2vGHxf+GG6NgaEtMMj+Pi27XYtZAQGZJ94PydxgEEZvdJon9ko8lc0xc1aoMfYWDG6hMbMSPQyW5OHX5HDZGKMAk0mEvUGPH+zZAtFHcPOhAI/eReBtc7E2MQOro+XyucujkvDVy1OBcUCsRbcI/1EvfnqiDTfMsKE088vRQOi9Vx/owK5TTvxwURLD9lJFnL1v9lwYzcQRIkQlu4hArR9/amjHpFgdriwOD5zxXAg88N4dJz1YdaAJ95clwuzBkAKEBN6qX1Xh2UDdgMpuZzeTqSkW/PzOAuZsJ35AJXMJniEY3RrWoFyrAE3Efhyu5JA1ZfoZ7wkIEgxaHjE2WbUmc9pPXtmP5iEqR/YVIkUZyZieW4SFb+1HzNFgFcLg6TdkzuonRCi6TBSZ6aqgfidjUO3GOAgUWiuHSjGthCKmGB9UcYg0qWE1aeARJDTZXQD5SIN9KcvaaNEhzqBBu8sNt1OUk9OCEWqhcTgVB1GUZG02dC10Yg4yXflar04jm84ok1uAUSNCy6nQ6eEZgx6qL4tzCEZKs3rtfYoy0VCUh0AMPhQ9R+d1xq7Z84PhxWSKZBa7M1+j2wh2hCLbunU2vDz3ITj0NtmiN2ClydRJPpH6SIHlT/h5SgoFUiL8aHJoEaDDGs9BkES0q4bH4SlIc+Oqkk784fNYdLnIAc+FosLZe0SLWnCSrBneUOzCyj0mptVwEs+SCI3dIiojZZPT8qhEfPWK8dFE2APbRTjbA/jT0Q6UTlJj4bTosL6hsepE9Fm9v4MlbN6ZbZMjuZK+HAHCtpx0tiELY0WR8R6nXYD/dACvttmh4XncNCsKegrqP8+Nksw+2duGE40ivl0UCZ1TAnKGcYB5Jaz6SSWeNTSM2awy4oy487LJmD7ZdlY+IUo2dAX241i9iOLi8Kq3kT9l3cFWvLa6Cs324eHnCWbkytJOFGbGoSSnDAtf28d8Ir1mFMBOPpF7SvtrIiERK0m4Zt/rKKjfxeg1kseLMfRgG2iuOl8+kL4LOR7PGM3GCekKbaY4vDLre/BqDSwqb7hG5qwTUf0FxNdmdmBarKdfRjiTmUPAiFIuUna6B1X1Wrg9PBNy1EIOZrY+fYiUM8mNh19LQWu3pkevIeysqkgZCp6Zs65KGxewwR6a1ATgcAh4rb4DMRYNrimNgk490s4bzaoM3ZfChT/Y3YYut4hb0yNgIBPsOIAsnmnmE0+IEDW6RUgn/FgLP76obMfyhfFIizl/Dql2RwArNrQg1qLBbdmRkDoEORlouOaV8PlPKvHcGAqR4IkBcZEGdhIPfrW9tgJmOxpUoi5o5uFgdqkxP78e1e0+HLaHkekuyYWwCDGYhh3OnBIigRydFY+SAhIig30i9nQj/n7VZPj8An6w4hhc3t4ggRATmlO5OliydXjSpkdwiIzQgZSiU/WDfTPp6VZkxxnRVt+IE61Ap4+HKlgn/NxZgDxCjMEPi06NU/bzz3TCnzOHz/KuRYDXyiL2DEmClCfCB3M7KC6BU4lQayRMmtwNSZKrGKqCEVeCpALPiXD5VSxKi8J/Y9TdaBFMDNtKkDh4AzIdInkPOiXCvArAT7kZqgDEoLrs7rBCb2vFyaNy7g/lbuxJkJ3mdyUm4mtXpQMp43wabxAgdAbwYacdx5p8uHNRImLPIdx/pLVqtPuxYl0DcpJNuDbZBskvgUsby+jBkWYw9PWJKUSIFv9E7ZW+cKG7RI3frGlErE2Hb18SP+IpdjRkpgPWO1u68NnhVvzsa6lIrhYh5aihMo4QD05C5LFKPGccO01kNPMe2JdMQqE8kTMlG5JpSbafBP8SLxqQezLcPChPZGpyPGZOL8PtlfVof70Saub2kM1RhhvT8GK0Fo3bt+One21wS+qzCu/Mj3fju4U6tBaV4lsrjyP6eHdPrgavVuOu+6fhapsZ769/D6sOWsc0TyT07gsyHUjQX5iwJ+HsE2L5JCOYhRAcMqICiNV70ebhoeMlVLToWbDDrGQXHD4eolpEVbUFKYkuHG3SwqQXoeeBRKsPnMhhf4uRfXfLsu040GJAotkLv18NrV6E2yMnJF41345ISwAPviyH6dO+EIP+pG8sSsMti9JGVkHDebnR9nFLwGoXGmfx+M2qJhQna3DT3ESGSzdWjawYK76oQ7Vdwv1LExB/TJQBIMcpI32k95i4QoTtxH/qwrUB+DoC2GsO4LODHUiw6nBpvgVpsSNXRByOuHaXgA92taG21Y35UyMx06CH1gtIyWpwFIk1UjtPmshIjx3uOn0ONjdFZ7WivYtHTZ8Kc2c7Zui+kE9kxjQnVJIOU1Oymf+iQRDQN8gyVaViZrj6FjtW77MPWZEwnLlQjZevzkqEyahlOFb1DKtEbhqxG/F8BCQpgCNVx1HbwaO5Y2xPeiRfkyJ8MPOqCwaAcSSH/kC6yuxRjpSi3xOsPpTGu7Gm0owYcwBRehEU9+AVVbDwxOyBw41a5Cd5UNehQW6CFzurDciN90HDAbsb9EyQp0b4kGrxszE7vSo0OjXIpH+rRVjMAmo7NahokL/L0Jzp5x2TEnHDpelA8jhrIn0Jc8oPd5eAfaYA1h7qRFq0GksKYhBvO/sEwubOAD7a24aWLj/mT41AiV8LLZnM0tSAbuyEVDjfzZn6TGwhEqKMW4J01AdE8djnduOLSic8AT8KU83IiNEhzqpDlFlmYgMbOTG7XALaHT6cavHhUF03vIIac9LNmBGpg6ZTAqJU4BLC3+DkS1j1cQOe237uUNLnukFC91Oy4YJyO6JjfSwcn+MBStxV0z9E5sOW8baoxAQv42+R7ZuhfciBT5AIk4uwuQSAYSRKTCFkaNWTYz1Ys8eKuKQCLJ0tm8sIkyl0vKTM5s1HWvHHd471+MHP9uiZHGPCY7dOhcmi6UEwlh3VgAsSXnm7AmmGk0hK8MMVUIX9LrJDu/c9RQFQBXlI6HeiAc9LOHrYiC/qTSOa+cZq/c7nOKSphoRKlFGAO8BBp5aYr8Pl5WHQiXD4VIg0COiiQk96AW1OHhF62ZyVZPbDJwHtLjWDaqf94CccN472l4RutwpWg4ROj6oHX6vnECJJ+Je4JFx72Tg61ocjZrcInPJDNKuwxe3BlqpuqDkJuckmFsYcazEgkvjIEPyfSNjhEhiAalWrHxV1Dkabedk2zDBowdslIF3dPxXgfC7qKMZWhMhAYm3zAlpAnKpFxekurDruwpF6Dygix6LjWI1jLR2fADjdItocAsvwzozXoDzFgKIUM4wdEriTAQilPKTR4T72nPFqT7txsK6FMVGR4lY4imChDUhcWQg6LOk0SCGsFOVDmeYUKUGZ13RGpHokdI1s1PLHx66xCBe6Rp3lMWUOT9nC8jXGEIJjMokgiTC5RDgFEbxFZhgipwEnBdhZVAQPFfwQOD14yRO8Js+D+qkkX881iaQIwc9DhMBpwUuyczQ1+jia27XwR+fBfboDZQvkWtbtHg8aDrUiIzsSp6sdaGz3sCJIEr1v8DTcZnci0qIHr1ZBECTYO92MmdusRpmp9+nrcnngdPswPS8ek3PjWWGlY62NcBz3I2tqNCL0Bny6/iRyLVUQLClwutQQOR1UEvl2+KAJR4DA6cBLXoiclr0fozVUoBztvnQg+qrhYzQKrQvdY2gVwEVJSEmKYOtmOdg/EZSEcnc+z5iHqbZ/jFRAz8GVrQLfLsF0esA1AwdXlgqG4yI0lGzXp3njVPDGczBUiND4+1/zJKngi+ZgPTA4IdWZzkOwYuhrmTw7JJgrB8xfBThyeKjbJBia+89R0HNwZqugrZegbxswfxMH12QVjKdEqB0D5hilgi+Zg+mECJ7MSMFmbOMQmW+GWMBD2uWF1AeXirrw0/WQNIC4yzMo3ExVrAe8EsTDgwM/pFkaqOslCDX9YYM0OjUCpWpIdQFgwDW1SQ2hSA1+cwCBKBGqSVrsbXBjR40Th+r9oOJ3cTY1TIZeSeJyS2h3yt9dXqIa87NiUJikBVcngDstAHP1F5TmMZBlKkJkKIlLm5C0k+YAuNOEACvBFaOCkKpiJ2c6cdKHz3Mc1B0CtCcFqAISpGgVuAwtO22jzyaRHxFMYuup39GbcBaq6dFT28MnQvrAA+76XgkkB7D0nsz7Bs+w+QQZauiUEzpZh+4LmR4G3kesj1g6CScGWRE8kYeeFBqbaxHBkWM0Wg4TDiUG0D30zN7n9Vxk4w11jYQAC+kM3kdzF3xHUF3rw+TMQvziib/i/geuh81ixI/+4wU8cO8VeOGvG/DTH9wMXk2MXH4behevz4dHHvsL0jMi8b1/vRFvvr8eUQYz6hvqEZ+WiGWLS3v6Uljuh2vXIi89B/9YvxE3XbEEx07V4+iRRiy7tASb9+/EtUuW4KU/f4z5c0zIm1oMXh0ZBKikcFmZPiz8NkSn4LqEe41Wke7lKwMQtRI7WXJmDpKLBqZnyCoaG4/2UECExEof916jM4Wkk8ARMnCwLLJcE4bFAgOUle0mpx+tVahejCRndGtV4IiXCnSgkKsTsmeqJUADSMS42Zmj9xqn4yCRE8RNAlnuHxqX0weDi5nAChq66JkkvclmTypF0HHem8gpMr+g5JOv9cyBwqXVHEStCFCJFrF3DvQ8FSFO0wGP3o253/qYhjU0RwGct0/CaHCuok4+ivW9Fvrs6RorKjBUeWmivyAB/QLRaB1UkMiqRoJ4ICgCaeN6uQ9BLsHFQWrwgWsQIfISvPEq+FM1LLSbXIhEJrWKA98owlgrH0gRq5JNc2SyuoDMVsMpJxe1ELHbO2ChSni8Ch0dnTAaddDpRkbdHEis1pZWRKsj4ajvhs/jQXRUTK9R1sRBilExTaVvq6+vR1JSEvx+Pzo7OxETE9PvOjkGm5ubER8fP3htaEOvdAE3m0ahVJ7frhTiy6xL4YLNjXI6Pvd+VNcGsHtfO6bkTILb7UPGpHi89JeP8dgjt+H3f3gX5bPzsWHtPtz/na/ildc+x123X8bo/v1H/oB771qG7CmT8L37n8Pjv7oLTrcbf/7jp/ivn9855EwqTzVi3bY9yM1MwbGKOnzz9mU9/X79m//BpUtiUJBfAhXfW2VvlK90xu5SlR8chZYTUoH5wrFvj+U7XixjtbS0IDIyEmq1Gm1tHYiOHv2eEAQRTU2NSNLHo/FoPaw2G4wGY69F1soxc3rfRoKzq6sbNpsNLpcTPK+GTtc/itTj8cDtdrP5fVntohYihw8fgT/gR0FBATZs2ID8/AJER0XC5XJDFAWYzXLmtc/nh0ajZn21Gi1cLhdj/larlf3cvn07CouKEAgI6OrqQnpaKlu4QCAAi8XCTg/0u8PhgFarhcFgwOrVq7F06VJ0d3fj2LFjKC0thdfrg8fjZvfQiZbmtGjRQhZpQuPSBtHrZfUa7zqBb4SXGT4em2c8hMiuHZ3468rdKC/LQ+WxGiy/52q89voq/PiHt+D1N75AVkY8dAYOr//tCyxZWozLL5kNvz+AH//n63jy53ewdfjmPU/j2V/fA4fTh9/94X38v8f/ZUjy1NS24MMPN+Bf770Wv3t+JYoKUrBwwQx2Mvztc+9i4fwkFBXmQMWfn4RURYiMx64dm2ds2rSJHfbS0ydh9arPcfky+cBB3zbtOeIjAXICMj8eVbGUUYm7umUQUfreOzrs2LVrJxYuXIiqU6eQkJgEi8XMxiDhZDTKVgen08l4jslkYirvoUOHMb2oENXVtbBazUxYUB9BEGCxWtHc1AQScvn5+fD5fIx3mc0mqNVjGxByJkpe9ELk2LGjyMzKxskTx7FgXjmMpiisWbcWWjWPvLwCxMbF4sCB/cjKzMTx48cZs1+5ciUibLFIS0+G2WzEzl27kJSYiMTEZNjt7WxDrVu3FhqdCfl5OUhJScHadWvBc1qAE7BgwQImRHJz8+B2u9Da2oLZs2dj9ep14FVqxMZFIDd3KjZu2oiFCxZg755D6LA3M8F06aWXQi3wE1ITqar24O33KvDov93B9izVaf/Jf76MJ/5zOX700xfx0x/dgo07a7Bl7WYUFEzC9V9byoT3Dx79I5576jvs4338F6/g1lsuQ11dEw4ePIX77ruu3/5vaGxGQnwsVq3ZAlvcJJQXyJARz7z4HqZOTsWypWV49tl3sHhxJAryS6Hiz758wJk+PEWIjA2DH49RNm3ezBh11uQMnKiqxrVXX43Tp0/jyJEj8AYCWLp4EWpr65gwIP8baSrE0Ldu3QqT0YDcvHz4vAEcOLAHM2bMwOmGBmROngyDXo+PPv0UBo0BJaXTERsbg88+WwW1WgWT0YiSsjJs3bYNGekZaG5tRkZ6Otur27Ztg1+SMG/WTHawDQmRTZs2M5Omw+nEpZdcMur6SWdLy4tYiEg4fLiCMf/1GzcgPS0dKampqKmuYmYmo9GETVu34NKvfAW79+zFlCnZPUJky9atKCwoYJukrKwU27fvQHl5OZqbW9DRaUdifDy7NnlyJurrTyMnJwf79u1DaWkZNm/egPnzF2LVqtWYPr2ICYaGhnpkZ+egqqYahfn5WLtuHRYvWoyNGzdiwYL5WLNmDVQqSsZSY87cOeADqokpRGq8ON3EY/GC3tr0u/ccxeqtFVgyMxf5hVn4xzsbcc2N8/DpJzuweEkJ/vjqZ2ipqUdCchzuW34VPF4P3nl/E3RaNa5cWo6PPt7aA+JnMhlhsamx/3ADstJjceWy2WhsbMQbb2xAQBDg9vjw3QeuxbFjNdBqnCgqnHJ+NRHyXVhUgEkxZ50tAxuP+0gY2GwR7DuOjolFUWEBNm/ejLxp0xAI+JmFwe1y9RMixOxJiyibMQNVVVWMD+3YsR1fIX6zezcyMiaD9mN1De01LbxeD8xmK/MP8TyP1tZW5OTmYg/rm4GmpmYkJyehqakJkVHRiIqMwMmTlYiIiGBmsqKiIqxatQoajYbdP2fOHMZTxqNdtEKETERHjlRg6tQcdHU5GKEjI6MZ07daLYzYJ06cwPz587Fz506kpqahqqoSc+bMxdat21BUVIgDBw4w4UGSv6CgkJmrOjvtTBM5evQoEyJ1dbXIzc0FCR4ymx08eBDz583FmjVf9DNnZWZmsntyc7KwfccuLFmyFOvWrcO8efN6TG06nZaZ0JhzjaJPBjnnx2NLDP2M8TBnkU8ke0qvAAnnbcluTFFRLPJpAFSH2+vD7l3HWVIaFxDAmwyYNT2TCZXhUD3IzEhOz4MH1px/n8ik8TM5hENLpc/QFKDvn5g0mb1ra2sxbVoetm/bhsTEFPgFL8wmC7q7O+F2e1joS3paGjNXHzp0EGUzylFVeRxJyanYsmULEyJ04MzMymKaSF1dNdRqHTNzR0REoaOjg/lwnQ438vKnouLIIcZ7qqvrmDmrtaUFHKeBxWZEd1c3LBYTKqtqMKu8nI2fk5PLTOpkKhuvdtEKESIgSe/4eBkmobm5CRG2SGi0PPbtOwBySBUXF0OrVePwkaNMJUxMTMKUbBIMp9l9dH9qaiqT/sdOnkRxYSGzOZKji5ziMTHRaG2xIyU1CSdOnkBtTQ1zfpF2ceTIceTlTWGbo6WllY1D2gvdl58/DdHRMaisPAWzmVBARVRUVMBkNqOkuFhO4aKYc+v4nCTC2WzjIURq6gLIyh6dEAln7qPtQweQvXu3o6gw+/xqIhG8fFD4PxCBM1oaXkz9SXAkJCSwg2djYxMSEuIZH9i7Zw/UWi3KSkuZj2Lv3r1wejyYWUpmUBVqaxowOTMN9o5OREVHsUNpVFQMAn4BSUnxLCjE4SBEbZEJqLi4OOzavRvtbW2IiopDSUk+mpvbGC+iw6tarYVazWPvnt3wCyJKS0qYD5V4R1ZWFuM/1bW1SElJRXYWHZbGp13UQmR8SChDMOzcsR108iWn+oyysnN7NDnW33MBN02M6Cw6vfnd+1FbJyAzu/jcaDcGd9N67t+/OqiJKI71MSCpMkSYFCBTV3t7G6ZNK0BiYkKYd3253RQhMkb0p4gJr9fLbJTnbIucoCG+NbV+ZE0JDyF4jJZtyGFIiOzbtwGFBfnnVxNRQnzP5zL+nxzbbrcz/kFm7f8rTREiF+JKTUAh4nXtQUNDG7x+GViRV6kgiFTzRP7JwiaDBYroF4q7p4+NAB6pherCk1ORTAsEUUPwMeyaSsWiWnquUSIf/WEwJSylvQfMMTSOVuPBpIyZihC5EL8PZU4XFAUUIXJBLUdwMhegEIFDhPixC6rzaL/3GuRypxdG46Dz2gZXZRqjyUmxvAzjrSQbjhFFlWG+LAooQuTLovyZnktC5M/dQOEQNUdm64FWATg+AG+BIC1m6IFKP9A0AP8omgdyNcBeL0DFsPo0KUsNLl4N7PICA7CWpBwNuEge2O6R4R0YBnjw5nKdzGDpvoHFQuhapwgcHTBHciKX6IDGAHCyPx4RjBxQrINU4QM3AE8JUzRALA/s8IIh9fVtpVoZ5iM0x37Xgtm9uwfMkSrBzdABbhHY4+s/fxKSZTpGQ6ElAJ6YvJH+coBhjAMd7KLiWL8Qvz9lTqOigCJERkWucezcIQKdA8HwOBnJk8DaSJD0bQS7kqoG2gSQ1tCvEROM44H6wGAmTDAmZhVAYHIDgOsY46Z7CWRuQJ1tehaZiwhbbJAUSdUAVEu9ZcAcCbiSMIEo8ozmGWokF4ix0zUSgPR+IX5N1yJUVLGIwfYzLKO+je6hcYe6FipSRNf6pmIQrQhOm7CP6L37XiPoWKJjhwC0igzMj/CpVITPF6kCE2gkwOm+vi2RBLUW2OIZJIyRr5Uj7TYPKIJF70jgeuNQEW8cd67yqAlGAUWITLAFV15XoYBCAYUCY0kBRYiMJTWVsRQKKBRQKDDBKKAIkQm24MrrKhRQKKBQYCwpoAiRsaSmMpZCAYUCCgUmGAUUITLBFlx5XYUCCgUUCowlBRQhMpbUVMZSKKBQQKHABKOAIkQm2IIrr6tQQKGAQoGxpIAiRMaSmspYCgUUCigUmGAUUITIBFtw5XUVCigUUCgwlhRQhMhYUlMZS6GAQgGFAhOMAooQmWALrryuQgGFAgoFxpICihAZS2oqYykUUCigUGCCUUARIhNswZXXVSigUEChwFhSQBEiY0lNZSyFAgoFFApMMAooQmSCLbjyugoFFAooFBhLCihCZCypqYylUEChgEKBCUYBRYhMsAVXXlehgEIBhQJjSQFFiIwlNZWxFAooFFAoMMEo8P8BlL8UlF+4LmcAAAAASUVORK5CYII=;rotation=90;" parent="1" vertex="1">
                    <mxGeometry x="2750" y="1450" width="552.69" height="716.71" as="geometry"/>
                </mxCell>
                <mxCell id="27" value="100 mm x 70 mm" style="rounded=0;whiteSpace=wrap;html=1;fontSize=20;" parent="1" vertex="1">
                    <mxGeometry x="2780" y="2106.71" width="460" height="60" as="geometry"/>
                </mxCell>
                <mxCell id="24" value="" style="shape=image;verticalLabelPosition=bottom;labelBackgroundColor=default;verticalAlign=top;aspect=fixed;imageAspect=0;image=data:image/png,iVBORw0KGgoAAAANSUhEUgAAAZYAAAHBCAIAAADFEQqOAAAgAElEQVR4Ae2dT66ct472azmZNhBklt7Xt5ngDC+QHvQ0k8CTGAiQNfRaPvgwYWiKoii9kkp/ngvjRC9FUdSP1OOqctn39cL/QAAEQAAEQAAEQAAEQAAEQAAEQAAEQAAEQAAEQAAEQAAEQAAEQAAEQAAEQAAEQAAEQOBUAh/J//yTJu4fvn9utjZOrX9uX9hBAAQOIZCKgrSkh5Sz6Tj1dyzpcrLkltT65+LADgIgcA4B1gV5JDZ+fOiXVzwV9JducuzHkZ40rvVPI8ACArcToFt0EgVTF+iA5pRpdPxzrGrj1Prn9oW9FwGqSK9oiDOJwHll80+UzqYWid6fjXumcVKLH0350yP/TNeaU+TWMZTcd/exwrL7cW7J/7ay1Z437u97prOpRfZcOistNFY/abkyylUcXxodf2eKQ500kFhOOtfhZ7mtbLXnDfqTW/opG3ePclCP7MaD1IEsr9dL7SI92ceJQxEoyPNQvNEBg5TeAYc6/whXlU3e9khp4/5FT+WgHtNkUofUwqt4SkkSq5Wysz9H4AFPqSW5ULzwgAGd/YCD3HWEe8rGlzNY4Cr/orNyUI9pSqlDauFVtVO1/rSRs4oz2XpAB9z6CDcmf0/Zam9glX/RWTmox7TzUofUwqtqp2r9aSNnFWey9YAOuPURbkz+hrLx3UvfHJklr/WPvMnimLSjekzTSB1SC6+qnar1D+bM+Ww6ICybJn9v2seXja/rOP2ChJ1xf46/C2eUSZ/i7LKxfuljZ55r/TlMcaFyUI8chwepQ2pxnP2pjqF4owMGhOWAg9x1hIPL5lxUs8a1/jJIca1yUI8yFI1Th9TCq2qnav1zKXECZwwIyxlnuegUp5bNuaVmdWv90yA+yXQ2tciY6SxZzLfDtVO1/pSYs0pmvu+YDrhv/pdmfmTZai9brb/ZKw5JM36bPyTMhN/F6FSkS3wEGULgvLKZeuGwq/XPhXLimFOmkYKbU6bR8XemOobK0djRTlh2zPzqnM8rW+2Jav35zx/TvqFQ6oWSaaS15pRp5E1VcCeOM5XbonmXFMWOFsKyY+ZX53xY2fhyFgdU9aIbO8guIaO08Jj91YAd1EC58aNyaxYXM6BppB3bptJsd7TQ2XfM/OqcDysb38DigKpedGMH2SVklBY55iU8kLPpmN14kPpAwkwmfY3Ev29MRBtOAGUbjhgbbEIAd2GTQn2fJsr2PQ883UsAd2HL2o8oG8Xkn1tyQdJLEuCmGte3S54bSeUJPGwF1VLmY35zzIBAHQGzwZSxLqLwpjjCgOEOBIJlU11S9bgDBuS4B4GqxlPOxROSf9ENDmsRSMumCv/8ca0DI5udCTzvRhVBwqApacF4AwKqongEgcsJbHBpkaIkcHm/4vggoAjI24HxBgSofjJRVdHnjzI4xiDwhMDzblQRZDI0JS0Yb0AgWDZV+KrHDSggxU0IVDWeci4ekfyLbnBYi8DDsqkuMR/XOjCy2ZmA2WDK2Hw+itO8HAvfQ2BE2Xq11HuIYNeFCQxtrRF3YWGWp6SGsp1SSZzjKQHchacE37IeZXsLdmy6IAHchQWLUk4JZSszgscdBHAXtqwzyrZl2ZD0AAK4CwOgjg+Jso1njB32IIC7sEedVJYomwKCx2sJ4C5sWXqUbcuyIekBBHAXBkAdHxJlG88YO+xBAHdhjzqpLFE2BQSP1xLAXdiy9CjblmVD0gMI4C4MgDo+JMo2njF22IMA7sIedVJZomwKCB6vJYC7sGXpUbYty4akBxDAXRgAdXxIlG08Y+ywBwHchT3qpLJE2RQQPF5LAHdhy9KjbFuWDUkPIIC7MADq+JAo23jG2GEPArgLe9RJZYmyKSB4vJYA7sKWpUfZtiwbkh5AAHdhANTxIVG28Yyxwx4EcBf2qJPKEmVTQPB4LQHchS1Lj7JtWTYkPYAA7sIAqONDomzjGWOHPQjgLuxRJ5UlyqaA4PFaArgLW5YeZduybEh6AAHchQFQx4dE2cYzxg57EMBd2KNOKkuUTQHB47UEcBe2LD3KtmXZkPQAArgLA6COD4myjWeMHfYggLuwR51UliibAoLHawngLmxZepRty7Ih6QEEcBcGQB0fEmUbzxg77EEAd2GPOqksUTYFBI/XEsBd2LL0KNuWZUPSAwjgLthQicviP+3UP62///ITfm1KwCnruKnFWTkHh4TZcBYXr1zZuBG/fvkVvzYlYHfkYOvvv/y0OC7q7RRD7i6knrBUE5gJlwrMXfj7Lz9Vp4sFgwl8fHz4O5CO+D6DZr9++bXYM8X8B+WG3h4Ethx2moRxjYtdWE4aHsMIFCXgXRIW3LeY/zByfwdGn48mrOPPkTCuq94ez4sRKEpAUEq6Hyu4bzH/7omZASlb/G5twulsnCBh0K/ONRsZLiIBkTd03XPcS8JerxdUrHsPGAFJv4aqGPTL4L6wqaOEUen5lQgNco9FJEHdjORf3KuXA1SsF8lsnDkS9vXLr9kMLp74+Pjh4+OHKgB//fbzX7/9XLWk1jkiAUE1IQmjBFi/2MgCx6LmpPr8JVgDuoYCpUcIZp4uhCVEYLSE4XchpwwNN4Tu4VAV6yth9H6KfirNUo8OKH5T5vu8Xi8n+QZ0DQVKM8QVSJn0tMyRsJ4Z7x+LLwYP4mdquIfx4OTpqACHmn8tg69lnOQb0HGBeMAEqgbBF61VMeH8NwFI2PxWoPvAP6sSiNxDjuwPcvs6KiCXBDVFLmkex/dyko+gUxkqgGo2/hjPPx4Tnn8TGCphVLnIJx231UPejaqzR+4hBzcj+7O0JBWC//rf/0e/ZMz4iwv5npH7gQcyZjrOdZGZUpo5B4ygY2caMKvajyxVnNwRlBseWwhMkLCWtC5Yw9ej6qyRe/jx8cOXL//58uU/9NkQ3Woq9Ov1oin/TiohYLFQKha/maxWrGX8GVnx+LSLcjNTUmmrJRF0aklbjVQQeozLvbkcRpuA1C9ucdu1yWo2X1OkAxe1XY/IPSQJI5HiW82DL1/+Q1v7TNn/9XqZekHLgyVWykWKxrrmZJJTSTMlmXMaM4JOrWqrkQpCj0FQ5loYswQgYVk04yfarkfkHvLrLP5tSQ76Stjr9Rr6+iJ381MJ8/Xr9XpF0Kmyt9VIBaHH3EFMZxijBCBhUVK9/fhu+G/o0m0j95CDp8s/31p++zJaZF8pCiwZaczcC6XUs9biX3uVkszW3CiCTi1kkhFcaq169M+inPEYJQAJi5Lq6icvRu3diNxDFT/3GDlTURcoCN3Pvl9grlLGSJ4RdIqJQqdmqx4hYVW4os47Shg3ohpEz1zyU2H5sbSuYp4uBr8gqljZ9G6oKr5yjkgDLaFPu7qoGAti5MMy2j2SZ0Mpn1RKkYSEKSB9HveVsD//+FH9Ur9hNj+qsPQ46NvwfEPi5Wy4h/HgpmdEHWghq9gTIaN/Sy4uXv438uWJGtA1FEjuKMeQMEmj2/i9EmaqTPFs1Ijm2kHGP//4cTUJK1Lq6BCXMNqUhaw2B7rktLxqbTBD6pzKyKEPDSMxIWERStU+u0tY9YHrF3x8/DBOwurTec+KoEZwcqxi/M/z8pQa0MVmt6oXXxyqNj1eOHMACetPO9UvsnTcyS+b+aKpuLt8FVZ0fu4ACSOGtTJBKsY/WaToGxjqkd0a6lWbWMMWXZb4d6HLFtcFWUHCFPTIH89BwhS0aY9PxIJFim4yPz5M/klKDVs/+TwBEtYAvLAEElYA9DkdeRVGqpr+lF+nlLO8rzTymGeLy6XnnPFkyfAP9SQZph0c5GqRW55mDglLmTy1QMIiBJ9IWK6/6Tdzf9a5M5G0B/k8UY2+KT3JxCGfm3LKYS5JDwsJS5k8tWwqYXRs+hztKYLA+shGZhOPMwayHujyRDt6pfUwBy6NFCbOjWfl20ZplHYzAoeSA0iYpNFnDAmLcKyVMNnTsu9pL2nhMafBFjWQDjx+4+CJgqi/FdRwiie703YSb5qAOSuNNOaFPMUWcwAJM7E8MkLCIvjeLmGmJkYyH+rTpiOsXzRoyLBtX7URi44csE/RyA60RD1yHDWAhCkgTx9z+kX2p9H/We+XLf3zx9TyTyT934iy6DVNz5GNuInbBjKvNMKaEib/JTKZvz9uljBuVz9+cDaFTBZaLmdTizPr7+7fBX8tZg0C3BPmwFjQZPLLRuqgfgb3iShLMJTvFtlItrUcm+ojHWjMCaRT7KCmeMnbB9w/kUwaJIziR4LHfXyqEnWxgtLBT8C/C/5azBoEuPPMgbGgyeSXTYlXRCw4iypnXtUwiGwkm56vB+2VTrFDbipibzjI6CVBrWEVK+YTDFiMkzrkCJOnnJUKJe08lg7pRtLi3wXpiXGIgKlcbAyFCDj5ZTtSwhQV2euy3dluDiiIOUVGtcs6j110p0sQh4kJlv3lrCxZ3IE95cC/C9IT4xABVitzEAoRcBpXtsiLo0CCZZfIRqrpZVCeIiM/Ol8NM5erhdJnwbFqqmKGtf7FgL6DhMljXiItPHa+SME+HMEcjLsL5nZ3GamBRpx5XNkiytLlRHM2omvgJKyukOO54FSqUKnlLWnPpDruLrwF3VqbQsKcesyRMCeB86a6fDFiOyyQsIElg4Q5cCFhDhxMxQlAwuKsqj3HSdj//f7ff339H1IB/ASBmwnQXai+nFgQIQAJu/lq4exzCEDCIlrU6DNawhrTcpdR27kufSanbdQnXURZlQAkbGBlIGEOXEiYAwdTcQKQsDirak9ImIMMEubAwVScACQszqraExLmIIOEOXAwFScACYuzqvaEhDnIIGEOHEzFCUDC4qyqPd8lYaQO6mcw+2nKMm2j4MHhtikBSNjAwkHCHLiQMAcOpuIEIGFxVtWekDAHGSTMgYOpOAFIWJxVtecbJUzl+vBfbY0vV/s6j3MkjP+1g+Lf93ZSXWSKz7JIPoukAQkbWIiTJKy7inWRML7VPJDlZKMaSJ9eY38LfzaYgwwSXHKDGyRsYJXPkDDSmi6KI1l3CShvNY9pF340BzKTLuN0Fw6bTrX9WzQchyPzgKecATsfNoCEDSzoXhJG3W8qi2l8CC7yf4Vb3MK8sbTKnJLGYvAqBxmZxrzcmWKfyIDjKGe2Fwdq4RmPkLCBdTxGwkYweq+E0YnSO6/s6t9HzvlLN/ZhaGzhgdpF2Z2F5MkOuTgcUA3UwjMeIWED6wgJc+C+XcLU9eZHU494Nh3QGeN2eheZ+pOFieUczDehjjNPcZ68RTowg6duqaV5YRqq1gIJqyVW4f9GCaO3fvJnMW/q9RHvGc2tx0mYrxF8pTsOcqqXs/tbF1eZPNkog7PRjBmZ5WgyQnGhXMXOZOTHXgNIWC+SRhxImAHlH9M6EkYZ8a0rDuRl9p0jnkWf1OEfhPZ/ZUrsIY1y7J893VqtlY+5cboFZ9VlAAnrgtEOsq+EyZdv48Z//vHjwzcguWsTt9Mtde6qOUX1ju/iexajKQe72/6xyr3UQjn1fGySiYT9J9M+/4WE9eFoRtlRwv7840f1q5eEqbD0OFrCitfMLJy8h+TAFunPxuIglwbZ1RYymrmdNKbjdLm0FN9l51JVQZxHP0Ka8EMLJOwhQG/5uyTMyyk/l2vK/Iq6mRHxczHZ7l8nckuPwcvZQVrYXxr9sZNGMZrpwMZ0IDOhWWl5Mo5Hi5w3zbzNAglr4xZatZeEhY60mFPxQjp3idbygXKhyEHO+kvMHU1jVQIyAidgDtJUpeXJ2ERhBpTZKgcz5ydGSNgTeoW1O0oYN1zhbGtMc7a590fOXeK1dBR+VANz1glrTplG3qg4qxx89hyW36RLiwKlIvuzJgoVnB5znn7mbbOQsDZuoVXbSZhqx9Ah3+okEzZvY2qUSyJjOp/vKXeRY1oViSDjpxHkLAtTDrx0Zh9pVOPiduwfP0jOk/PpOICEdYSpQ0HCNJHez3y7+GL7Fp517q2a4pR5rRqY/tKHIiiLfJRjiqZiSgcac1bpQDrzrDSqcXEv9k8PwlNqkNuX7R0HkLCOMHUoSJgmMuCZLw/F5kdT1NiYOtNCZVf5yuDsTzF5SkXgHdnBtKhovqyorNRjulGaEvvwWrbIgUwj9cyFTT0pJtv7DiBhfXl+F207CTNb9rsjLfnAItKWHV8wFheOk1oYkRyQv+nMoZyBk4Da5eFJnRyeT6XHl2qYzj7fkSJAwnqRNOLsKGHGMWACgXoCc/Tr9XpBwuqLE14BCQujguNpBCBhJ1QUEnZCFXGGtQngVdjA+kDCBsJFaBD4JAAJG9gIkLCBcBEaBD4JQMIGNgIkbCBchAaBTwKQsIGNAAkbCBehQeCTACRsYCNAwgbCRehPAvxPIaU8nKnUeV8LJGxg7Q6QMPVH43gcR6CtEVmnnEFb5F1WQcIGVuoMCTP/qUIYuxNoa0RWrnS5M5U672uBhA2s3TESNpARQr9ef/32859//NhGwtEpZ6ptrzVXQcIG1gUSNhDuQaEhYU+KCQl7Qq+wFhJWAITpTwKQsCeNAAl7Qq+wFhJWAITpTwJdJIzfNqaDIOZ0YdwS3GKEGyRsBNW/Y0LCBsI9KPQTCeuIIS5YqWfHNGpDQcJqiVX4Q8IqYF3supSE1daB5EyuSgXu4+MH6dB3DAnry/O7aMdLGDerPLZpfL1eVfYq51zwdYLkMiRukDDZP7VjSFgtsQr/syWMBYIGxMU0ygssnXP2w4LkjsmdBAljFA0DSFgDtOgSSBiTqlKlKuecQKwTJJchwwlKWPoXAziCPwguJGJ+qHQ2XZW+bUwtaZxmCySsGV15ISSMGVUJSpVzTiDWCZLLkOHMlzDzX7JPxYgzdAbpqlSwUosTsHYKElZLrML/bAmTN1NCYe2Qxpxzzn5YkNwxCVGthNHfbWJEkQEtkS/HVHU4w9TuW2h36ZMKVmqR/g/HkLCHAL3lx0uYd3jMhQlUSdiff/wY0aycD6tYml0qRqlPaklXpYKVWtI4zRZIWDO68kJIWJkRPMJ/R5LUx5EwyRISJmlg3EgAEtYI7rJlVa/CctqkXunk3P7840fzgzC8kbys6WLHPV7C+J5IHqaRb4i6aTn7YUFyxyRuQQkjZyaTDswqKDfpo8bkqYzFx3SVWeJinGYHvJFsRldeeLaEmXfDNMoLrDre9DeN+wZxMqceOk/CVAVTUStfnrAHJCyMqt4REsbMVE/79irnnECsEySXIUNYQcIohwat+fj4Qb05VeTpkQ/bfQAJ647034CQMGah2tq3VznnBGKdILkMGYKSMJU5PbKzOat80h15FcdRA8qh4V9eZAnjj9h4LzlQ23V8hIR1hKlDnS1h8p7Ik3PjSmPOOWc/LEjumISou4QxvXSgisKPHSWMY84ZQMIGcj5ewgayuyl0g4Q5eKRsSTeyS4scQ8IkDYz/JgAJQytECKQSplbRR1T0vTBfiZyXe7SQgqj4r3++m9bljWQafKgFr8IG4oWEDYR7UOgqCaOvtuZOzy/BUgcpYfy5FbvhVRijwOBfAsdLmHlhTGPx1YH6s7DDgjjH51dA3DcKBa0lNxKa1EGuJXRs4QHZc3/BCBLGoDD4l8DZEsYqI++MaZQXWDrn7IcFyR2TG6XXqzDmxpHlgGYhYZIJxgUCkDAGxLeLBr69yjknEOsEyWXIECBhjKJhgM/CCtBIhtKfhWWf05AwplQlKFXOOYFYJ0guQ4ZTJWF0Ll7LAz4vW9SAHPBxvsJy7GOqWTmLg+BsCZM3U0LI3aUqe5Xz+pnkMiRuQQkjZyIjgUt78WOydCFZKAf8iWSOz2b2nFrl7LnjHS9huYPDXkUglTBWcB5wQFPCUjf254G5kGchYYxi+wHrVPEk7Pnx8WE6Q8JMLDAqAg0SxpolBzKstMux9JFjSJiksfGYVSl+BmfJ8RLGd0PiMo3OOynT3zTuG8TJ3PxSBR+fB0yYLeag6MYOakAS5rwPVf78yH9HUlrS3Hi2+wAf53+HtE10cqty9u+2bHqYVjb1AkEmq9qUpkyjvMDkwHFMf9O4bxAnc+LgQGZQPFBw5CP7pDuym/RRY/JRxuJjuor3koNinGaHaXehOcOpC9tEJ7cqZ39+pGllc26XbFD+3ds0pjeKCZj+pnHfIE7mxMGBzKB4oODIR/ZJd2Q36aPG5KOMxcd0Fe8lB8U4zQ7T7kJzhlMXtolOblXO/vxI08rm3C7ZoJAwqqnJJBUU1QAOZOlJ34dQW8hH6Sztcpz7UgUnKYNExhRcenIzsDG18NTzwbS78DzVGRHaRCe3Kmd/fpJpZfNvF98NeSLTyDck7WbT3zTuG8TJPP0sTMKUY1If/N9/SCav12vaXVD7LvpIopP7E0YzaWfJ8RJmAoGxloD/+wRHK0oY674zoCDpX/NmkeXtggPaSzqbv0tJh75jSJjm6UiSdn29fGdIWEoMlpRAlYT99dvPjkIVp+gfiYaEpVU4ysLCFBzkDg8Jy5GBXRKolTDnlZQMy2P2lwOe5UH6eoqnnEG6Cq/CHFzzpoLi5b/lPF7C+Pd8WRjTyO9TzP42r0Fq3DeIk3ntZ2G+DMlC8FguoTFPyYEJXDqY43SVWWJzbRcj3kgWMOa0rLDsc/psCaPe5Z8EhB9VZ1fZq5ylOshN1wmSy5BbKPgqjP/JMEeGOKYaSBVTU/wo6bGxOEhXKfKpQzFmlQMkrApXnTMkjHmptvbtVc45gVgnSC5DhhCXMF4yYtCmNekqRT516Js8JKwvz++iQcIYh2pr317lnBOIdYLkMmQIkDBG0TCAhBWg4Y2k8w+wsExIiKZRXmPpnLMfFiR3TEKxlIQx+aqBrKm5UDr0HUPCbJ455Urt9vpP69mvwpyDY6qKwGESVnX2586QMINhqlO+xQjxaYKE5cjALgk8kTB+ySMD0tiZSp33tUDCdO1YrfRE8syeua9WQMISZjAYBLpIGAtWOjC2PMgECfuumKxK31ndB2fJ8RLGt0USMo3Oh0Gmv2ncN4iTefx7YRIyj3Og/B15+QEDSNh3RWwTndyqnP27LZseppXNeYHAl4cGdA7TKK+TdM7ZDwuSOyZX3oHMPrkBs0odnKnUeV/LtLuwB6I20cmtytmfs5hWNud28Q2hAR3KNDp32PQ3jfsGcTInaA7kYqswq9TTmUqd97VMuwt7IGoTndyqnP05i2llc24X3xAa0KFMo3OHTX/TuG8QJ3OC5kAutgqzSj2dqdR5X8u0u7AHojbRya3K2Z+zmFY2/3aZl8Q0ymusjm/6m8Z9gziZ9/osjImlAwX8sMdpd2EPbiQ6uT9hNM/gLDlewkwgMNYS8H+fqI3W0T9VQ9PScceGUJAwDc2RJO2Kfy8sJQJLPYH1Jcw8E8uZOTvNCAkzULOKBQdGiE/T8a/CzCY2jc47KdPfNO4bxMn84RvJXO91seeqQMH92S4JRIJAwmxKQfHy33KeLWHcwTRQbS2N8gJH7GbkfYM4mRM0vAqzL2HMCgkrcMppWWHZ5zQkjClVqVKVc04g1gmSy5DhQMIYRcMAEtYALboEEsakqgSlyjknEOsEyWXIcCBhjKJhAAlrgBZdcraEyZspibB2SGPOOWc/LEjumIRofQnjcpgDVejJj5CwgcCPl7CB7G4KvayEbVEESNjAMkHCBsI9KDQk7EkxIWFP6H1bSzpl/tEkJOwp3DvWQ8Ke1BkS9oTet7U3Sxh/MiIhmkbnwyDT3zTuG8TJfOXvhcmyLjuGhA0szdmvwlhlaEAcTaO8wNI5Zz8sSO6Y3Hl4FcYoGgaQsAZo0SWQMCZVpUpVzjmBWCdILkOGAwljFA0DSFgDtOgSSBiTqhKUKuecQKwTJJchw4GEMYqGASSsAVp0ydkSJm+mJMLaIY0555z9sCC5YxIiSJhqFYmLO+Hj44fU7fV6QcJMLHXGnFTl7HXRLe9pZcPtsvB3ti0LWcqHM+6M4zOcuZ250bS7YO6+qJGkR/70E81JVc7uR4vMTivbsrcrQmkXn2Uhs46YJP1Zc0ncyMHlwFw+7S6Yu69olMqlxrl0c1KVs+fixO3Tyrbs7YqzWt9zWcgsHyZDf9ZcEjembxtTC0Wbdhfiyb/Zk2WL82CL+f3Vz/ft31zYnwfHS5jZxKZRfrrBfGhg+pvGfYM4ma/8vbBcFZzCqeI2P6aClVooOCTsO8isVt9ZxfdXq6TqbAnj/qYBETON8gJL55z9sCC5Y3KP4VUYo+BBKliphZwhYQzt28AXndxsrf27LZseppXNuV2m0JhG5w6b/qZx3yBO5lR8B3JTd3RbxIUwI/qz5pK4MRWs1ELRpt2FePLv9MyJEeVEs+kLsdyqnP35CaeVzbld3ME0+AfRD9LOJ5VG2Yum3TQ6QmD6m8a3BHE2JT4OZAb4loFimHsckZtsEoqfWsg+7S6MOGb/mEXRMVUstypnf573tLL5t4t7Wp7INMprLJ1z9sOC5I5JKHzICtclj6lgpRZCMe0u7EE+IjqpiuVW5ezPWUwrG27X82IVIwByiigVrNRCq6bdhTTJFS2pPJlZKrecVOXsZswq47Sy4XZV1aXNGZBTbvwyXA5SN3w732Ci5Mnw+DRJt5xU5ey5mHH7IhLG7SUzN43OOynT3zTuG8TJfOUvVciyTh5zA8iBmcO0u2DuvqKRtSn92F6lKz1N57MlTPYWv8g3jfICkwOTNP1N475BnMyJA16FcT/wQPWAaht2w6swieK7cVB9pIp9t/7zIRgkXVi0TPudx7ldqskoZ9Po3GHT3zTuG8TJnKA5kIudAIdpd+Fk1Dmpytmfs5hWNud2mUJjGp07bPqbxn2DOJlTJziQn7fK8RGm3YXjSRoHPFvC5M2Uh2cBksacc85+WJDcMQkRJEy1StUjJKwKV53z8RJWhwPeGQKQsAyYkBkSFsLkO+WkKmf3o0Vmp5UNtytSjoc+gPwE4LS78CTJ2WtJeuRPP4OcVOXsfrTI7LSy4XZFyvHQB5CfAJx2FxgTsAEAABOKSURBVJ4kOXWtVC41zuWRk6qcPRcnbp9WNv92mZ9YmUbnwyDT3zTuG8TJHN8Li7e96TntLpi7r2hk2eLk2GJ++euzO7+5sD8PzpYwVhka0KlNo7zA0jlnPyxI7pjcJ/7vE+yGgUkAEvYdFlar76z//CM8OUmqtavgDY/TyubcLlNoTKNzh01/07hvECdzKr0DuaE3blsy7S7sATYnRpR9brbW/pzFtLI5t8sUGtPo3GHT3zTuG8TJnDrBgfy8VY6PMO0u7EEyJ0aUPc2m7xlzq3L25yymlc2/Xaw18kSmUV5j6ZyzHxYkd0xC4UNWuPCoCEy7C2rfRR+LomOqWG5Vzv788NPKhtv1vFjFCIBcROQ4TLsLTg4LTUVEJ1Wx3Kqc/fmBp5UNt+t5sYoRRkDml7FPBsXMV3CYdhdWOGw5h1SezDXKLSdVObsZs8o4rWwjblfVSW9wHgH5iXLx2i3gT7sLW9D4lqSSp1ze0i0nVTl7LmbcPq1s/u0ye900Oh8Gmf6mcd8gTuaDvhfGAJ8M4g35Rs9pd+GNZ6zbmrUp/dheBZKepvPZEqbuBsExjfICkwOTNP1N475BnMyJg//7BLOqGiiGbY9VO77LGRJmkw+qj1SxNFAwSLqwaJlWNud2qVtBOZtG5w6b/qZx3yBO5gTNgVzshJyDYtj2mAu+lH3aXVjq1J2TyUlVzv58+2llc26XuhV0KNPo3GHT3zTuG8TJnKA5kJtbRTFse2zefebCaXdh5qFW2etsCZM3UxLn2yKNOeec/bAguWMSIkiYapWqR0hYFa465+MlrA4HvDMEBklYZreomf//EKIL3uQHCRsIHhI2EO5BoSFhT4oJCXtCr7D2eAkz3+6ZRuedlOlvGvcN4mQ+7ksVhe4sTeNVWInQBfNnSxirDA2onqZRXmDpnLMfFiR3TL4BeBXGKBoGeBXWAC26BBLGpKpUqco5JxDrBMllyHAgYYyiYQAJa4AWXQIJY1JVglLlnBOIdYLkMmQ4kDBG0TCAhDVAiy45W8LkzZREWDukMeecsx8WJHdMQgQJU61S9QgJq8JV53y8hNXhgHeGACQsAyZkhoSFMLU5QcLauN22ChL2pOKQsCf0CmshYQVAmP4kAAl70giQsCf0CmuPlzDzEyvT6HwYZPqbxn2DOJnje2GFW1SahoSVCD2YP1vCWGVoQJxMo7zA0jlnPyxI7pjcWYNehSmMDY+c4coDSNjA6kDCGK66P769yjknEOsEyWXIECBhjKJhAAlrgBZdAgljUlWCUuWcE4h1guQyZDiQMEbRMICENUCLLjlbwuTNlERYO6Qx55yzHxYkd0xCBAlTrVL1CAmrwlXnfLyE1eGAd4YAJCwDJmSGhIUwtTlBwtq43bYKEvak4pCwJ/QKayFhBUCY/iQACXvSCJCwJ/QKayFhBUCY/iQwQsLuQQsJG1hrSNhAuAeFhoQ9KSYk7Am9wtqtJeyv336mX3/+8WPhnJh+RgAS9oQfJOwJvcLafSWM9Ytu159//IhfowkUmgnTGQKQsAyYHuZNJUzqF8bTCPTouBtjQMIGVv0kCRuICaFB4AEBSNgDeKWlkLASIcyDwFMCkLCnBJ31m0oY/fMv8g2Uc0ZMgcB7CUDCBvLfV8Kkig0EhNAg8JgAJOwxwnyArSUsfyzMgMBCBCBhA4sBCRsIF6FB4JMAJGxgI0DCBsJFaBD4JAAJG9gIkLCBcBEaBD4JQMIGNgIkbCBchAaBTwKQsIGNMFrC+J82xQAEFiGQ/jWs0YlBwiBhP4xuMsS/hECqX2wZRwAStqWE/f7LT1+//DowdYQGgUoC8rvQPOYvGFYGq3DHXaiAVes67o0kylZbC/iPJsCyxQPSr9H74i4MJAwJGwgXoVciwLKlBhNyhIQNhAwJGwgXoVcioJSLHzlHsvBjxwEkrCNMHQoSpong+VwCLFtqQCdmY3cAkLDuSP8NOFrCfv/lp383wwgE3kqARcof9M2R9AsXoS/Vf6ONk7DX6/X1y6+o3L+sMVqAgC9ePNsxU7wE6wjTCDVUwvD7j0EcpukElDDxozPolePvv/wECesF044zVMJerxdUzOYO6xQCSqR4T2VPH9nz4QD69RBgefloCZMq1vFNpeq53DmV21+//ZzzhP08Aqr68itgasp8fAiEX391bPuHKZ25fIKEsYp9/fJrl0/Hgg1nurHxzHLiVIIA15oHPMmW3IA9awesXL26vTaB6/znSBhhldV98ltTpO1yPtJ+XbEvO7Csde24AVWv9m7Y+uolMyWMQdMHBM2vyHLtyPH5b73lPMku/TE+j4BffX+2ioYUr6qFcO5A4C0SRnk3f9KZaz6JI+fDdumM8ZEEuNYNgyogzZ1ctQucbQJvlLDmL445HUmHdBzklE0E1lMIyFrXjuMMoF9xVkM83ythbeV32pEYOQ5yaghQBM0TkPDTcX5d40y6RdBStV9bD1dtAWePwHslrO2FmNOIdFTHQU55XDDnEqBPf+RP1/3bpCRvjosRah3MXSLG+EbQrzirUZ5vl7CGJnC6kDA5DnJqFNPT41LJ6EsD/LP4R8ySvDnujs3cpWisSqOhe6viw7lM4DAJoy+vFtuUHMp04PE9Af6jNyVYLGrKLlerosipQWO1Y+SxNhNIWC2x/v7nSVikU9mnP9BzI7J+5Y5I9zmnYsw8HeQCPrSnGzmWtr0gYW3ceq46W8L8j2B6crwgVuS6Oj7d5aOI3NlRTRVD5Ryc8+aWwN6ZACSsM9Bzw0W+iuxcaaUa8nEQM7kFj/vu5Zy370aIliVwgIQ5L7WcKfyV72xPWBPxu5pTOhaRdGBt2ME2YaM4lg7nQQiTACTMxAKjIhC/q0EJU/FHPCoJG7FFHMuI3RHzG4GDJYwKrPpYPqID4gTidzXnKcmn43gmcU+5S3xVlWfusFVB4PyIACTsEb5rFsfvas5TCoo57s6Sd+kemQPmDssOGAwhQLKV+zlky3zQhibg1qQBxVZG/qgrtbMlnxRmNIF4mXKejD030Fs+fqaNHofxAuQO663B3HMCOfF6yyuyhiZQd4CAmEbn43yaeg7zkgjxMjmeqkbqsTtJ/m2se2QO6ByWfTDoT+BICVNqJanJq8L2Cf3Nex0wiN/VuOdoLFT3obusc9ihx1wu+O4SRkBNDWIjD5Szsi9Xm1UTit/VuOeqZ63I66rDVnAZ7XqGhI2mhPiSQPyuxj1l/E3HVx12rRrlVGx+lmiC+cwbdoyXKe7ZkMZqS6467FrwIWFr1WP5bOJ3Ne65/KHLCV512DKOmR6QsJm0D9grflfjnldhOeCwax0BErZWPZbPJi5Mcc/lD11O8KrDlnHM9ICEzaR9wF7xuxr3vArLAYdd6wiQsLXqsXw2cWGKey5/6HKCVx22jGOmByRsJu0D9orf1bjnVVgOOOxyR0hV7C0pXtXxbyHcZdN4meKeXRJ7b5CrDvte1MbukDADCkwZAvG7GvfMbLWT+arDLlcYSNhyJVk4ofhdjXsufNxoalcdNgplmh8kbBrqAzaK39W451VYDjjsckeAhC1XkoUTigtT3HPh40ZTu+qwUSjT/CBh01AfsFH8rsY9r8JywGGXOwIkbLmSLJxQXJjingsfN5raVYeNQpnmBwmbhvqAjeJ3Ne55FZYDDrviEaSKvSu/qzr+XZCf7xsvU9zzeVZvj3DVYd9O20gAEmZAgckiEL+rcU9rn81sVx12xdpAwlasypI5xe9q3HPJg9YlddVh69DM8YaEzeF8wC7xuxr3vArLAYdd8QiQsBWrsmROcWGKey550LqkrjpsHZo53pCwOZwP2CV+V+OeV2E54LArHuFdEvbx8QP/+r/f//uvr//DjxisSSBeprjnmietyipy2BVv/kk5kYq98URX/ab9Rs4Pt46XKe75MKUVll912BWAGzlAwgwoMCUE4nc17plssp/hqsMuWh5I2KKFWSyt+F2Ney52xJZ0rjpsC6AJayBhEyAfsEX8rsY9r8JywGH7H4HUZ/GfxWN//fLr1y+//v7LT/i1OIGvX34tVvP1epGELX6WXulR90awwMcgsLh4BV/fURPg5xYEjC5MTCRhWxynV5IJAxhuIhBUupuQ4KzbEED3blOqcYmiCcaxReTRBNC9owlvEB9NsEGRkGKGALo3A+YmM5rgpmqfdlZ072kVbTgPmqABGpYsQgDdu0gh3pkGmuCd9LH3MwLo3mf8jliNJjiijJceAt17aeHlsdEEkgbGexFA9+5VryHZogmGYEXQKQTQvVMwr70JmmDt+iA7jwC616NzyRya4JJCH3lMdO+RZa07FJqgjhe8VyKA7l2pGm/KBU3wJvDYtgMBdG8HiLuHQBPsXsGb80f33lz9v8+OJkAT7EsA3btv7bpljibohhKBphNA905Hvt6GaIL1aoKMogTQvVFSB/uhCQ4u7vFHQ/ceX+LyAdEEZUbwWJUAunfVykzMC00wETa26kwA3dsZ6I7h0AQ7Vg05EwF0LzrhhSZAE+xLAN27b+26ZY4m6IYSgaYTQPdOR77ehmiC9WqCjKIE0L1RUgf7oQkOLu7xR0P3Hl/i8gHRBGVG8FiVALp31cpMzAtNMBE2tupMAN3bGeiO4dAEO1YNORMBdC86AV+qQA9sTAAStnHxeqWOJuhFEnHmE0D3zme+3I5oguVKgoTCBNC9YVTnOqIJzq3t+SdD955f4+IJ0QRFRHBYlgC6d9nSzEsMTTCPNXbqTQDd25vohvHQBBsWDSn/TQDdi1bAlyrQAxsTgIRtXLxeqaMJepFEnPkE0L3zmS+3I5pguZIgoTABdG8Y1bmOaIJza3v+ydC959e4eEI0QRERHJYlgO5dtjTzEkMTzGONnXoTQPf2JrphPDTBhkVDyn8TQPeiFfClCvTAxgQgYRsXr1fqaIJeJBFnPgF073zmy+2IJliuJEgoTADdG0Z1riOa4Nzann8ydO/5NS6eEE1QRASHZQmge5ctzbzE0ASv199/pvHx8VHkTrjkz+IS00FGcEqQuqUWM/4lRgfdJQRwzNv/RFIpgtMQylM+OqvSKbkwHSv/1CG1qCVXPRKNq46Mw2oCNzdBXA6kpyTIdml0xuyvXvEV7U7Mm6eI280EcPZ7X4WxakTeSEpn1TTOlPL0NzLjmMY07LUW4nPt8XHwbwSubQJ58KJSSGfVN8W10t+JY9aiKrjc6JKxz/MSCLcfE03A2qHe3HFnFHUkztD3TGeLW3OSdw5SYndyuPrUaIL1JezqBnUPj+518dwxiSboJWG5F3Gyj4i26WlOyeqwgzTK4BeOgeLCousjowmKEsYOmt0/zywu/xi8/5rOppH35dl04O10wRwBueCgOGKeAJpAKkWOE2tH6sBT5mur1F9uJ9eay6WDDJWzS58bxsThhpPijFkCaAKpKTlMOcmQdlODzIBqFT+mzjSV2iM5m6sOMzp8DjspjpMlgCYIygELjRoEl1MBeG1aD2cqdS5Gyy05zE7QDjsUjlNHAE3QpkGSmxz79H1PfzaNTP7xV39phN0ttcR2Py/yNwigCaokzCAY/npwUXGKDmr3Wn+1/IBHdO8BRXx6BDQBJOxpD71vPbr3feyX2RlN8FDCCGDk3VzRUzmox7Rlig7pksMsROCwQ+E4dQTQBBEJy4lFzp6rgU87nU0tHLl2a1540sDhc9IxcRaPAJqgSsLkqy0WEWlk1iZYXsJuPDCn2Ki2yNk52iUD4nDJYXFMm8CdTSAlwBlLZEE3XpID68RROkWhav05gRsGOcg3nB1n/JvAnU3g6wLPpl3CU0VuvoOKY4qX3L3WX649eOxDPvjgONq/BNAE/7LAaDcC6N7dKjYgXzTBAKgIOYkAuncS6JW36d4EFJB/rnx25DaHADfDoGabcwrssiiBJ12lWtN8XPTYSGsiAbMxlLEtHQrStharDiEQaQLVbVWPh2DCMR4QqGoY5exvS86+D2YPJ6CaQDXQ88fD8eF4AQLPu0hF4D3Jzo8Y3EhANQceQWA7AjfeW5yZCWzXr0gYBBQBbmYMbiRA3cAnV83x/JEjY3AtgeddpCIwSbLzIwY3Eog0gWqgqscbmeLM3xOoahjl/H0k/UTO2ornqwg8aQLVbebjVTBxWJOA2RjKaC4sGilI0Q0OJxPo3gRdWvNk4vedbVxLdO/e+4qz/4nRBPvX8N4ToHvvrT2fHE3AKDDYjgC6d7uS9U8YTdCfKSLOIoDunUV64X3QBAsXB6kVCKB7C4BumEYT3FDlU8+I7j21shXnQhNUwILrYgTQvYsV5B3poAneQR179iGA7u3DcesoaIKty3d58ujeyxvg2/HRBGiCfQmge/etXbfM0QTdUCLQdALo3unI19sQTbBeTZBRlAC6N0rqYD80wcHFPf5o6N7jS1w+IJqgzAgeqxJA965amYl5oQkmwsZWnQmgezsD3TEcmmDHqiFnIoDuRSfgSxXogY0JQMI2Ll6v1NEEvUgiznwC6N75zJfbEU2wXEmQUJgAujeM6lxHNMG5tT3/ZOje82uME4IACIAACIAACIAACIAACIAACIAACIAACIAACIAACIAACIAACIAACIAACIAACIAACIAACIAACIAACIAACIAACIAACIAACIAACIAACIAACIAACIAACIAACIAACIAACIAACIAACIAACIAACIAACIDALgT+P1IRXFn5zV7RAAAAAElFTkSuQmCC;" parent="1" vertex="1">
                    <mxGeometry x="4530" y="1770" width="189.89" height="210" as="geometry"/>
                </mxCell>
                <mxCell id="7" value="" style="shape=flexArrow;endArrow=classic;html=1;fontSize=20;fillColor=#60a917;strokeColor=#2D7600;" parent="1" edge="1">
                    <mxGeometry width="50" height="50" relative="1" as="geometry">
                        <mxPoint x="4720" y="1430" as="sourcePoint"/>
                        <mxPoint x="4720" y="1370" as="targetPoint"/>
                    </mxGeometry>
                </mxCell>
                <mxCell id="35" value="&lt;font style=&quot;font-size: 50px;&quot;&gt;Current BREAD&lt;/font&gt;" style="text;strokeColor=none;fillColor=none;align=left;verticalAlign=middle;spacingLeft=4;spacingRight=4;overflow=hidden;points=[[0,0.5],[1,0.5]];portConstraint=eastwest;rotatable=0;whiteSpace=wrap;html=1;fontStyle=5" parent="1" vertex="1">
                    <mxGeometry x="2780" y="50" width="415" height="100" as="geometry"/>
                </mxCell>
                <mxCell id="36" value="&lt;font style=&quot;font-size: 42px;&quot;&gt;Hardware Layout&lt;/font&gt;" style="text;strokeColor=none;fillColor=none;align=left;verticalAlign=middle;spacingLeft=4;spacingRight=4;overflow=hidden;points=[[0,0.5],[1,0.5]];portConstraint=eastwest;rotatable=0;whiteSpace=wrap;html=1;" parent="1" vertex="1">
                    <mxGeometry x="2788" y="1420" width="415" height="100" as="geometry"/>
                </mxCell>
                <mxCell id="39" value="" style="rounded=0;whiteSpace=wrap;html=1;fillColor=none;" parent="1" vertex="1">
                    <mxGeometry x="4320" y="170" width="820" height="986.71" as="geometry"/>
                </mxCell>
                <mxCell id="kcnUWA92U77O0IDC7jmT-41" value="" style="rounded=1;whiteSpace=wrap;html=1;fillColor=#FF9800;" parent="1" vertex="1">
                    <mxGeometry x="65" y="66.71" width="720" height="2100" as="geometry"/>
                </mxCell>
                <mxCell id="kcnUWA92U77O0IDC7jmT-42" value="" style="rounded=1;whiteSpace=wrap;html=1;fillColor=#2196F3;" parent="1" vertex="1">
                    <mxGeometry x="915" y="59.99999999999999" width="720" height="2100" as="geometry"/>
                </mxCell>
                <mxCell id="kcnUWA92U77O0IDC7jmT-43" value="" style="rounded=1;whiteSpace=wrap;html=1;fillColor=#F44336;" parent="1" vertex="1">
                    <mxGeometry x="1760" y="59.99999999999999" width="720" height="2100" as="geometry"/>
                </mxCell>
                <mxCell id="40" value="&lt;font style=&quot;font-size: 50px;&quot;&gt;&lt;b&gt;SLICE&lt;/b&gt;&lt;/font&gt;" style="rounded=1;whiteSpace=wrap;html=1;fillColor=#d5e8d4;strokeColor=#82b366;" vertex="1" parent="1">
                    <mxGeometry x="-725" y="100" width="630" height="160" as="geometry"/>
                </mxCell>
                <mxCell id="41" value="&lt;font style=&quot;font-size: 50px;&quot;&gt;&lt;b&gt;LOAF&lt;/b&gt;&lt;/font&gt;" style="rounded=1;whiteSpace=wrap;html=1;fillColor=#d5e8d4;strokeColor=#82b366;" vertex="1" parent="1">
                    <mxGeometry x="110" y="100" width="630" height="160" as="geometry"/>
                </mxCell>
                <mxCell id="42" value="&lt;font style=&quot;font-size: 50px;&quot;&gt;&lt;b&gt;BATCH&lt;/b&gt;&lt;/font&gt;" style="rounded=1;whiteSpace=wrap;html=1;fillColor=#d5e8d4;strokeColor=#82b366;" vertex="1" parent="1">
                    <mxGeometry x="960" y="100" width="630" height="160" as="geometry"/>
                </mxCell>
                <mxCell id="43" value="&lt;font style=&quot;font-size: 50px;&quot;&gt;&lt;b&gt;OVEN&lt;/b&gt;&lt;/font&gt;" style="rounded=1;whiteSpace=wrap;html=1;fillColor=#d5e8d4;strokeColor=#82b366;" vertex="1" parent="1">
                    <mxGeometry x="1805" y="100" width="630" height="160" as="geometry"/>
                </mxCell>
                <mxCell id="44" value="MicroMod Inspo Idea" style="text;strokeColor=none;fillColor=none;align=left;verticalAlign=middle;spacingLeft=4;spacingRight=4;overflow=hidden;points=[[0,0.5],[1,0.5]];portConstraint=eastwest;rotatable=0;whiteSpace=wrap;html=1;fontSize=40;" vertex="1" parent="1">
                    <mxGeometry x="4490" y="1230" width="480" height="70" as="geometry"/>
                </mxCell>
            </root>
        </mxGraphModel>
    </diagram>
</mxfile>